{
.appVersion = "939";
copyright = "Copyright (c) 2013 by TamirPomerantz. All rights reserved.";
customParameters = (
{
name = description;
value = "Copyright (c) 2013 by . All rights reserved.";
},
{
name = vendorID;
value = "TMR ";
},
{
name = panose;
value = (
2,
0,
0,
0,
0,
0,
0,
0,
0,
0
);
},
{
name = unicodeRanges;
value = (
11
);
},
{
name = codePageRanges;
value = (
1255
);
},
{
name = glyphOrder;
value = (
.notdef,
NULL,
uni000D,
space,
exclam,
quotedbl,
numbersign,
dollar,
percent,
ampersand,
quotesingle,
parenleft,
parenright,
asterisk,
plus,
comma,
hyphen,
period,
slash,
zero,
one,
two,
three,
four,
five,
six,
seven,
eight,
nine,
colon,
semicolon,
less,
equal,
greater,
question,
at,
bracketleft,
backslash,
bracketright,
asciicircum,
underscore,
grave,
a,
b,
c,
d,
e,
f,
g,
h,
i,
j,
k,
l,
m,
n,
o,
p,
q,
r,
s,
t,
u,
v,
w,
x,
y,
z,
braceleft,
bar,
braceright,
asciitilde,
exclamdown,
cent,
sterling,
currency,
yen,
brokenbar,
section,
dieresis,
copyright,
ordfeminine,
guillemotleft,
logicalnot,
registered,
degree,
plusminus,
twosuperior,
threesuperior,
acute,
paragraph,
cedilla,
onesuperior,
ordmasculine,
guillemotright,
onequarter,
onehalf,
threequarters,
questiondown,
multiply,
divide,
florin,
macron,
endash,
quoteleft,
quoteright,
quotesinglbase,
quotedblleft,
quotedblright,
quotedblbase,
dagger,
daggerdbl,
bullet,
ellipsis,
perthousand,
guilsinglleft,
guilsinglright,
trademark,
periodcentered,
lozenge,
g120,
g121,
glyph95,
glyph96,
glyph93,
glyph94,
ch270,
ch271,
ch272,
ch273,
ch274,
ch275,
ch276,
ch277,
glyph70,
glyph71,
glyph64,
glyph65,
glyph52,
glyph53,
ch278,
ch279,
ch280,
ch291,
ch282,
ch287,
ch290,
ch289,
ch288,
ch297,
ch292,
ch295,
ch296,
ch283,
ch298,
ch281,
glyph87,
glyph88,
ch302,
glyph89,
glyph91,
glyph92,
ch286,
ch301,
ch284,
ch309,
glyph72,
glyph73,
glyph146,
glyph147,
ch308,
ch293,
ch310,
ch299,
ch314,
ch305,
ch294,
ch325,
ch320,
ch323,
ch318,
ch321,
ch324,
ch331,
ch304,
ch285,
ch316,
ch311,
ch330,
ch315,
ch334,
ch317,
ch332,
ch319,
glyph4,

glyphs = (
{
glyphname = .notdef;
lastChange = "2017-07-29 05:17:02 +0000";
layers = (
{
layerId = "4658478A-2F1B-4277-A21C-C0C75B782ED1";
paths = (
{
closed = 1;
nodes = (
"142 1759 LINE",
"710 1759 LINE",
"710 320 LINE",
"142 320 LINE"
);
},
{
closed = 1;
nodes = (
"782 28 LINE",
"782 2031 LINE",
"70 2031 LINE",
"70 28 LINE"
);
}
);
width = 852;
}
);
note = .notdef;
},
{
glyphname = exclam;
lastChange = "2017-07-29 05:17:02 +0000";
layers = (
{
layerId = "4658478A-2F1B-4277-A21C-C0C75B782ED1";
paths = (
{
closed = 1;
nodes = (
"201 484 OFFCURVE",
"228 484 OFFCURVE",
"260 456 CURVE SMOOTH",
"276 441 OFFCURVE",
"299 417 OFFCURVE",
"324 390 CURVE SMOOTH",
"336 377 OFFCURVE",
"348 363 OFFCURVE",
"361 350 CURVE",
"386 322 OFFCURVE",
"407 299 OFFCURVE",
"418 280 CURVE SMOOTH",
"429 260 OFFCURVE",
"431 242 OFFCURVE",
"425 225 CURVE SMOOTH",
"419 208 OFFCURVE",
"404 187 OFFCURVE",
"388 163 CURVE SMOOTH",
"379 150 OFFCURVE",
"371 138 OFFCURVE",
"363 125 CURVE",
"354 112 OFFCURVE",
"346 99 OFFCURVE",
"338 87 CURVE SMOOTH",
"329 74 OFFCURVE",
"322 63 OFFCURVE",
"315 52 CURVE SMOOTH",
"302 31 OFFCURVE",
"287 15 OFFCURVE",
"271 3 CURVE SMOOTH",
"238 -21 OFFCURVE",
"216 4 OFFCURVE",
"188 33 CURVE SMOOTH",
"160 62 OFFCURVE",
"129 98 OFFCURVE",
"100 131 CURVE SMOOTH",
"85 148 OFFCURVE",
"74 161 OFFCURVE",
"65 170 CURVE SMOOTH",
"30 207 OFFCURVE",
"30 232 OFFCURVE",
"53 276 CURVE",
"65 297 OFFCURVE",
"84 327 OFFCURVE",
"107 359 CURVE SMOOTH",
"130 391 OFFCURVE",
"155 424 OFFCURVE",
"180 456 CURVE SMOOTH"
);
},
{
closed = 1;
nodes = (
"42 1432 OFFCURVE",
"63 1365 OFFCURVE",
"81 1298 CURVE SMOOTH",
"117 1163 OFFCURVE",
"141 1035 OFFCURVE",
"157 923 CURVE SMOOTH",
"172 811 OFFCURVE",
"180 724 OFFCURVE",
"184 670 CURVE",
"185 643 OFFCURVE",
"186 627 OFFCURVE",
"186 622 CURVE SMOOTH",
"186 594 OFFCURVE",
"203 569 OFFCURVE",
"232 569 CURVE SMOOTH",
"251 569 OFFCURVE",
"272 592 OFFCURVE",
"272 624 CURVE",
"278 704 OFFCURVE",
"288 781 OFFCURVE",
"301 855 CURVE SMOOTH",
"328 1002 OFFCURVE",
"362 1129 OFFCURVE",
"396 1233 CURVE SMOOTH",
"430 1337 OFFCURVE",
"460 1412 OFFCURVE",
"478 1452 CURVE SMOOTH",
"487 1472 OFFCURVE",
"491 1482 OFFCURVE",
"491 1483 CURVE",
"467 1511 OFFCURVE",
"445 1541 OFFCURVE",
"426 1574 CURVE",
"386 1638 OFFCURVE",
"356 1699 OFFCURVE",
"336 1744 CURVE SMOOTH",
"326 1766 OFFCURVE",
"319 1782 OFFCURVE",
"314 1791 CURVE SMOOTH",
"305 1808 OFFCURVE",
"278 1819 OFFCURVE",
"251 1820 CURVE SMOOTH",
"224 1821 OFFCURVE",
"197 1812 OFFCURVE",
"188 1791 CURVE",
"184 1779 OFFCURVE",
"170 1755 OFFCURVE",
"154 1726 CURVE SMOOTH",
"137 1697 OFFCURVE",
"116 1660 OFFCURVE",
"96 1627 CURVE SMOOTH",
"73 1587 OFFCURVE",
"47 1544 OFFCURVE",
"18 1497 CURVE"
);
}
);
width = 521;
}
);
note = exclam;
unicode = 0021;
},
{
glyphname = quotedbl;
lastChange = "2017-07-29 05:17:02 +0000";
layers = (
{
layerId = "4658478A-2F1B-4277-A21C-C0C75B782ED1";
paths = (
{
closed = 1;
nodes = (
"808 1740 OFFCURVE",
"791 1757 OFFCURVE",
"773 1773 CURVE",
"754 1788 OFFCURVE",
"736 1806 OFFCURVE",
"717 1825 CURVE SMOOTH",
"678 1862 OFFCURVE",
"637 1865 OFFCURVE",
"586 1825 CURVE",
"474 1693 LINE",
"477 1666 OFFCURVE",
"477 1638 OFFCURVE",
"475 1608 CURVE SMOOTH",
"470 1547 OFFCURVE",
"459 1485 OFFCURVE",
"444 1427 CURVE SMOOTH",
"429 1369 OFFCURVE",
"415 1321 OFFCURVE",
"405 1289 CURVE SMOOTH",
"395 1257 OFFCURVE",
"392 1251 OFFCURVE",
"401 1235 CURVE",
"409 1219 OFFCURVE",
"425 1209 OFFCURVE",
"445 1209 CURVE SMOOTH",
"464 1209 OFFCURVE",
"476 1222 OFFCURVE",
"510 1260 CURVE SMOOTH",
"544 1298 OFFCURVE",
"590 1351 OFFCURVE",
"639 1408 CURVE SMOOTH",
"688 1465 OFFCURVE",
"732 1518 OFFCURVE",
"764 1555 CURVE",
"779 1574 OFFCURVE",
"789 1586 OFFCURVE",
"794 1591 CURVE",
"807 1607 OFFCURVE",
"822 1631 OFFCURVE",
"830 1656 CURVE",
"837 1681 OFFCURVE",
"838 1707 OFFCURVE",
"823 1723 CURVE SMOOTH"
);
},
{
closed = 1;
nodes = (
"403 1740 OFFCURVE",
"386 1757 OFFCURVE",
"368 1773 CURVE SMOOTH",
"350 1788 OFFCURVE",
"331 1806 OFFCURVE",
"312 1825 CURVE SMOOTH",
"275 1862 OFFCURVE",
"233 1865 OFFCURVE",
"182 1825 CURVE",
"70 1693 LINE",
"73 1666 OFFCURVE",
"73 1638 OFFCURVE",
"71 1608 CURVE SMOOTH",
"66 1547 OFFCURVE",
"54 1485 OFFCURVE",
"39 1427 CURVE SMOOTH",
"24 1369 OFFCURVE",
"11 1321 OFFCURVE",
"1 1289 CURVE SMOOTH",
"-9 1257 OFFCURVE",
"-12 1251 OFFCURVE",
"-3 1235 CURVE",
"5 1219 OFFCURVE",
"21 1209 OFFCURVE",
"41 1209 CURVE SMOOTH",
"60 1209 OFFCURVE",
"72 1222 OFFCURVE",
"106 1260 CURVE SMOOTH",
"140 1298 OFFCURVE",
"186 1351 OFFCURVE",
"235 1408 CURVE SMOOTH",
"259 1437 OFFCURVE",
"282 1464 OFFCURVE",
"304 1489 CURVE SMOOTH",
"325 1514 OFFCURVE",
"344 1536 OFFCURVE",
"360 1555 CURVE SMOOTH",
"375 1574 OFFCURVE",
"385 1586 OFFCURVE",
"390 1591 CURVE",
"403 1607 OFFCURVE",
"418 1631 OFFCURVE",
"426 1656 CURVE SMOOTH",
"434 1681 OFFCURVE",
"434 1707 OFFCURVE",
"418 1723 CURVE"
);
}
);
width = 872;
}
);
note = quotedbl;
unicode = 0022;
},
{
glyphname = numbersign;
lastChange = "2017-07-29 05:17:02 +0000";
layers = (
{
layerId = "4658478A-2F1B-4277-A21C-C0C75B782ED1";
paths = (
{
closed = 1;
nodes = (
"451 401 LINE",
"632 401 LINE",
"546 -25 LINE",
"767 -25 LINE",
"854 401 LINE",
"1162 401 LINE",
"1162 602 LINE",
"893 605 LINE",
"940 897 LINE",
"1162 897 LINE",
"1162 1105 LINE",
"967 1105 LINE",
"1054 1491 LINE",
"845 1491 LINE",
"758 1105 LINE",
"566 1105 LINE",
"653 1491 LINE",
"439 1491 LINE",
"352 1105 LINE",
"70 1105 LINE",
"70 897 LINE",
"315 897 LINE",
"259 602 LINE",
"70 602 LINE",
"70 401 LINE",
"239 401 LINE",
"152 -25 LINE",
"364 -25 LINE"
);
},
{
closed = 1;
nodes = (
"725 897 LINE",
"667 602 LINE",
"476 602 LINE",
"530 897 LINE"
);
}
);
width = 1232;
}
);
note = numbersign;
unicode = 0023;
},
{
glyphname = dollar;
lastChange = "2017-07-29 05:17:02 +0000";
layers = (
{
layerId = "4658478A-2F1B-4277-A21C-C0C75B782ED1";
paths = (
{
closed = 1;
nodes = (
"616 -29 LINE",
"868 -17 OFFCURVE",
"1043 168 OFFCURVE",
"1043 417 CURVE SMOOTH",
"1043 530 OFFCURVE",
"1004 630 OFFCURVE",
"933 701 CURVE SMOOTH",
"862 772 OFFCURVE",
"797 799 OFFCURVE",
"616 844 CURVE",
"616 1348 LINE",
"733 1344 OFFCURVE",
"800 1267 OFFCURVE",
"821 1126 CURVE",
"1010 1126 LINE",
"974 1391 OFFCURVE",
"825 1495 OFFCURVE",
"616 1515 CURVE",
"616 1685 LINE",
"510 1685 LINE",
"510 1515 LINE",
"271 1491 OFFCURVE",
"104 1362 OFFCURVE",
"104 1106 CURVE SMOOTH",
"104 1034 OFFCURVE",
"120 970 OFFCURVE",
"151 913 CURVE SMOOTH",
"213 800 OFFCURVE",
"362 726 OFFCURVE",
"510 682 CURVE",
"510 127 LINE",
"369 130 OFFCURVE",
"282 245 OFFCURVE",
"254 438 CURVE",
"70 438 LINE",
"79 322 OFFCURVE",
"104 232 OFFCURVE",
"145 167 CURVE SMOOTH",
"227 38 OFFCURVE",
"330 -11 OFFCURVE",
"510 -34 CURVE",
"510 -211 LINE",
"616 -211 LINE"
);
},
{
closed = 1;
nodes = (
"346 916 OFFCURVE",
"284 997 OFFCURVE",
"284 1120 CURVE SMOOTH",
"284 1244 OFFCURVE",
"370 1349 OFFCURVE",
"510 1350 CURVE",
"510 867 LINE"
);
},
{
closed = 1;
nodes = (
"809 610 OFFCURVE",
"858 536 OFFCURVE",
"858 405 CURVE SMOOTH",
"858 252 OFFCURVE",
"756 135 OFFCURVE",
"616 130 CURVE",
"616 657 LINE"
);
}
);
width = 1113;
}
);
note = dollar;
unicode = 0024;
},
{
glyphname = percent;
lastChange = "2017-07-29 05:17:02 +0000";
layers = (
{
layerId = "4658478A-2F1B-4277-A21C-C0C75B782ED1";
paths = (
{
closed = 1;
nodes = (
"70 837 OFFCURVE",
"201 715 OFFCURVE",
"376 715 CURVE SMOOTH",
"553 715 OFFCURVE",
"689 844 OFFCURVE",
"689 1075 CURVE SMOOTH",
"689 1311 OFFCURVE",
"557 1435 OFFCURVE",
"374 1435 CURVE SMOOTH",
"177 1435 OFFCURVE",
"70 1280 OFFCURVE",
"70 1085 CURVE SMOOTH"
);
},
{
closed = 1;
nodes = (
"467 1320 OFFCURVE",
"534 1257 OFFCURVE",
"534 1081 CURVE SMOOTH",
"534 890 OFFCURVE",
"468 830 OFFCURVE",
"379 830 CURVE SMOOTH",
"292 830 OFFCURVE",
"225 893 OFFCURVE",
"225 1068 CURVE SMOOTH",
"225 1260 OFFCURVE",
"291 1320 OFFCURVE",
"379 1320 CURVE SMOOTH"
);
},
{
closed = 1;
nodes = (
"1341 1435 LINE",
"1135 1435 LINE",
"331 0 LINE",
"546 0 LINE"
);
},
{
closed = 1;
nodes = (
"1007 123 OFFCURVE",
"1137 0 OFFCURVE",
"1313 0 CURVE SMOOTH",
"1490 0 OFFCURVE",
"1627 130 OFFCURVE",
"1627 359 CURVE SMOOTH",
"1627 596 OFFCURVE",
"1493 720 OFFCURVE",
"1312 720 CURVE SMOOTH",
"1113 720 OFFCURVE",
"1007 565 OFFCURVE",
"1007 370 CURVE SMOOTH"
);
},
{
closed = 1;
nodes = (
"1405 605 OFFCURVE",
"1472 542 OFFCURVE",
"1472 366 CURVE SMOOTH",
"1472 175 OFFCURVE",
"1407 115 OFFCURVE",
"1316 115 CURVE SMOOTH",
"1229 115 OFFCURVE",
"1162 180 OFFCURVE",
"1162 353 CURVE SMOOTH",
"1162 545 OFFCURVE",
"1228 605 OFFCURVE",
"1317 605 CURVE SMOOTH"
);
}
);
width = 1697;
}
);
note = percent;
unicode = 0025;
},
{
glyphname = ampersand;
lastChange = "2017-07-29 05:17:02 +0000";
layers = (
{
layerId = "4658478A-2F1B-4277-A21C-C0C75B782ED1";
paths = (
{
closed = 1;
nodes = (
"1032 82 OFFCURVE",
"1117 23 OFFCURVE",
"1208 -3 CURVE",
"1276 82 LINE",
"1216 173 OFFCURVE",
"1148 257 OFFCURVE",
"1072 334 CURVE",
"1127 417 OFFCURVE",
"1164 522 OFFCURVE",
"1184 650 CURVE",
"1049 680 LINE",
"1010 609 OFFCURVE",
"975 545 OFFCURVE",
"945 486 CURVE",
"695 802 LINE",
"871 913 OFFCURVE",
"959 1039 OFFCURVE",
"959 1178 CURVE SMOOTH",
"959 1350 OFFCURVE",
"818 1491 OFFCURVE",
"618 1491 CURVE SMOOTH",
"409 1491 OFFCURVE",
"254 1340 OFFCURVE",
"254 1164 CURVE SMOOTH",
"254 1076 OFFCURVE",
"287 994 OFFCURVE",
"419 842 CURVE",
"187 731 OFFCURVE",
"70 585 OFFCURVE",
"70 404 CURVE SMOOTH",
"70 200 OFFCURVE",
"234 -25 OFFCURVE",
"534 -25 CURVE SMOOTH",
"697 -25 OFFCURVE",
"836 41 OFFCURVE",
"955 173 CURVE"
);
},
{
closed = 1;
nodes = (
"462 1086 OFFCURVE",
"439 1136 OFFCURVE",
"439 1181 CURVE SMOOTH",
"439 1272 OFFCURVE",
"512 1324 OFFCURVE",
"609 1324 CURVE SMOOTH",
"704 1324 OFFCURVE",
"775 1273 OFFCURVE",
"775 1173 CURVE SMOOTH",
"775 1089 OFFCURVE",
"745 1029 OFFCURVE",
"589 937 CURVE",
"509 1030 LINE SMOOTH"
);
},
{
closed = 1;
nodes = (
"773 208 OFFCURVE",
"644 149 OFFCURVE",
"536 149 CURVE SMOOTH",
"363 149 OFFCURVE",
"264 296 OFFCURVE",
"264 415 CURVE SMOOTH",
"264 512 OFFCURVE",
"313 614 OFFCURVE",
"525 705 CURVE",
"842 315 LINE"
);
}
);
width = 1346;
}
);
note = ampersand;
unicode = 0026;
},
{
glyphname = quotesingle;
lastChange = "2017-07-29 05:17:02 +0000";
layers = (
{
layerId = "4658478A-2F1B-4277-A21C-C0C75B782ED1";
paths = (
{
closed = 1;
nodes = (
"476 1580 LINE",
"181 1580 LINE",
"94 1391 LINE",
"70 1201 LINE",
"251 1201 LINE",
"384 1391 LINE"
);
}
);
width = 546;
}
);
note = quotesingle;
unicode = 0027;
},
{
glyphname = parenleft;
lastChange = "2017-07-29 05:17:02 +0000";
layers = (
{
layerId = "4658478A-2F1B-4277-A21C-C0C75B782ED1";
paths = (
{
closed = 1;
nodes = (
"451 -44 OFFCURVE",
"329 272 OFFCURVE",
"329 696 CURVE SMOOTH",
"329 1119 OFFCURVE",
"438 1416 OFFCURVE",
"599 1603 CURVE",
"300 1603 LINE",
"147 1347 OFFCURVE",
"70 1046 OFFCURVE",
"70 699 CURVE SMOOTH",
"70 352 OFFCURVE",
"145 51 OFFCURVE",
"294 -205 CURVE",
"602 -205 LINE"
);
}
);
width = 672;
}
);
note = parenleft;
unicode = 0028;
},
{
glyphname = parenright;
lastChange = "2017-07-29 05:17:02 +0000";
layers = (
{
layerId = "4658478A-2F1B-4277-A21C-C0C75B782ED1";
paths = (
{
closed = 1;
nodes = (
"521 51 OFFCURVE",
"595 352 OFFCURVE",
"595 699 CURVE SMOOTH",
"595 1046 OFFCURVE",
"519 1347 OFFCURVE",
"368 1603 CURVE",
"73 1603 LINE",
"232 1416 OFFCURVE",
"339 1119 OFFCURVE",
"339 696 CURVE SMOOTH",
"339 272 OFFCURVE",
"219 -44 OFFCURVE",
"70 -205 CURVE",
"374 -205 LINE"
);
}
);
width = 665;
}
);
note = parenright;
unicode = 0029;
},
{
glyphname = asterisk;
lastChange = "2017-07-29 05:17:02 +0000";
layers = (
{
layerId = "4658478A-2F1B-4277-A21C-C0C75B782ED1";
paths = (
{
closed = 1;
nodes = (
"718 1258 LINE SMOOTH",
"733 1266 OFFCURVE",
"737 1284 OFFCURVE",
"729 1299 CURVE SMOOTH",
"646 1443 LINE SMOOTH",
"638 1458 OFFCURVE",
"620 1462 OFFCURVE",
"605 1454 CURVE SMOOTH",
"513 1401 LINE",
"513 1507 LINE SMOOTH",
"513 1524 OFFCURVE",
"500 1537 OFFCURVE",
"483 1537 CURVE SMOOTH",
"317 1537 LINE SMOOTH",
"300 1537 OFFCURVE",
"287 1524 OFFCURVE",
"287 1507 CURVE SMOOTH",
"287 1401 LINE",
"195 1454 LINE SMOOTH",
"180 1462 OFFCURVE",
"162 1458 OFFCURVE",
"154 1443 CURVE SMOOTH",
"71 1299 LINE SMOOTH",
"63 1284 OFFCURVE",
"67 1266 OFFCURVE",
"82 1258 CURVE SMOOTH",
"174 1205 LINE",
"82 1152 LINE SMOOTH",
"67 1144 OFFCURVE",
"63 1126 OFFCURVE",
"71 1111 CURVE SMOOTH",
"154 967 LINE SMOOTH",
"162 952 OFFCURVE",
"180 948 OFFCURVE",
"195 956 CURVE SMOOTH",
"287 1009 LINE",
"287 903 LINE SMOOTH",
"287 886 OFFCURVE",
"300 873 OFFCURVE",
"317 873 CURVE SMOOTH",
"483 873 LINE SMOOTH",
"500 873 OFFCURVE",
"513 886 OFFCURVE",
"513 903 CURVE SMOOTH",
"513 1009 LINE",
"605 956 LINE SMOOTH",
"620 948 OFFCURVE",
"638 952 OFFCURVE",
"646 967 CURVE SMOOTH",
"729 1111 LINE SMOOTH",
"737 1126 OFFCURVE",
"733 1144 OFFCURVE",
"718 1152 CURVE SMOOTH",
"626 1205 LINE"
);
},
{
closed = 1;
nodes = (
"287 1270 LINE",
"400 1336 LINE",
"513 1270 LINE",
"513 1140 LINE",
"400 1074 LINE",
"287 1140 LINE"
);
}
);
width = 801;
}
);
note = asterisk;
unicode = 002A;
},
{
glyphname = plus;
lastChange = "2017-07-29 05:17:02 +0000";
layers = (
{
layerId = "4658478A-2F1B-4277-A21C-C0C75B782ED1";
paths = (
{
closed = 1;
nodes = (
"1144 809 LINE",
"767 809 LINE",
"767 1194 LINE",
"459 1194 LINE",
"459 809 LINE",
"70 809 LINE",
"70 503 LINE",
"459 503 LINE",
"459 159 LINE",
"767 159 LINE",
"767 503 LINE",
"1144 503 LINE"
);
}
);
width = 1214;
}
);
note = plus;
unicode = 002B;
},
{
glyphname = comma;
lastChange = "2017-07-29 05:17:02 +0000";
layers = (
{
layerId = "4658478A-2F1B-4277-A21C-C0C75B782ED1";
paths = (
{
closed = 1;
nodes = (
"381 185 OFFCURVE",
"381 187 OFFCURVE",
"380 188 CURVE SMOOTH",
"379 189 OFFCURVE",
"379 190 OFFCURVE",
"378 191 CURVE SMOOTH",
"377 192 OFFCURVE",
"377 193 OFFCURVE",
"377 194 CURVE",
"376 194 OFFCURVE",
"376 195 OFFCURVE",
"375 196 CURVE SMOOTH",
"372 199 OFFCURVE",
"370 203 OFFCURVE",
"368 206 CURVE",
"365 209 OFFCURVE",
"362 213 OFFCURVE",
"359 217 CURVE",
"348 228 OFFCURVE",
"337 241 OFFCURVE",
"325 255 CURVE",
"312 268 OFFCURVE",
"300 282 OFFCURVE",
"288 295 CURVE SMOOTH",
"263 322 OFFCURVE",
"239 346 OFFCURVE",
"223 361 CURVE SMOOTH",
"192 389 OFFCURVE",
"166 389 OFFCURVE",
"144 361 CURVE SMOOTH",
"119 329 OFFCURVE",
"94 296 OFFCURVE",
"71 264 CURVE SMOOTH",
"48 232 OFFCURVE",
"29 202 OFFCURVE",
"17 181 CURVE SMOOTH",
"-7 137 OFFCURVE",
"-7 112 OFFCURVE",
"29 75 CURVE SMOOTH",
"39 64 OFFCURVE",
"53 48 OFFCURVE",
"70 29 CURVE SMOOTH",
"87 9 OFFCURVE",
"105 -11 OFFCURVE",
"122 -30 CURVE",
"123 -31 OFFCURVE",
"123 -31 OFFCURVE",
"123 -31 CURVE",
"134 -43 OFFCURVE",
"144 -54 OFFCURVE",
"153 -64 CURVE SMOOTH",
"165 -77 OFFCURVE",
"174 -91 OFFCURVE",
"180 -105 CURVE SMOOTH",
"192 -134 OFFCURVE",
"163 -182 OFFCURVE",
"143 -213 CURVE SMOOTH",
"132 -229 OFFCURVE",
"125 -244 OFFCURVE",
"122 -259 CURVE",
"115 -288 OFFCURVE",
"126 -294 OFFCURVE",
"153 -305 CURVE",
"165 -312 OFFCURVE",
"178 -312 OFFCURVE",
"191 -306 CURVE SMOOTH",
"204 -300 OFFCURVE",
"219 -286 OFFCURVE",
"238 -259 CURVE SMOOTH",
"250 -242 OFFCURVE",
"278 -199 OFFCURVE",
"307 -146 CURVE SMOOTH",
"335 -93 OFFCURVE",
"365 -28 OFFCURVE",
"382 32 CURVE SMOOTH",
"399 92 OFFCURVE",
"405 148 OFFCURVE",
"382 184 CURVE"
);
}
);
width = 443;
}
);
note = comma;
unicode = 002C;
},
{
glyphname = hyphen;
lastChange = "2017-07-29 05:17:02 +0000";
layers = (
{
layerId = "4658478A-2F1B-4277-A21C-C0C75B782ED1";
paths = (
{
closed = 1;
nodes = (
"639 1415 OFFCURVE",
"617 1437 OFFCURVE",
"589 1437 CURVE SMOOTH",
"98 1437 LINE SMOOTH",
"71 1437 OFFCURVE",
"48 1415 OFFCURVE",
"48 1387 CURVE SMOOTH",
"48 1089 LINE SMOOTH",
"48 1061 OFFCURVE",
"71 1039 OFFCURVE",
"98 1039 CURVE SMOOTH",
"589 1039 LINE SMOOTH",
"617 1039 OFFCURVE",
"639 1061 OFFCURVE",
"639 1089 CURVE SMOOTH",
"639 1387 LINE SMOOTH"
);
}
);
width = 688;
}
);
note = hyphen;
unicode = 002D;
},
{
glyphname = period;
lastChange = "2017-07-29 05:17:02 +0000";
layers = (
{
layerId = "4658478A-2F1B-4277-A21C-C0C75B782ED1";
paths = (
{
closed = 1;
nodes = (
"139 446 OFFCURVE",
"113 412 OFFCURVE",
"90 381 CURVE SMOOTH",
"67 349 OFFCURVE",
"48 319 OFFCURVE",
"36 298 CURVE",
"24 275 OFFCURVE",
"19 258 OFFCURVE",
"20 242 CURVE SMOOTH",
"21 226 OFFCURVE",
"31 211 OFFCURVE",
"48 191 CURVE",
"57 182 OFFCURVE",
"68 169 OFFCURVE",
"83 152 CURVE SMOOTH",
"98 135 OFFCURVE",
"113 119 OFFCURVE",
"128 102 CURVE SMOOTH",
"158 68 OFFCURVE",
"188 35 OFFCURVE",
"204 23 CURVE SMOOTH",
"237 0 OFFCURVE",
"271 31 OFFCURVE",
"298 74 CURVE",
"305 84 OFFCURVE",
"312 95 OFFCURVE",
"321 108 CURVE",
"337 133 OFFCURVE",
"354 159 OFFCURVE",
"371 184 CURVE",
"379 197 OFFCURVE",
"386 208 OFFCURVE",
"393 218 CURVE SMOOTH",
"420 259 OFFCURVE",
"419 286 OFFCURVE",
"378 333 CURVE SMOOTH",
"358 357 OFFCURVE",
"332 385 OFFCURVE",
"308 412 CURVE SMOOTH",
"283 439 OFFCURVE",
"259 462 OFFCURVE",
"243 477 CURVE SMOOTH",
"211 505 OFFCURVE",
"184 505 OFFCURVE",
"163 477 CURVE SMOOTH"
);
}
);
width = 441;
}
);
note = period;
unicode = 002E;
},
{
glyphname = slash;
lastChange = "2017-07-29 05:17:02 +0000";
layers = (
{
layerId = "4658478A-2F1B-4277-A21C-C0C75B782ED1";
paths = (
{
closed = 1;
nodes = (
"571 1563 LINE",
"70 -137 LINE",
"363 -137 LINE",
"852 1563 LINE"
);
}
);
width = 922;
}
);
note = slash;
unicode = 002F;
},
{
glyphname = zero;
lastChange = "2017-07-29 05:17:02 +0000";
layers = (
{
layerId = "4658478A-2F1B-4277-A21C-C0C75B782ED1";
paths = (
{
closed = 1;
nodes = (
"261 1624 OFFCURVE",
"258 1622 OFFCURVE",
"252 1617 CURVE SMOOTH",
"240 1607 OFFCURVE",
"222 1590 OFFCURVE",
"200 1569 CURVE SMOOTH",
"189 1558 OFFCURVE",
"177 1547 OFFCURVE",
"165 1536 CURVE SMOOTH",
"73 1448 LINE",
"73 424 LINE",
"73 396 LINE",
"73 171 LINE",
"106 140 OFFCURVE",
"135 113 OFFCURVE",
"161 89 CURVE",
"172 78 OFFCURVE",
"182 68 OFFCURVE",
"193 59 CURVE",
"214 39 OFFCURVE",
"233 23 OFFCURVE",
"245 13 CURVE",
"250 8 OFFCURVE",
"254 5 OFFCURVE",
"256 5 CURVE",
"256 5 OFFCURVE",
"261 5 OFFCURVE",
"272 5 CURVE",
"282 4 OFFCURVE",
"296 4 OFFCURVE",
"313 4 CURVE SMOOTH",
"330 4 OFFCURVE",
"350 4 OFFCURVE",
"372 4 CURVE SMOOTH",
"394 4 OFFCURVE",
"417 4 OFFCURVE",
"440 4 CURVE SMOOTH",
"624 4 LINE SMOOTH",
"626 4 OFFCURVE",
"630 6 OFFCURVE",
"636 11 CURVE",
"641 16 OFFCURVE",
"648 22 OFFCURVE",
"657 30 CURVE",
"673 46 OFFCURVE",
"693 66 OFFCURVE",
"713 89 CURVE SMOOTH",
"736 114 OFFCURVE",
"762 142 OFFCURVE",
"791 174 CURVE",
"791 1142 LINE",
"791 1215 LINE",
"791 1455 LINE",
"760 1486 OFFCURVE",
"733 1515 OFFCURVE",
"709 1540 CURVE",
"698 1550 OFFCURVE",
"688 1560 OFFCURVE",
"678 1571 CURVE",
"658 1591 OFFCURVE",
"642 1608 OFFCURVE",
"632 1617 CURVE",
"627 1622 OFFCURVE",
"624 1624 OFFCURVE",
"624 1624 CURVE SMOOTH",
"262 1624 LINE SMOOTH"
);
},
{
closed = 1;
nodes = (
"533 424 OFFCURVE",
"521 411 OFFCURVE",
"505 411 CURVE SMOOTH",
"359 411 LINE SMOOTH",
"343 411 OFFCURVE",
"331 424 OFFCURVE",
"331 440 CURVE SMOOTH",
"331 1202 LINE SMOOTH",
"331 1218 OFFCURVE",
"343 1229 OFFCURVE",
"359 1229 CURVE SMOOTH",
"505 1229 LINE SMOOTH",
"521 1229 OFFCURVE",
"533 1218 OFFCURVE",
"533 1202 CURVE SMOOTH",
"533 440 LINE SMOOTH"
);
}
);
width = 886;
}
);
note = zero;
unicode = 0030;
},
{
glyphname = one;
lastChange = "2017-07-29 05:17:02 +0000";
layers = (
{
layerId = "4658478A-2F1B-4277-A21C-C0C75B782ED1";
paths = (
{
closed = 1;
nodes = (
"565 1565 LINE SMOOTH",
"565 1587 OFFCURVE",
"562 1602 OFFCURVE",
"557 1610 CURVE SMOOTH",
"552 1618 OFFCURVE",
"545 1622 OFFCURVE",
"537 1622 CURVE SMOOTH",
"257 1622 LINE",
"218 1577 OFFCURVE",
"183 1537 OFFCURVE",
"152 1501 CURVE SMOOTH",
"139 1486 OFFCURVE",
"126 1471 OFFCURVE",
"113 1456 CURVE SMOOTH",
"87 1426 OFFCURVE",
"67 1400 OFFCURVE",
"55 1384 CURVE SMOOTH",
"49 1376 OFFCURVE",
"46 1371 OFFCURVE",
"46 1369 CURVE SMOOTH",
"46 1234 LINE SMOOTH",
"46 1217 OFFCURVE",
"60 1204 OFFCURVE",
"76 1204 CURVE SMOOTH",
"182 1204 LINE",
"182 384 LINE",
"76 384 LINE SMOOTH",
"60 384 OFFCURVE",
"46 373 OFFCURVE",
"46 357 CURVE SMOOTH",
"46 23 LINE SMOOTH",
"46 6 OFFCURVE",
"60 -5 OFFCURVE",
"76 -5 CURVE SMOOTH",
"211 -5 LINE",
"537 -5 LINE",
"663 -5 LINE SMOOTH",
"679 -5 OFFCURVE",
"692 6 OFFCURVE",
"692 23 CURVE SMOOTH",
"692 357 LINE SMOOTH",
"692 373 OFFCURVE",
"679 384 OFFCURVE",
"663 384 CURVE SMOOTH",
"565 384 LINE"
);
}
);
width = 748;
}
);
note = one;
unicode = 0031;
},
{
glyphname = two;
lastChange = "2017-07-29 05:17:02 +0000";
layers = (
{
layerId = "4658478A-2F1B-4277-A21C-C0C75B782ED1";
paths = (
{
closed = 1;
nodes = (
"870 1493 OFFCURVE",
"841 1520 OFFCURVE",
"815 1544 CURVE",
"804 1555 OFFCURVE",
"793 1565 OFFCURVE",
"782 1576 CURVE",
"760 1596 OFFCURVE",
"742 1612 OFFCURVE",
"730 1621 CURVE",
"724 1626 OFFCURVE",
"721 1628 OFFCURVE",
"720 1628 CURVE SMOOTH",
"279 1628 LINE SMOOTH",
"271 1628 OFFCURVE",
"266 1627 OFFCURVE",
"263 1625 CURVE",
"261 1623 OFFCURVE",
"260 1621 OFFCURVE",
"259 1620 CURVE SMOOTH",
"258 1619 OFFCURVE",
"256 1617 OFFCURVE",
"255 1616 CURVE",
"59 1459 LINE",
"56 1457 OFFCURVE",
"53 1454 OFFCURVE",
"51 1451 CURVE",
"48 1447 OFFCURVE",
"47 1440 OFFCURVE",
"47 1435 CURVE SMOOTH",
"47 1125 LINE SMOOTH",
"47 1109 OFFCURVE",
"58 1098 OFFCURVE",
"74 1098 CURVE SMOOTH",
"315 1098 LINE SMOOTH",
"331 1098 OFFCURVE",
"343 1109 OFFCURVE",
"343 1125 CURVE SMOOTH",
"343 1201 LINE SMOOTH",
"343 1214 OFFCURVE",
"353 1226 OFFCURVE",
"368 1226 CURVE SMOOTH",
"382 1226 LINE",
"508 1226 LINE SMOOTH",
"520 1226 OFFCURVE",
"529 1215 OFFCURVE",
"529 1203 CURVE SMOOTH",
"529 1189 LINE",
"529 1148 LINE",
"58 495 LINE",
"58 379 LINE",
"58 137 LINE",
"58 30 LINE SMOOTH",
"58 13 OFFCURVE",
"69 1 OFFCURVE",
"85 1 CURVE SMOOTH",
"668 1 LINE",
"875 1 LINE SMOOTH",
"891 1 OFFCURVE",
"903 13 OFFCURVE",
"903 30 CURVE SMOOTH",
"903 379 LINE",
"903 510 LINE SMOOTH",
"903 526 OFFCURVE",
"891 538 OFFCURVE",
"875 538 CURVE SMOOTH",
"668 538 LINE SMOOTH",
"652 538 OFFCURVE",
"639 526 OFFCURVE",
"639 510 CURVE SMOOTH",
"639 444 LINE",
"639 436 LINE SMOOTH",
"639 419 OFFCURVE",
"627 408 OFFCURVE",
"611 408 CURVE SMOOTH",
"604 408 LINE",
"463 411 LINE",
"891 1050 LINE",
"892 1052 OFFCURVE",
"894 1060 OFFCURVE",
"895 1073 CURVE",
"898 1099 OFFCURVE",
"902 1134 OFFCURVE",
"903 1179 CURVE SMOOTH",
"903 1462 LINE"
);
}
);
width = 966;
}
);
note = two;
unicode = 0032;
},
{
glyphname = three;
lastChange = "2017-07-29 05:17:02 +0000";
layers = (
{
layerId = "4658478A-2F1B-4277-A21C-C0C75B782ED1";
paths = (
{
closed = 1;
nodes = (
"884 1438 OFFCURVE",
"883 1440 OFFCURVE",
"881 1444 CURVE",
"718 1610 LINE SMOOTH",
"717 1611 OFFCURVE",
"716 1612 OFFCURVE",
"716 1613 CURVE",
"715 1613 LINE",
"708 1618 OFFCURVE",
"702 1621 OFFCURVE",
"697 1621 CURVE SMOOTH",
"252 1621 LINE SMOOTH",
"247 1621 OFFCURVE",
"241 1618 OFFCURVE",
"234 1613 CURVE",
"233 1613 LINE",
"232 1612 OFFCURVE",
"231 1611 OFFCURVE",
"231 1610 CURVE",
"67 1444 LINE",
"66 1442 OFFCURVE",
"66 1441 OFFCURVE",
"65 1441 CURVE",
"64 1440 OFFCURVE",
"63 1440 OFFCURVE",
"62 1439 CURVE",
"62 1437 LINE",
"59 1434 OFFCURVE",
"57 1429 OFFCURVE",
"57 1422 CURVE SMOOTH",
"57 1084 LINE SMOOTH",
"57 1068 OFFCURVE",
"68 1055 OFFCURVE",
"84 1055 CURVE SMOOTH",
"309 1055 LINE SMOOTH",
"325 1055 OFFCURVE",
"337 1068 OFFCURVE",
"337 1084 CURVE SMOOTH",
"337 1186 LINE SMOOTH",
"337 1202 OFFCURVE",
"349 1215 OFFCURVE",
"365 1215 CURVE SMOOTH",
"498 1215 LINE SMOOTH",
"514 1215 OFFCURVE",
"528 1202 OFFCURVE",
"528 1186 CURVE SMOOTH",
"528 1023 LINE SMOOTH",
"528 1007 OFFCURVE",
"514 996 OFFCURVE",
"498 996 CURVE SMOOTH",
"365 996 LINE SMOOTH",
"349 996 OFFCURVE",
"337 983 OFFCURVE",
"337 967 CURVE SMOOTH",
"337 681 LINE SMOOTH",
"337 669 OFFCURVE",
"347 657 OFFCURVE",
"358 654 CURVE",
"365 654 LINE",
"520 654 LINE",
"533 650 OFFCURVE",
"539 641 OFFCURVE",
"539 627 CURVE SMOOTH",
"539 404 LINE SMOOTH",
"539 388 OFFCURVE",
"527 375 OFFCURVE",
"511 375 CURVE SMOOTH",
"364 375 LINE SMOOTH",
"350 375 OFFCURVE",
"341 382 OFFCURVE",
"337 396 CURVE",
"337 514 LINE SMOOTH",
"337 517 OFFCURVE",
"336 520 OFFCURVE",
"335 523 CURVE",
"332 535 OFFCURVE",
"322 543 OFFCURVE",
"309 543 CURVE SMOOTH",
"84 543 LINE SMOOTH",
"68 543 OFFCURVE",
"57 530 OFFCURVE",
"57 514 CURVE SMOOTH",
"57 191 LINE SMOOTH",
"57 189 OFFCURVE",
"57 187 OFFCURVE",
"58 186 CURVE",
"58 184 OFFCURVE",
"58 182 OFFCURVE",
"58 181 CURVE",
"57 181 LINE",
"59 179 LINE",
"59 178 OFFCURVE",
"62 174 OFFCURVE",
"68 169 CURVE",
"73 164 OFFCURVE",
"80 157 OFFCURVE",
"89 148 CURVE",
"97 139 OFFCURVE",
"106 129 OFFCURVE",
"117 119 CURVE",
"128 108 OFFCURVE",
"138 97 OFFCURVE",
"149 86 CURVE SMOOTH",
"237 -2 LINE",
"241 -5 OFFCURVE",
"243 -6 OFFCURVE",
"244 -10 CURVE",
"245 -10 LINE",
"251 -13 OFFCURVE",
"256 -14 OFFCURVE",
"260 -14 CURVE SMOOTH",
"697 -14 LINE SMOOTH",
"700 -14 OFFCURVE",
"702 -14 OFFCURVE",
"703 -13 CURVE",
"705 -13 LINE",
"706 -12 OFFCURVE",
"712 -7 OFFCURVE",
"722 3 CURVE SMOOTH",
"731 12 OFFCURVE",
"743 24 OFFCURVE",
"756 38 CURVE SMOOTH",
"769 52 OFFCURVE",
"784 67 OFFCURVE",
"800 83 CURVE SMOOTH",
"831 115 OFFCURVE",
"858 145 OFFCURVE",
"876 165 CURVE SMOOTH",
"885 175 OFFCURVE",
"889 180 OFFCURVE",
"890 181 CURVE",
"891 185 OFFCURVE",
"892 188 OFFCURVE",
"892 191 CURVE SMOOTH",
"892 744 LINE",
"830 814 LINE",
"892 883 LINE",
"892 1422 LINE SMOOTH",
"892 1428 OFFCURVE",
"890 1433 OFFCURVE",
"886 1437 CURVE SMOOTH",
"884 1439 LINE"
);
}
);
width = 946;
}
);
note = three;
unicode = 0033;
},
{
glyphname = four;
lastChange = "2017-07-29 05:17:02 +0000";
layers = (
{
layerId = "4658478A-2F1B-4277-A21C-C0C75B782ED1";
paths = (
{
closed = 1;
nodes = (
"792 793 LINE",
"788 793 LINE SMOOTH",
"772 793 OFFCURVE",
"760 805 OFFCURVE",
"760 821 CURVE SMOOTH",
"760 826 LINE",
"759 1425 LINE",
"760 1427 OFFCURVE",
"760 1431 OFFCURVE",
"760 1436 CURVE SMOOTH",
"760 1591 LINE SMOOTH",
"760 1597 OFFCURVE",
"759 1601 OFFCURVE",
"758 1603 CURVE",
"753 1615 OFFCURVE",
"744 1621 OFFCURVE",
"732 1621 CURVE SMOOTH",
"660 1621 LINE",
"359 1621 LINE",
"21 821 LINE",
"21 532 LINE",
"21 498 LINE SMOOTH",
"21 481 OFFCURVE",
"32 472 OFFCURVE",
"45 469 CURVE",
"46 469 OFFCURVE",
"46 469 OFFCURVE",
"47 469 CURVE",
"47 468 OFFCURVE",
"48 468 OFFCURVE",
"50 468 CURVE SMOOTH",
"87 468 LINE",
"88 469 LINE",
"420 467 LINE",
"430 467 LINE SMOOTH",
"446 467 OFFCURVE",
"457 454 OFFCURVE",
"457 438 CURVE SMOOTH",
"457 414 LINE SMOOTH",
"457 398 OFFCURVE",
"444 386 OFFCURVE",
"428 386 CURVE SMOOTH",
"420 386 LINE",
"330 386 LINE",
"330 357 LINE",
"330 14 LINE SMOOTH",
"330 -3 OFFCURVE",
"343 -14 OFFCURVE",
"359 -14 CURVE SMOOTH",
"852 -14 LINE SMOOTH",
"868 -14 OFFCURVE",
"881 -3 OFFCURVE",
"881 14 CURVE SMOOTH",
"881 357 LINE SMOOTH",
"881 373 OFFCURVE",
"868 384 OFFCURVE",
"852 384 CURVE SMOOTH",
"792 384 LINE",
"789 384 LINE",
"760 384 LINE",
"760 465 LINE",
"881 463 LINE",
"881 493 LINE",
"881 765 LINE SMOOTH",
"881 781 OFFCURVE",
"868 793 OFFCURVE",
"852 793 CURVE SMOOTH",
"842 793 LINE"
);
},
{
closed = 1;
nodes = (
"457 1031 LINE",
"457 833 LINE",
"457 818 LINE SMOOTH",
"457 803 OFFCURVE",
"445 793 OFFCURVE",
"432 793 CURVE SMOOTH",
"338 793 LINE"
);
}
);
width = 948;
}
);
note = four;
unicode = 0034;
},
{
glyphname = five;
lastChange = "2017-07-29 05:17:02 +0000";
layers = (
{
layerId = "4658478A-2F1B-4277-A21C-C0C75B782ED1";
paths = (
{
closed = 1;
nodes = (
"408 1093 LINE",
"387 1093 LINE SMOOTH",
"371 1093 OFFCURVE",
"360 1105 OFFCURVE",
"360 1121 CURVE SMOOTH",
"360 1205 LINE SMOOTH",
"360 1221 OFFCURVE",
"371 1232 OFFCURVE",
"387 1232 CURVE SMOOTH",
"408 1232 LINE",
"665 1232 LINE",
"747 1232 LINE SMOOTH",
"763 1232 OFFCURVE",
"776 1244 OFFCURVE",
"776 1260 CURVE SMOOTH",
"776 1598 LINE SMOOTH",
"776 1610 OFFCURVE",
"765 1622 OFFCURVE",
"752 1625 CURVE",
"660 1625 LINE",
"44 1625 LINE",
"44 1595 LINE",
"44 1494 LINE",
"44 873 LINE",
"44 770 LINE SMOOTH",
"44 754 OFFCURVE",
"55 743 OFFCURVE",
"71 743 CURVE SMOOTH",
"133 743 LINE",
"485 743 LINE",
"487 743 LINE SMOOTH",
"503 743 OFFCURVE",
"516 730 OFFCURVE",
"516 714 CURVE SMOOTH",
"516 681 LINE",
"516 462 LINE",
"516 438 LINE SMOOTH",
"516 422 OFFCURVE",
"505 411 OFFCURVE",
"490 411 CURVE SMOOTH",
"483 411 LINE",
"346 411 LINE",
"346 527 LINE SMOOTH",
"346 543 OFFCURVE",
"334 556 OFFCURVE",
"318 556 CURVE SMOOTH",
"71 556 LINE SMOOTH",
"55 556 OFFCURVE",
"44 543 OFFCURVE",
"44 527 CURVE SMOOTH",
"44 357 LINE",
"44 160 LINE",
"196 8 LINE",
"621 8 LINE",
"784 156 LINE",
"784 894 LINE",
"628 1093 LINE"
);
}
);
width = 854;
}
);
note = five;
unicode = 0035;
},
{
glyphname = six;
lastChange = "2017-07-29 05:17:02 +0000";
layers = (
{
layerId = "4658478A-2F1B-4277-A21C-C0C75B782ED1";
paths = (
{
closed = 1;
nodes = (
"218 1625 LINE",
"44 1451 LINE",
"44 177 LINE",
"218 1 LINE",
"639 1 LINE",
"810 171 LINE",
"810 829 LINE",
"649 990 LINE",
"462 990 LINE",
"396 990 LINE SMOOTH",
"380 990 OFFCURVE",
"366 1002 OFFCURVE",
"366 1019 CURVE SMOOTH",
"366 1065 LINE",
"366 1145 LINE",
"366 1198 LINE SMOOTH",
"366 1214 OFFCURVE",
"380 1226 OFFCURVE",
"396 1226 CURVE SMOOTH",
"491 1226 LINE SMOOTH",
"507 1226 OFFCURVE",
"518 1214 OFFCURVE",
"518 1198 CURVE SMOOTH",
"518 1169 LINE",
"518 1158 LINE SMOOTH",
"518 1142 OFFCURVE",
"531 1130 OFFCURVE",
"547 1130 CURVE SMOOTH",
"802 1130 LINE SMOOTH",
"818 1130 OFFCURVE",
"831 1142 OFFCURVE",
"831 1158 CURVE SMOOTH",
"831 1169 LINE",
"831 1448 LINE",
"654 1625 LINE"
);
},
{
closed = 1;
nodes = (
"522 697 OFFCURVE",
"533 686 OFFCURVE",
"533 670 CURVE SMOOTH",
"533 439 LINE SMOOTH",
"533 423 OFFCURVE",
"522 410 OFFCURVE",
"506 410 CURVE SMOOTH",
"378 410 LINE SMOOTH",
"362 410 OFFCURVE",
"351 423 OFFCURVE",
"351 439 CURVE SMOOTH",
"351 670 LINE SMOOTH",
"351 686 OFFCURVE",
"362 697 OFFCURVE",
"378 697 CURVE SMOOTH",
"506 697 LINE SMOOTH"
);
}
);
width = 889;
}
);
note = six;
unicode = 0036;
},
{
glyphname = seven;
lastChange = "2017-07-29 05:17:02 +0000";
layers = (
{
layerId = "4658478A-2F1B-4277-A21C-C0C75B782ED1";
paths = (
{
closed = 1;
nodes = (
"44 1625 LINE",
"44 1597 LINE",
"44 1485 LINE",
"44 1202 LINE",
"44 1154 LINE SMOOTH",
"44 1138 OFFCURVE",
"58 1126 OFFCURVE",
"74 1126 CURVE SMOOTH",
"265 1126 LINE SMOOTH",
"281 1126 OFFCURVE",
"294 1138 OFFCURVE",
"294 1154 CURVE SMOOTH",
"294 1182 LINE",
"294 1175 LINE",
"296 1222 LINE",
"299 1233 OFFCURVE",
"309 1241 OFFCURVE",
"322 1241 CURVE SMOOTH",
"432 1241 LINE SMOOTH",
"448 1241 OFFCURVE",
"461 1229 OFFCURVE",
"461 1213 CURVE SMOOTH",
"461 1182 LINE",
"461 1128 LINE",
"77 7 LINE",
"447 5 LINE",
"798 1083 LINE",
"798 1485 LINE",
"798 1597 LINE SMOOTH",
"798 1613 OFFCURVE",
"785 1625 OFFCURVE",
"769 1625 CURVE SMOOTH",
"74 1625 LINE"
);
}
);
width = 872;
}
);
note = seven;
unicode = 0037;
},
{
glyphname = eight;
lastChange = "2017-07-29 05:17:02 +0000";
layers = (
{
layerId = "4658478A-2F1B-4277-A21C-C0C75B782ED1";
paths = (
{
closed = 1;
nodes = (
"728 1627 LINE",
"198 1627 LINE",
"55 1484 LINE",
"55 878 LINE",
"130 812 LINE",
"55 738 LINE",
"55 166 LINE",
"254 11 LINE",
"739 11 LINE",
"881 154 LINE",
"881 747 LINE",
"809 812 LINE",
"881 887 LINE",
"881 1472 LINE"
);
},
{
closed = 1;
nodes = (
"591 998 OFFCURVE",
"579 986 OFFCURVE",
"563 986 CURVE SMOOTH",
"381 986 LINE SMOOTH",
"364 986 OFFCURVE",
"352 998 OFFCURVE",
"352 1014 CURVE SMOOTH",
"352 1253 LINE SMOOTH",
"352 1269 OFFCURVE",
"364 1280 OFFCURVE",
"381 1280 CURVE SMOOTH",
"563 1280 LINE SMOOTH",
"579 1280 OFFCURVE",
"591 1269 OFFCURVE",
"591 1253 CURVE SMOOTH",
"591 1014 LINE SMOOTH"
);
},
{
closed = 1;
nodes = (
"591 403 OFFCURVE",
"579 391 OFFCURVE",
"563 391 CURVE SMOOTH",
"381 391 LINE SMOOTH",
"364 391 OFFCURVE",
"352 403 OFFCURVE",
"352 419 CURVE SMOOTH",
"352 614 LINE SMOOTH",
"352 630 OFFCURVE",
"364 641 OFFCURVE",
"381 641 CURVE SMOOTH",
"563 641 LINE SMOOTH",
"579 641 OFFCURVE",
"591 630 OFFCURVE",
"591 614 CURVE SMOOTH",
"591 419 LINE SMOOTH"
);
}
);
width = 959;
}
);
note = eight;
unicode = 0038;
},
{
glyphname = nine;
lastChange = "2017-07-29 05:17:02 +0000";
layers = (
{
layerId = "4658478A-2F1B-4277-A21C-C0C75B782ED1";
paths = (
{
closed = 1;
nodes = (
"656 2 LINE",
"830 176 LINE",
"830 1450 LINE",
"656 1626 LINE",
"234 1626 LINE",
"64 1455 LINE",
"64 797 LINE",
"225 637 LINE",
"412 637 LINE",
"478 637 LINE SMOOTH",
"494 637 OFFCURVE",
"507 624 OFFCURVE",
"507 608 CURVE SMOOTH",
"507 562 LINE",
"507 482 LINE",
"507 429 LINE SMOOTH",
"507 413 OFFCURVE",
"494 400 OFFCURVE",
"478 400 CURVE SMOOTH",
"383 400 LINE SMOOTH",
"367 400 OFFCURVE",
"355 413 OFFCURVE",
"355 429 CURVE SMOOTH",
"355 457 LINE",
"355 468 LINE SMOOTH",
"355 485 OFFCURVE",
"343 497 OFFCURVE",
"327 497 CURVE SMOOTH",
"72 497 LINE SMOOTH",
"55 497 OFFCURVE",
"43 485 OFFCURVE",
"43 468 CURVE SMOOTH",
"43 457 LINE",
"43 179 LINE",
"219 2 LINE"
);
},
{
closed = 1;
nodes = (
"351 929 OFFCURVE",
"340 941 OFFCURVE",
"340 957 CURVE SMOOTH",
"340 1188 LINE SMOOTH",
"340 1204 OFFCURVE",
"351 1216 OFFCURVE",
"367 1216 CURVE SMOOTH",
"495 1216 LINE SMOOTH",
"511 1216 OFFCURVE",
"523 1204 OFFCURVE",
"523 1188 CURVE SMOOTH",
"523 957 LINE SMOOTH",
"523 941 OFFCURVE",
"511 929 OFFCURVE",
"495 929 CURVE SMOOTH",
"367 929 LINE SMOOTH"
);
}
);
width = 899;
}
);
note = nine;
unicode = 0039;
},
{
glyphname = colon;
lastChange = "2017-07-29 05:17:02 +0000";
layers = (
{
layerId = "4658478A-2F1B-4277-A21C-C0C75B782ED1";
paths = (
{
closed = 1;
nodes = (
"161 1425 OFFCURVE",
"135 1391 OFFCURVE",
"112 1360 CURVE SMOOTH",
"89 1328 OFFCURVE",
"71 1299 OFFCURVE",
"59 1276 CURVE SMOOTH",
"35 1232 OFFCURVE",
"35 1207 OFFCURVE",
"71 1170 CURVE SMOOTH",
"80 1161 OFFCURVE",
"91 1148 OFFCURVE",
"106 1131 CURVE SMOOTH",
"120 1114 OFFCURVE",
"135 1098 OFFCURVE",
"150 1081 CURVE SMOOTH",
"181 1047 OFFCURVE",
"211 1015 OFFCURVE",
"227 1003 CURVE SMOOTH",
"243 991 OFFCURVE",
"260 994 OFFCURVE",
"276 1004 CURVE SMOOTH",
"292 1014 OFFCURVE",
"308 1032 OFFCURVE",
"321 1052 CURVE SMOOTH",
"334 1073 OFFCURVE",
"351 1099 OFFCURVE",
"368 1125 CURVE SMOOTH",
"377 1138 OFFCURVE",
"385 1150 OFFCURVE",
"393 1163 CURVE",
"401 1175 OFFCURVE",
"408 1186 OFFCURVE",
"415 1196 CURVE SMOOTH",
"442 1237 OFFCURVE",
"441 1264 OFFCURVE",
"400 1312 CURVE SMOOTH",
"380 1335 OFFCURVE",
"354 1363 OFFCURVE",
"330 1390 CURVE SMOOTH",
"305 1417 OFFCURVE",
"281 1441 OFFCURVE",
"265 1456 CURVE SMOOTH",
"233 1485 OFFCURVE",
"206 1483 OFFCURVE",
"185 1456 CURVE SMOOTH"
);
},
{
closed = 1;
nodes = (
"161 665 OFFCURVE",
"135 631 OFFCURVE",
"112 600 CURVE SMOOTH",
"89 568 OFFCURVE",
"71 538 OFFCURVE",
"59 517 CURVE",
"47 494 OFFCURVE",
"41 477 OFFCURVE",
"43 461 CURVE SMOOTH",
"45 445 OFFCURVE",
"52 430 OFFCURVE",
"71 410 CURVE SMOOTH",
"80 401 OFFCURVE",
"91 388 OFFCURVE",
"106 371 CURVE SMOOTH",
"120 354 OFFCURVE",
"135 338 OFFCURVE",
"150 321 CURVE SMOOTH",
"181 287 OFFCURVE",
"211 254 OFFCURVE",
"227 242 CURVE SMOOTH",
"243 230 OFFCURVE",
"260 232 OFFCURVE",
"276 243 CURVE SMOOTH",
"292 254 OFFCURVE",
"308 272 OFFCURVE",
"321 293 CURVE SMOOTH",
"334 314 OFFCURVE",
"350 338 OFFCURVE",
"368 365 CURVE SMOOTH",
"386 392 OFFCURVE",
"402 416 OFFCURVE",
"415 437 CURVE SMOOTH",
"428 457 OFFCURVE",
"436 475 OFFCURVE",
"434 493 CURVE SMOOTH",
"432 511 OFFCURVE",
"421 528 OFFCURVE",
"400 552 CURVE SMOOTH",
"380 576 OFFCURVE",
"354 604 OFFCURVE",
"330 631 CURVE SMOOTH",
"305 658 OFFCURVE",
"281 681 OFFCURVE",
"265 696 CURVE SMOOTH",
"233 725 OFFCURVE",
"206 723 OFFCURVE",
"185 696 CURVE SMOOTH"
);
}
);
width = 462;
}
);
note = colon;
unicode = 003A;
},
{
glyphname = semicolon;
lastChange = "2017-07-29 05:17:02 +0000";
layers = (
{
layerId = "4658478A-2F1B-4277-A21C-C0C75B782ED1";
paths = (
{
closed = 1;
nodes = (
"174 1428 OFFCURVE",
"149 1394 OFFCURVE",
"126 1363 CURVE SMOOTH",
"103 1331 OFFCURVE",
"85 1302 OFFCURVE",
"73 1279 CURVE SMOOTH",
"49 1235 OFFCURVE",
"49 1210 OFFCURVE",
"84 1173 CURVE SMOOTH",
"93 1164 OFFCURVE",
"104 1151 OFFCURVE",
"119 1134 CURVE SMOOTH",
"133 1117 OFFCURVE",
"148 1101 OFFCURVE",
"163 1084 CURVE SMOOTH",
"194 1050 OFFCURVE",
"224 1018 OFFCURVE",
"240 1006 CURVE SMOOTH",
"256 994 OFFCURVE",
"273 997 OFFCURVE",
"290 1007 CURVE SMOOTH",
"306 1017 OFFCURVE",
"322 1035 OFFCURVE",
"335 1055 CURVE SMOOTH",
"342 1066 OFFCURVE",
"349 1077 OFFCURVE",
"357 1090 CURVE",
"365 1102 OFFCURVE",
"373 1115 OFFCURVE",
"382 1128 CURVE",
"390 1141 OFFCURVE",
"398 1153 OFFCURVE",
"407 1166 CURVE SMOOTH",
"415 1178 OFFCURVE",
"422 1189 OFFCURVE",
"429 1199 CURVE",
"442 1220 OFFCURVE",
"449 1237 OFFCURVE",
"447 1255 CURVE SMOOTH",
"445 1273 OFFCURVE",
"434 1291 OFFCURVE",
"414 1315 CURVE SMOOTH",
"394 1338 OFFCURVE",
"368 1366 OFFCURVE",
"343 1393 CURVE SMOOTH",
"318 1420 OFFCURVE",
"294 1444 OFFCURVE",
"278 1459 CURVE SMOOTH",
"247 1487 OFFCURVE",
"221 1487 OFFCURVE",
"199 1459 CURVE SMOOTH"
);
},
{
closed = 1;
nodes = (
"451 491 OFFCURVE",
"451 493 OFFCURVE",
"450 494 CURVE SMOOTH",
"449 495 OFFCURVE",
"449 496 OFFCURVE",
"448 497 CURVE SMOOTH",
"447 498 OFFCURVE",
"446 499 OFFCURVE",
"446 500 CURVE",
"446 500 OFFCURVE",
"446 501 OFFCURVE",
"445 502 CURVE SMOOTH",
"442 505 OFFCURVE",
"440 509 OFFCURVE",
"438 512 CURVE",
"435 515 OFFCURVE",
"432 519 OFFCURVE",
"429 523 CURVE",
"409 546 OFFCURVE",
"383 574 OFFCURVE",
"358 601 CURVE SMOOTH",
"333 628 OFFCURVE",
"309 652 OFFCURVE",
"293 667 CURVE SMOOTH",
"262 695 OFFCURVE",
"236 695 OFFCURVE",
"214 667 CURVE SMOOTH",
"189 635 OFFCURVE",
"163 602 OFFCURVE",
"140 570 CURVE SMOOTH",
"117 538 OFFCURVE",
"99 508 OFFCURVE",
"87 487 CURVE",
"64 443 OFFCURVE",
"64 418 OFFCURVE",
"99 381 CURVE SMOOTH",
"109 370 OFFCURVE",
"123 354 OFFCURVE",
"141 335 CURVE",
"158 315 OFFCURVE",
"176 295 OFFCURVE",
"193 276 CURVE",
"193 275 OFFCURVE",
"193 275 OFFCURVE",
"194 275 CURVE",
"199 269 OFFCURVE",
"204 263 OFFCURVE",
"209 258 CURVE SMOOTH",
"214 253 OFFCURVE",
"218 247 OFFCURVE",
"223 242 CURVE",
"235 229 OFFCURVE",
"244 215 OFFCURVE",
"250 201 CURVE SMOOTH",
"262 172 OFFCURVE",
"233 124 OFFCURVE",
"213 93 CURVE SMOOTH",
"192 61 OFFCURVE",
"186 28 OFFCURVE",
"196 17 CURVE SMOOTH",
"206 6 OFFCURVE",
"236 -10 OFFCURVE",
"261 0 CURVE SMOOTH",
"274 5 OFFCURVE",
"289 20 OFFCURVE",
"308 47 CURVE SMOOTH",
"320 64 OFFCURVE",
"348 107 OFFCURVE",
"377 160 CURVE SMOOTH",
"405 213 OFFCURVE",
"435 278 OFFCURVE",
"452 338 CURVE SMOOTH",
"469 398 OFFCURVE",
"475 454 OFFCURVE",
"452 490 CURVE"
);
}
);
width = 523;
}
);
note = semicolon;
unicode = 003B;
},
{
glyphname = equal;
lastChange = "2017-07-29 05:17:02 +0000";
layers = (
{
layerId = "4658478A-2F1B-4277-A21C-C0C75B782ED1";
paths = (
{
closed = 1;
nodes = (
"1106 1098 LINE",
"70 1098 LINE",
"70 795 LINE",
"1106 795 LINE"
);
},
{
closed = 1;
nodes = (
"1106 600 LINE",
"70 600 LINE",
"70 303 LINE",
"1106 303 LINE"
);
}
);
width = 1176;
}
);
note = equal;
unicode = 003D;
},
{
glyphname = question;
lastChange = "2017-07-29 05:17:02 +0000";
layers = (
{
layerId = "4658478A-2F1B-4277-A21C-C0C75B782ED1";
paths = (
{
closed = 1;
nodes = (
"-5 1328 OFFCURVE",
"20 1286 OFFCURVE",
"49 1243 CURVE SMOOTH",
"78 1199 OFFCURVE",
"112 1154 OFFCURVE",
"144 1120 CURVE SMOOTH",
"175 1086 OFFCURVE",
"205 1063 OFFCURVE",
"225 1066 CURVE SMOOTH",
"256 1070 OFFCURVE",
"263 1092 OFFCURVE",
"263 1120 CURVE SMOOTH",
"263 1134 OFFCURVE",
"262 1149 OFFCURVE",
"261 1165 CURVE SMOOTH",
"258 1197 OFFCURVE",
"260 1215 OFFCURVE",
"287 1251 CURVE SMOOTH",
"314 1287 OFFCURVE",
"352 1331 OFFCURVE",
"396 1379 CURVE SMOOTH",
"440 1427 OFFCURVE",
"481 1468 OFFCURVE",
"513 1499 CURVE SMOOTH",
"545 1530 OFFCURVE",
"567 1553 OFFCURVE",
"609 1553 CURVE SMOOTH",
"630 1553 OFFCURVE",
"644 1545 OFFCURVE",
"653 1530 CURVE",
"660 1503 OFFCURVE",
"662 1482 OFFCURVE",
"661 1460 CURVE SMOOTH",
"660 1438 OFFCURVE",
"657 1433 OFFCURVE",
"626 1393 CURVE",
"611 1372 OFFCURVE",
"592 1348 OFFCURVE",
"570 1320 CURVE SMOOTH",
"526 1263 OFFCURVE",
"472 1196 OFFCURVE",
"425 1138 CURVE SMOOTH",
"377 1080 OFFCURVE",
"337 1032 OFFCURVE",
"321 1016 CURVE SMOOTH",
"297 992 OFFCURVE",
"278 959 OFFCURVE",
"267 922 CURVE SMOOTH",
"255 885 OFFCURVE",
"251 846 OFFCURVE",
"258 810 CURVE SMOOTH",
"262 792 OFFCURVE",
"266 772 OFFCURVE",
"270 750 CURVE SMOOTH",
"277 706 OFFCURVE",
"285 664 OFFCURVE",
"294 633 CURVE SMOOTH",
"303 601 OFFCURVE",
"312 593 OFFCURVE",
"329 594 CURVE SMOOTH",
"345 595 OFFCURVE",
"362 608 OFFCURVE",
"374 626 CURVE SMOOTH",
"386 644 OFFCURVE",
"387 669 OFFCURVE",
"388 692 CURVE",
"389 703 OFFCURVE",
"391 715 OFFCURVE",
"396 728 CURVE SMOOTH",
"405 753 OFFCURVE",
"426 782 OFFCURVE",
"471 818 CURVE SMOOTH",
"516 855 OFFCURVE",
"575 904 OFFCURVE",
"634 956 CURVE SMOOTH",
"693 1007 OFFCURVE",
"751 1061 OFFCURVE",
"798 1105 CURVE SMOOTH",
"843 1149 OFFCURVE",
"871 1221 OFFCURVE",
"877 1297 CURVE SMOOTH",
"883 1372 OFFCURVE",
"867 1449 OFFCURVE",
"827 1502 CURVE SMOOTH",
"747 1607 OFFCURVE",
"665 1714 OFFCURVE",
"550 1805 CURVE SMOOTH",
"493 1850 OFFCURVE",
"438 1855 OFFCURVE",
"391 1841 CURVE SMOOTH",
"343 1827 OFFCURVE",
"302 1795 OFFCURVE",
"273 1770 CURVE SMOOTH",
"253 1753 OFFCURVE",
"220 1721 OFFCURVE",
"183 1685 CURVE SMOOTH",
"146 1648 OFFCURVE",
"104 1606 OFFCURVE",
"69 1570 CURVE SMOOTH",
"34 1533 OFFCURVE",
"6 1501 OFFCURVE",
"-6 1484 CURVE SMOOTH",
"-42 1433 OFFCURVE",
"-42 1398 OFFCURVE",
"-18 1353 CURVE SMOOTH"
);
},
{
closed = 1;
nodes = (
"279 446 OFFCURVE",
"253 412 OFFCURVE",
"230 381 CURVE SMOOTH",
"207 349 OFFCURVE",
"188 319 OFFCURVE",
"176 298 CURVE",
"164 275 OFFCURVE",
"159 258 OFFCURVE",
"160 242 CURVE SMOOTH",
"161 226 OFFCURVE",
"171 211 OFFCURVE",
"188 191 CURVE",
"197 182 OFFCURVE",
"208 169 OFFCURVE",
"223 152 CURVE SMOOTH",
"238 135 OFFCURVE",
"253 119 OFFCURVE",
"268 102 CURVE SMOOTH",
"298 68 OFFCURVE",
"328 35 OFFCURVE",
"344 23 CURVE SMOOTH",
"377 0 OFFCURVE",
"411 31 OFFCURVE",
"438 74 CURVE",
"445 84 OFFCURVE",
"452 95 OFFCURVE",
"461 108 CURVE",
"477 133 OFFCURVE",
"494 159 OFFCURVE",
"511 184 CURVE",
"519 197 OFFCURVE",
"526 208 OFFCURVE",
"533 218 CURVE SMOOTH",
"560 259 OFFCURVE",
"559 286 OFFCURVE",
"518 333 CURVE SMOOTH",
"498 357 OFFCURVE",
"472 385 OFFCURVE",
"448 412 CURVE SMOOTH",
"423 439 OFFCURVE",
"399 462 OFFCURVE",
"383 477 CURVE SMOOTH",
"351 505 OFFCURVE",
"324 505 OFFCURVE",
"303 477 CURVE SMOOTH"
);
}
);
width = 914;
}
);
note = question;
unicode = 003F;
},
{
glyphname = at;
lastChange = "2017-07-29 05:17:02 +0000";
layers = (
{
layerId = "4658478A-2F1B-4277-A21C-C0C75B782ED1";
paths = (
{
closed = 1;
nodes = (
"1049 1094 OFFCURVE",
"932 1129 OFFCURVE",
"817 1129 CURVE SMOOTH",
"618 1129 OFFCURVE",
"457 961 OFFCURVE",
"457 697 CURVE SMOOTH",
"457 453 OFFCURVE",
"560 279 OFFCURVE",
"771 279 CURVE SMOOTH",
"844 279 OFFCURVE",
"912 323 OFFCURVE",
"973 410 CURVE",
"996 305 OFFCURVE",
"1046 239 OFFCURVE",
"1123 214 CURVE SMOOTH",
"1277 163 OFFCURVE",
"1424 216 OFFCURVE",
"1507 320 CURVE",
"1578 421 OFFCURVE",
"1614 556 OFFCURVE",
"1614 727 CURVE SMOOTH",
"1614 1200 OFFCURVE",
"1331 1504 OFFCURVE",
"859 1504 CURVE SMOOTH",
"411 1504 OFFCURVE",
"70 1156 OFFCURVE",
"70 712 CURVE SMOOTH",
"70 248 OFFCURVE",
"404 -81 OFFCURVE",
"809 -81 CURVE SMOOTH",
"928 -81 OFFCURVE",
"1026 -72 OFFCURVE",
"1105 -53 CURVE",
"1105 119 LINE",
"1065 108 OFFCURVE",
"982 102 OFFCURVE",
"856 102 CURVE",
"637 119 OFFCURVE",
"479 205 OFFCURVE",
"380 361 CURVE",
"311 455 OFFCURVE",
"273 569 OFFCURVE",
"266 703 CURVE",
"275 1112 OFFCURVE",
"528 1300 OFFCURVE",
"860 1308 CURVE",
"1040 1305 OFFCURVE",
"1178 1257 OFFCURVE",
"1273 1166 CURVE",
"1383 1037 OFFCURVE",
"1431 889 OFFCURVE",
"1417 722 CURVE",
"1418 576 OFFCURVE",
"1401 481 OFFCURVE",
"1366 437 CURVE SMOOTH",
"1295 348 OFFCURVE",
"1162 373 OFFCURVE",
"1170 441 CURVE",
"1170 1023 LINE"
);
},
{
closed = 1;
nodes = (
"909 511 OFFCURVE",
"857 485 OFFCURVE",
"814 485 CURVE SMOOTH",
"715 485 OFFCURVE",
"665 559 OFFCURVE",
"665 708 CURVE SMOOTH",
"665 862 OFFCURVE",
"720 939 OFFCURVE",
"830 939 CURVE SMOOTH",
"865 939 OFFCURVE",
"912 928 OFFCURVE",
"971 907 CURVE",
"971 564 LINE"
);
}
);
width = 1684;
}
);
note = at;
unicode = 0040;
},
{
glyphname = bracketleft;
lastChange = "2017-07-29 05:17:02 +0000";
layers = (
{
layerId = "4658478A-2F1B-4277-A21C-C0C75B782ED1";
paths = (
{
closed = 1;
nodes = (
"467 57 LINE",
"358 57 LINE",
"358 1354 LINE",
"467 1354 LINE",
"467 1654 LINE",
"70 1654 LINE",
"70 -219 LINE",
"467 -219 LINE"
);
}
);
width = 537;
}
);
note = bracketleft;
unicode = 005B;
},
{
glyphname = backslash;
lastChange = "2017-07-29 05:17:02 +0000";
layers = (
{
layerId = "4658478A-2F1B-4277-A21C-C0C75B782ED1";
paths = (
{
closed = 1;
nodes = (
"886 -137 LINE",
"390 1563 LINE",
"70 1563 LINE",
"553 -137 LINE"
);
}
);
width = 956;
}
);
note = backslash;
unicode = 005C;
},
{
glyphname = bracketright;
lastChange = "2017-07-29 05:17:02 +0000";
layers = (
{
layerId = "4658478A-2F1B-4277-A21C-C0C75B782ED1";
paths = (
{
closed = 1;
nodes = (
"463 1654 LINE",
"70 1654 LINE",
"70 1351 LINE",
"177 1351 LINE",
"177 87 LINE",
"70 87 LINE",
"70 -219 LINE",
"463 -219 LINE"
);
}
);
width = 533;
}
);
note = bracketright;
unicode = 005D;
},
{
glyphname = asciicircum;
lastChange = "2017-07-29 05:17:02 +0000";
layers = (
{
layerId = "4658478A-2F1B-4277-A21C-C0C75B782ED1";
paths = (
{
closed = 1;
nodes = (
"603 690 LINE",
"923 690 LINE",
"568 1491 LINE",
"423 1491 LINE",
"70 690 LINE",
"378 690 LINE",
"492 1011 LINE"
);
}
);
width = 993;
}
);
note = asciicircum;
unicode = 005E;
},
{
glyphname = underscore;
lastChange = "2017-07-29 05:17:02 +0000";
layers = (
{
layerId = "4658478A-2F1B-4277-A21C-C0C75B782ED1";
paths = (
{
closed = 1;
nodes = (
"1333 153 LINE",
"0 153 LINE",
"0 -153 LINE",
"1333 -153 LINE"
);
}
);
width = 1333;
}
);
note = underscore;
unicode = 005F;
},
{
glyphname = grave;
lastChange = "2017-07-29 05:17:02 +0000";
layers = (
{
layerId = "4658478A-2F1B-4277-A21C-C0C75B782ED1";
paths = (
{
closed = 1;
nodes = (
"503 1201 LINE",
"478 1391 LINE",
"385 1580 LINE",
"70 1580 LINE",
"168 1391 LINE",
"309 1201 LINE"
);
}
);
width = 573;
}
);
note = grave;
unicode = 0060;
},
{
glyphname = braceleft;
lastChange = "2017-07-29 05:17:02 +0000";
layers = (
{
layerId = "4658478A-2F1B-4277-A21C-C0C75B782ED1";
paths = (
{
closed = 1;
nodes = (
"380 1629 OFFCURVE",
"319 1558 OFFCURVE",
"302 1453 CURVE SMOOTH",
"293 1400 OFFCURVE",
"289 1314 OFFCURVE",
"288 1194 CURVE SMOOTH",
"287 1074 OFFCURVE",
"281 991 OFFCURVE",
"270 946 CURVE SMOOTH",
"247 854 OFFCURVE",
"178 802 OFFCURVE",
"70 782 CURVE",
"70 641 LINE",
"178 626 OFFCURVE",
"247 573 OFFCURVE",
"270 482 CURVE SMOOTH",
"281 436 OFFCURVE",
"287 357 OFFCURVE",
"288 246 CURVE SMOOTH",
"289 135 OFFCURVE",
"291 61 OFFCURVE",
"294 26 CURVE SMOOTH",
"307 -87 OFFCURVE",
"342 -150 OFFCURVE",
"393 -190 CURVE SMOOTH",
"444 -231 OFFCURVE",
"500 -248 OFFCURVE",
"620 -248 CURVE SMOOTH",
"679 -248 LINE",
"679 -119 LINE",
"646 -91 LINE",
"501 -91 OFFCURVE",
"484 -60 OFFCURVE",
"488 115 CURVE SMOOTH",
"488 282 OFFCURVE",
"485 387 OFFCURVE",
"478 432 CURVE SMOOTH",
"453 580 OFFCURVE",
"357 664 OFFCURVE",
"281 713 CURVE",
"396 786 OFFCURVE",
"485 877 OFFCURVE",
"485 1164 CURVE SMOOTH",
"485 1294 OFFCURVE",
"487 1372 OFFCURVE",
"491 1397 CURVE",
"500 1486 OFFCURVE",
"539 1517 OFFCURVE",
"646 1517 CURVE",
"679 1551 LINE",
"679 1674 LINE",
"620 1674 LINE SMOOTH",
"551 1674 OFFCURVE",
"502 1669 OFFCURVE",
"471 1658 CURVE SMOOTH"
);
}
);
width = 749;
}
);
note = braceleft;
unicode = 007B;
},
{
glyphname = bar;
lastChange = "2017-07-29 05:17:02 +0000";
layers = (
{
layerId = "4658478A-2F1B-4277-A21C-C0C75B782ED1";
paths = (
{
closed = 1;
nodes = (
"360 1688 LINE",
"70 1688 LINE",
"70 -234 LINE",
"360 -234 LINE"
);
}
);
width = 430;
}
);
note = bar;
unicode = 007C;
},
{
glyphname = braceright;
lastChange = "2017-07-29 05:17:02 +0000";
layers = (
{
layerId = "4658478A-2F1B-4277-A21C-C0C75B782ED1";
paths = (
{
closed = 1;
nodes = (
"546 802 OFFCURVE",
"480 854 OFFCURVE",
"459 946 CURVE SMOOTH",
"448 991 OFFCURVE",
"443 1074 OFFCURVE",
"442 1194 CURVE SMOOTH",
"441 1314 OFFCURVE",
"437 1400 OFFCURVE",
"429 1453 CURVE SMOOTH",
"420 1506 OFFCURVE",
"402 1549 OFFCURVE",
"374 1584 CURVE SMOOTH",
"318 1653 OFFCURVE",
"257 1674 OFFCURVE",
"126 1674 CURVE SMOOTH",
"70 1674 LINE",
"70 1551 LINE",
"101 1517 LINE",
"202 1517 OFFCURVE",
"240 1486 OFFCURVE",
"249 1397 CURVE SMOOTH",
"252 1372 OFFCURVE",
"254 1294 OFFCURVE",
"254 1164 CURVE SMOOTH",
"254 877 OFFCURVE",
"340 786 OFFCURVE",
"448 713 CURVE",
"376 664 OFFCURVE",
"285 580 OFFCURVE",
"261 432 CURVE SMOOTH",
"255 387 OFFCURVE",
"252 282 OFFCURVE",
"252 115 CURVE SMOOTH",
"255 -60 OFFCURVE",
"240 -91 OFFCURVE",
"101 -91 CURVE",
"70 -119 LINE",
"70 -248 LINE",
"126 -248 LINE SMOOTH",
"183 -248 OFFCURVE",
"225 -244 OFFCURVE",
"250 -237 CURVE SMOOTH",
"325 -216 OFFCURVE",
"370 -177 OFFCURVE",
"403 -109 CURVE SMOOTH",
"435 -42 OFFCURVE",
"441 23 OFFCURVE",
"442 246 CURVE SMOOTH",
"443 357 OFFCURVE",
"448 436 OFFCURVE",
"459 482 CURVE SMOOTH",
"480 573 OFFCURVE",
"546 626 OFFCURVE",
"649 641 CURVE",
"649 782 LINE"
);
}
);
width = 719;
}
);
note = braceright;
unicode = 007D;
},
{
glyphname = alef;
lastChange = "2017-07-29 05:17:02 +0000";
layers = (
{
layerId = "4658478A-2F1B-4277-A21C-C0C75B782ED1";
paths = (
{
closed = 1;
nodes = (
"732 965 OFFCURVE",
"729 1016 OFFCURVE",
"734 1060 CURVE SMOOTH",
"738 1104 OFFCURVE",
"751 1139 OFFCURVE",
"777 1182 CURVE SMOOTH",
"803 1225 OFFCURVE",
"842 1272 OFFCURVE",
"901 1339 CURVE",
"900 1339 LINE",
"911 1347 OFFCURVE",
"917 1357 OFFCURVE",
"917 1369 CURVE SMOOTH",
"917 1484 LINE",
"917 1644 LINE SMOOTH",
"917 1684 OFFCURVE",
"885 1716 OFFCURVE",
"845 1716 CURVE SMOOTH",
"694 1716 LINE SMOOTH",
"681 1716 OFFCURVE",
"670 1719 OFFCURVE",
"659 1726 CURVE SMOOTH",
"638 1739 OFFCURVE",
"620 1759 OFFCURVE",
"604 1778 CURVE SMOOTH",
"596 1787 OFFCURVE",
"589 1795 OFFCURVE",
"582 1801 CURVE",
"574 1805 LINE",
"569 1808 OFFCURVE",
"565 1810 OFFCURVE",
"558 1810 CURVE SMOOTH",
"551 1810 OFFCURVE",
"545 1807 OFFCURVE",
"538 1804 CURVE",
"524 1797 OFFCURVE",
"517 1786 OFFCURVE",
"517 1769 CURVE SMOOTH",
"517 1369 LINE SMOOTH",
"517 1349 OFFCURVE",
"533 1333 OFFCURVE",
"553 1333 CURVE SMOOTH",
"627 1333 LINE",
"638 1328 OFFCURVE",
"645 1319 OFFCURVE",
"649 1306 CURVE",
"656 1278 OFFCURVE",
"643 1229 OFFCURVE",
"630 1189 CURVE SMOOTH",
"623 1168 OFFCURVE",
"618 1151 OFFCURVE",
"613 1136 CURVE",
"610 1129 OFFCURVE",
"608 1121 OFFCURVE",
"605 1114 CURVE SMOOTH",
"599 1099 OFFCURVE",
"589 1095 OFFCURVE",
"573 1110 CURVE SMOOTH",
"565 1117 OFFCURVE",
"555 1132 OFFCURVE",
"543 1154 CURVE SMOOTH",
"537 1165 OFFCURVE",
"528 1181 OFFCURVE",
"515 1203 CURVE SMOOTH",
"490 1246 OFFCURVE",
"455 1303 OFFCURVE",
"415 1370 CURVE SMOOTH",
"395 1403 OFFCURVE",
"375 1437 OFFCURVE",
"355 1471 CURVE SMOOTH",
"335 1504 OFFCURVE",
"315 1537 OFFCURVE",
"296 1569 CURVE SMOOTH",
"257 1633 OFFCURVE",
"226 1687 OFFCURVE",
"204 1724 CURVE SMOOTH",
"193 1743 OFFCURVE",
"185 1755 OFFCURVE",
"182 1762 CURVE",
"175 1775 OFFCURVE",
"167 1784 OFFCURVE",
"158 1789 CURVE",
"140 1798 OFFCURVE",
"120 1791 OFFCURVE",
"107 1768 CURVE SMOOTH",
"94 1744 OFFCURVE",
"93 1714 OFFCURVE",
"91 1682 CURVE SMOOTH",
"89 1649 OFFCURVE",
"87 1608 OFFCURVE",
"87 1564 CURVE",
"86 1542 OFFCURVE",
"86 1520 OFFCURVE",
"85 1498 CURVE SMOOTH",
"84 1447 OFFCURVE",
"83 1392 OFFCURVE",
"82 1333 CURVE",
"101 1300 OFFCURVE",
"117 1266 OFFCURVE",
"132 1231 CURVE SMOOTH",
"157 1171 OFFCURVE",
"183 1094 OFFCURVE",
"183 1025 CURVE SMOOTH",
"183 990 OFFCURVE",
"180 959 OFFCURVE",
"174 930 CURVE SMOOTH",
"162 872 OFFCURVE",
"144 821 OFFCURVE",
"121 778 CURVE SMOOTH",
"110 756 OFFCURVE",
"99 735 OFFCURVE",
"89 716 CURVE SMOOTH",
"69 677 OFFCURVE",
"50 629 OFFCURVE",
"43 575 CURVE SMOOTH",
"35 521 OFFCURVE",
"41 461 OFFCURVE",
"69 398 CURVE SMOOTH",
"97 335 OFFCURVE",
"99 255 OFFCURVE",
"92 186 CURVE SMOOTH",
"84 117 OFFCURVE",
"67 58 OFFCURVE",
"58 35 CURVE",
"53 24 OFFCURVE",
"51 15 OFFCURVE",
"51 10 CURVE",
"50 -2 OFFCURVE",
"56 -5 OFFCURVE",
"68 -5 CURVE SMOOTH",
"74 -5 OFFCURVE",
"81 -5 OFFCURVE",
"89 -5 CURVE SMOOTH",
"411 -5 LINE",
"412 -2 OFFCURVE",
"414 1 OFFCURVE",
"416 4 CURVE",
"419 11 OFFCURVE",
"422 19 OFFCURVE",
"422 32 CURVE SMOOTH",
"422 38 OFFCURVE",
"422 54 OFFCURVE",
"421 81 CURVE SMOOTH",
"420 107 OFFCURVE",
"420 138 OFFCURVE",
"421 173 CURVE SMOOTH",
"423 244 OFFCURVE",
"429 327 OFFCURVE",
"450 391 CURVE",
"449 391 OFFCURVE",
"446 397 OFFCURVE",
"439 409 CURVE",
"432 420 OFFCURVE",
"424 435 OFFCURVE",
"414 454 CURVE SMOOTH",
"404 472 OFFCURVE",
"393 492 OFFCURVE",
"381 514 CURVE SMOOTH",
"357 558 OFFCURVE",
"334 602 OFFCURVE",
"318 636 CURVE SMOOTH",
"302 670 OFFCURVE",
"299 680 OFFCURVE",
"295 716 CURVE SMOOTH",
"290 751 OFFCURVE",
"288 789 OFFCURVE",
"289 821 CURVE SMOOTH",
"290 853 OFFCURVE",
"297 869 OFFCURVE",
"301 881 CURVE",
"303 886 OFFCURVE",
"306 889 OFFCURVE",
"309 889 CURVE SMOOTH",
"312 889 OFFCURVE",
"316 886 OFFCURVE",
"321 879 CURVE SMOOTH",
"326 872 OFFCURVE",
"332 860 OFFCURVE",
"341 844 CURVE",
"345 836 OFFCURVE",
"355 818 OFFCURVE",
"372 789 CURVE SMOOTH",
"388 760 OFFCURVE",
"408 726 OFFCURVE",
"431 685 CURVE SMOOTH",
"478 603 OFFCURVE",
"536 499 OFFCURVE",
"595 398 CURVE SMOOTH",
"663 279 OFFCURVE",
"739 146 OFFCURVE",
"823 1 CURVE",
"894 1 LINE SMOOTH",
"905 1 OFFCURVE",
"911 3 OFFCURVE",
"912 8 CURVE",
"912 13 OFFCURVE",
"912 18 OFFCURVE",
"913 23 CURVE",
"913 24 OFFCURVE",
"913 33 OFFCURVE",
"913 49 CURVE SMOOTH",
"913 64 OFFCURVE",
"913 84 OFFCURVE",
"914 108 CURVE",
"914 155 OFFCURVE",
"918 215 OFFCURVE",
"924 274 CURVE SMOOTH",
"930 333 OFFCURVE",
"941 389 OFFCURVE",
"958 425 CURVE",
"920 474 OFFCURVE",
"886 525 OFFCURVE",
"855 578 CURVE SMOOTH",
"828 623 OFFCURVE",
"801 675 OFFCURVE",
"781 729 CURVE SMOOTH",
"760 783 OFFCURVE",
"743 838 OFFCURVE",
"739 893 CURVE SMOOTH"
);
}
);
width = 970;
}
);
note = alef;
unicode = 05D0;
},
{
glyphname = bet;
lastChange = "2017-07-29 05:17:02 +0000";
layers = (
{
layerId = "4658478A-2F1B-4277-A21C-C0C75B782ED1";
paths = (
{
closed = 1;
nodes = (
"931 372 OFFCURVE",
"935 381 OFFCURVE",
"935 386 CURVE SMOOTH",
"935 391 OFFCURVE",
"932 396 OFFCURVE",
"921 396 CURVE SMOOTH",
"828 396 LINE",
"824 397 OFFCURVE",
"820 398 OFFCURVE",
"816 398 CURVE SMOOTH",
"788 398 OFFCURVE",
"767 411 OFFCURVE",
"752 431 CURVE",
"736 450 OFFCURVE",
"729 476 OFFCURVE",
"729 504 CURVE SMOOTH",
"729 1375 LINE",
"729 1450 LINE",
"729 1490 LINE",
"729 1650 LINE SMOOTH",
"729 1690 OFFCURVE",
"697 1722 OFFCURVE",
"657 1722 CURVE SMOOTH",
"252 1722 LINE SMOOTH",
"239 1722 OFFCURVE",
"228 1725 OFFCURVE",
"218 1732 CURVE",
"197 1745 OFFCURVE",
"179 1765 OFFCURVE",
"163 1784 CURVE SMOOTH",
"155 1793 OFFCURVE",
"147 1801 OFFCURVE",
"140 1807 CURVE",
"138 1808 OFFCURVE",
"136 1810 OFFCURVE",
"133 1811 CURVE",
"128 1814 OFFCURVE",
"122 1815 OFFCURVE",
"117 1815 CURVE SMOOTH",
"111 1815 OFFCURVE",
"104 1813 OFFCURVE",
"96 1810 CURVE",
"84 1803 OFFCURVE",
"75 1791 OFFCURVE",
"75 1776 CURVE SMOOTH",
"75 1375 LINE SMOOTH",
"75 1355 OFFCURVE",
"92 1339 OFFCURVE",
"111 1339 CURVE SMOOTH",
"534 1339 LINE",
"566 1323 OFFCURVE",
"577 1280 OFFCURVE",
"577 1229 CURVE SMOOTH",
"577 666 LINE SMOOTH",
"577 566 OFFCURVE",
"602 476 OFFCURVE",
"630 396 CURVE",
"441 396 LINE",
"112 396 LINE SMOOTH",
"89 396 OFFCURVE",
"89 384 OFFCURVE",
"89 363 CURVE SMOOTH",
"89 360 LINE SMOOTH",
"89 228 OFFCURVE",
"64 113 OFFCURVE",
"24 30 CURVE",
"21 23 OFFCURVE",
"18 17 OFFCURVE",
"18 11 CURVE SMOOTH",
"18 5 OFFCURVE",
"21 0 OFFCURVE",
"32 0 CURVE SMOOTH",
"441 0 LINE",
"841 0 LINE SMOOTH",
"864 0 OFFCURVE",
"864 13 OFFCURVE",
"864 33 CURVE SMOOTH",
"864 37 LINE SMOOTH",
"864 169 OFFCURVE",
"889 284 OFFCURVE",
"929 367 CURVE",
"928 367 LINE"
);
}
);
width = 914;
}
);
note = bet;
unicode = 05D1;
},
{
glyphname = gimel;
lastChange = "2017-07-29 05:17:02 +0000";
layers = (
{
layerId = "4658478A-2F1B-4277-A21C-C0C75B782ED1";
paths = (
{
closed = 1;
nodes = (
"691 519 OFFCURVE",
"655 654 OFFCURVE",
"630 782 CURVE SMOOTH",
"605 910 OFFCURVE",
"592 1033 OFFCURVE",
"585 1134 CURVE SMOOTH",
"578 1234 OFFCURVE",
"577 1313 OFFCURVE",
"577 1356 CURVE",
"580 1361 OFFCURVE",
"582 1367 OFFCURVE",
"582 1373 CURVE SMOOTH",
"582 1488 LINE",
"582 1648 LINE SMOOTH",
"582 1688 OFFCURVE",
"549 1720 OFFCURVE",
"510 1720 CURVE SMOOTH",
"344 1720 LINE SMOOTH",
"331 1720 OFFCURVE",
"320 1723 OFFCURVE",
"310 1730 CURVE",
"289 1743 OFFCURVE",
"271 1763 OFFCURVE",
"255 1782 CURVE SMOOTH",
"247 1791 OFFCURVE",
"239 1799 OFFCURVE",
"232 1805 CURVE",
"230 1806 OFFCURVE",
"228 1808 OFFCURVE",
"225 1809 CURVE",
"220 1812 OFFCURVE",
"214 1813 OFFCURVE",
"209 1813 CURVE SMOOTH",
"201 1813 OFFCURVE",
"195 1811 OFFCURVE",
"188 1808 CURVE",
"176 1801 OFFCURVE",
"167 1789 OFFCURVE",
"167 1774 CURVE SMOOTH",
"167 1373 LINE SMOOTH",
"167 1353 OFFCURVE",
"183 1337 OFFCURVE",
"203 1337 CURVE SMOOTH",
"387 1337 LINE SMOOTH",
"398 1337 OFFCURVE",
"407 1333 OFFCURVE",
"414 1325 CURVE",
"427 1308 OFFCURVE",
"436 1288 OFFCURVE",
"440 1260 CURVE",
"440 755 LINE SMOOTH",
"440 686 OFFCURVE",
"432 629 OFFCURVE",
"417 584 CURVE SMOOTH",
"385 495 OFFCURVE",
"336 443 OFFCURVE",
"281 419 CURVE SMOOTH",
"226 395 OFFCURVE",
"177 389 OFFCURVE",
"145 392 CURVE SMOOTH",
"129 393 OFFCURVE",
"121 394 OFFCURVE",
"121 394 CURVE",
"117 361 OFFCURVE",
"110 322 OFFCURVE",
"100 277 CURVE SMOOTH",
"80 188 OFFCURVE",
"58 101 OFFCURVE",
"29 1 CURVE",
"40 0 OFFCURVE",
"54 0 OFFCURVE",
"71 0 CURVE SMOOTH",
"85 0 OFFCURVE",
"103 0 OFFCURVE",
"124 0 CURVE SMOOTH",
"167 -1 OFFCURVE",
"234 0 OFFCURVE",
"276 9 CURVE SMOOTH",
"318 18 OFFCURVE",
"349 34 OFFCURVE",
"370 55 CURVE SMOOTH",
"391 76 OFFCURVE",
"405 101 OFFCURVE",
"424 139 CURVE SMOOTH",
"443 177 OFFCURVE",
"461 218 OFFCURVE",
"477 257 CURVE SMOOTH",
"492 296 OFFCURVE",
"501 325 OFFCURVE",
"506 346 CURVE",
"509 356 OFFCURVE",
"511 363 OFFCURVE",
"514 367 CURVE",
"516 370 OFFCURVE",
"518 370 OFFCURVE",
"521 366 CURVE",
"525 357 OFFCURVE",
"532 334 OFFCURVE",
"537 307 CURVE",
"541 280 OFFCURVE",
"547 246 OFFCURVE",
"552 207 CURVE SMOOTH",
"555 187 OFFCURVE",
"557 167 OFFCURVE",
"560 148 CURVE SMOOTH",
"566 103 OFFCURVE",
"572 54 OFFCURVE",
"577 1 CURVE",
"594 0 OFFCURVE",
"609 0 OFFCURVE",
"623 0 CURVE SMOOTH",
"634 0 OFFCURVE",
"645 0 OFFCURVE",
"656 0 CURVE",
"667 -1 OFFCURVE",
"673 0 OFFCURVE",
"675 1 CURVE",
"674 45 OFFCURVE",
"676 90 OFFCURVE",
"683 137 CURVE SMOOTH",
"695 229 OFFCURVE",
"714 309 OFFCURVE",
"731 358 CURVE SMOOTH",
"739 382 OFFCURVE",
"744 394 OFFCURVE",
"746 394 CURVE"
);
}
);
width = 803;
}
);
note = gimel;
unicode = 05D2;
},
{
glyphname = dalet;
lastChange = "2017-07-29 05:17:02 +0000";
layers = (
{
layerId = "4658478A-2F1B-4277-A21C-C0C75B782ED1";
paths = (
{
closed = 1;
nodes = (
"206 1720 LINE SMOOTH",
"193 1720 OFFCURVE",
"182 1723 OFFCURVE",
"171 1730 CURVE SMOOTH",
"150 1743 OFFCURVE",
"132 1763 OFFCURVE",
"116 1782 CURVE SMOOTH",
"108 1791 OFFCURVE",
"100 1799 OFFCURVE",
"93 1805 CURVE",
"91 1806 OFFCURVE",
"89 1808 OFFCURVE",
"86 1809 CURVE",
"81 1812 OFFCURVE",
"75 1813 OFFCURVE",
"70 1813 CURVE SMOOTH",
"63 1813 OFFCURVE",
"57 1811 OFFCURVE",
"50 1808 CURVE",
"36 1801 OFFCURVE",
"29 1789 OFFCURVE",
"29 1774 CURVE SMOOTH",
"29 1373 LINE SMOOTH",
"29 1353 OFFCURVE",
"45 1337 OFFCURVE",
"65 1337 CURVE SMOOTH",
"502 1337 LINE",
"510 1336 OFFCURVE",
"517 1335 OFFCURVE",
"524 1334 CURVE",
"536 1331 OFFCURVE",
"543 1325 OFFCURVE",
"543 1313 CURVE SMOOTH",
"543 1307 OFFCURVE",
"540 1300 OFFCURVE",
"534 1291 CURVE",
"501 1220 OFFCURVE",
"481 1139 OFFCURVE",
"470 1060 CURVE SMOOTH",
"459 981 OFFCURVE",
"457 905 OFFCURVE",
"457 842 CURVE SMOOTH",
"457 811 OFFCURVE",
"458 784 OFFCURVE",
"459 761 CURVE SMOOTH",
"460 738 OFFCURVE",
"460 722 OFFCURVE",
"460 711 CURVE SMOOTH",
"460 224 LINE SMOOTH",
"460 180 OFFCURVE",
"455 130 OFFCURVE",
"448 88 CURVE SMOOTH",
"440 46 OFFCURVE",
"431 12 OFFCURVE",
"423 1 CURVE",
"419 -4 OFFCURVE",
"416 -9 OFFCURVE",
"414 -16 CURVE",
"509 -85 LINE",
"520 -82 OFFCURVE",
"530 -74 OFFCURVE",
"545 -57 CURVE",
"585 -6 OFFCURVE",
"628 82 OFFCURVE",
"639 190 CURVE SMOOTH",
"640 201 OFFCURVE",
"641 219 OFFCURVE",
"641 246 CURVE",
"640 298 OFFCURVE",
"638 371 OFFCURVE",
"634 458 CURVE SMOOTH",
"630 545 OFFCURVE",
"625 636 OFFCURVE",
"620 727 CURVE SMOOTH",
"615 818 OFFCURVE",
"609 898 OFFCURVE",
"605 960 CURVE SMOOTH",
"602 991 OFFCURVE",
"600 1015 OFFCURVE",
"599 1033 CURVE",
"592 1104 OFFCURVE",
"603 1164 OFFCURVE",
"619 1211 CURVE SMOOTH",
"634 1258 OFFCURVE",
"654 1290 OFFCURVE",
"665 1302 CURVE",
"668 1305 OFFCURVE",
"673 1309 OFFCURVE",
"680 1315 CURVE SMOOTH",
"687 1321 OFFCURVE",
"694 1328 OFFCURVE",
"701 1336 CURVE SMOOTH",
"716 1352 OFFCURVE",
"729 1372 OFFCURVE",
"729 1388 CURVE SMOOTH",
"729 1488 LINE",
"729 1648 LINE SMOOTH",
"729 1688 OFFCURVE",
"697 1720 OFFCURVE",
"657 1720 CURVE SMOOTH"
);
}
);
width = 768;
}
);
note = dalet;
unicode = 05D3;
},
{
glyphname = he;
lastChange = "2017-07-29 05:17:02 +0000";
layers = (
{
layerId = "4658478A-2F1B-4277-A21C-C0C75B782ED1";
paths = (
{
closed = 1;
nodes = (
"791 437 OFFCURVE",
"786 508 OFFCURVE",
"779 592 CURVE SMOOTH",
"776 634 OFFCURVE",
"772 679 OFFCURVE",
"769 726 CURVE SMOOTH",
"762 820 OFFCURVE",
"756 915 OFFCURVE",
"752 1003 CURVE SMOOTH",
"747 1091 OFFCURVE",
"744 1164 OFFCURVE",
"744 1214 CURVE",
"743 1239 OFFCURVE",
"744 1256 OFFCURVE",
"746 1265 CURVE",
"753 1304 OFFCURVE",
"757 1331 OFFCURVE",
"760 1358 CURVE",
"762 1363 OFFCURVE",
"763 1368 OFFCURVE",
"763 1373 CURVE SMOOTH",
"763 1488 LINE",
"763 1648 LINE SMOOTH",
"763 1688 OFFCURVE",
"731 1720 OFFCURVE",
"691 1720 CURVE SMOOTH",
"216 1720 LINE SMOOTH",
"203 1720 OFFCURVE",
"192 1723 OFFCURVE",
"181 1730 CURVE SMOOTH",
"160 1743 OFFCURVE",
"142 1763 OFFCURVE",
"126 1782 CURVE SMOOTH",
"118 1791 OFFCURVE",
"111 1799 OFFCURVE",
"104 1805 CURVE",
"96 1809 LINE",
"91 1812 OFFCURVE",
"87 1813 OFFCURVE",
"80 1813 CURVE SMOOTH",
"73 1813 OFFCURVE",
"67 1811 OFFCURVE",
"60 1808 CURVE",
"46 1801 OFFCURVE",
"39 1789 OFFCURVE",
"39 1774 CURVE SMOOTH",
"39 1373 LINE SMOOTH",
"39 1353 OFFCURVE",
"55 1337 OFFCURVE",
"75 1337 CURVE SMOOTH",
"644 1337 LINE",
"624 1269 OFFCURVE",
"600 1184 OFFCURVE",
"600 1097 CURVE SMOOTH",
"600 1062 OFFCURVE",
"602 992 OFFCURVE",
"605 912 CURVE SMOOTH",
"608 831 OFFCURVE",
"612 740 OFFCURVE",
"616 664 CURVE SMOOTH",
"620 587 OFFCURVE",
"623 524 OFFCURVE",
"627 500 CURVE",
"630 476 OFFCURVE",
"635 424 OFFCURVE",
"639 363 CURVE SMOOTH",
"642 302 OFFCURVE",
"643 229 OFFCURVE",
"641 165 CURVE SMOOTH",
"639 101 OFFCURVE",
"630 45 OFFCURVE",
"617 16 CURVE",
"616 13 OFFCURVE",
"615 10 OFFCURVE",
"614 8 CURVE",
"613 5 OFFCURVE",
"613 3 OFFCURVE",
"612 1 CURVE",
"755 13 LINE",
"760 38 OFFCURVE",
"774 97 OFFCURVE",
"784 168 CURVE SMOOTH",
"794 239 OFFCURVE",
"799 322 OFFCURVE",
"794 394 CURVE SMOOTH"
);
},
{
closed = 1;
nodes = (
"232 906 OFFCURVE",
"230 926 OFFCURVE",
"225 937 CURVE",
"216 959 OFFCURVE",
"195 957 OFFCURVE",
"166 939 CURVE SMOOTH",
"137 921 OFFCURVE",
"101 903 OFFCURVE",
"86 871 CURVE SMOOTH",
"71 839 OFFCURVE",
"66 798 OFFCURVE",
"64 752 CURVE SMOOTH",
"62 706 OFFCURVE",
"64 660 OFFCURVE",
"66 621 CURVE SMOOTH",
"67 601 OFFCURVE",
"67 584 OFFCURVE",
"67 570 CURVE SMOOTH",
"67 8 LINE SMOOTH",
"67 1 OFFCURVE",
"74 -7 OFFCURVE",
"82 -7 CURVE SMOOTH",
"216 -7 LINE SMOOTH",
"224 -7 OFFCURVE",
"231 1 OFFCURVE",
"231 8 CURVE SMOOTH",
"231 595 LINE SMOOTH",
"231 596 OFFCURVE",
"231 596 OFFCURVE",
"231 597 CURVE",
"230 598 OFFCURVE",
"230 598 OFFCURVE",
"230 599 CURVE SMOOTH",
"230 622 OFFCURVE",
"230 645 OFFCURVE",
"230 670 CURVE",
"229 695 OFFCURVE",
"229 719 OFFCURVE",
"229 744 CURVE SMOOTH",
"229 793 OFFCURVE",
"230 841 OFFCURVE",
"231 878 CURVE SMOOTH"
);
}
);
width = 842;
}
);
note = he;
unicode = 05D4;
},
{
glyphname = vav;
lastChange = "2017-07-29 05:17:02 +0000";
layers = (
{
layerId = "4658478A-2F1B-4277-A21C-C0C75B782ED1";
paths = (
{
closed = 1;
nodes = (
"454 1648 LINE SMOOTH",
"454 1688 OFFCURVE",
"422 1720 OFFCURVE",
"382 1720 CURVE SMOOTH",
"217 1720 LINE SMOOTH",
"204 1720 OFFCURVE",
"193 1723 OFFCURVE",
"182 1730 CURVE SMOOTH",
"161 1743 OFFCURVE",
"143 1763 OFFCURVE",
"128 1782 CURVE",
"120 1791 OFFCURVE",
"112 1799 OFFCURVE",
"105 1805 CURVE",
"97 1809 LINE",
"92 1812 OFFCURVE",
"88 1813 OFFCURVE",
"81 1813 CURVE SMOOTH",
"74 1813 OFFCURVE",
"68 1811 OFFCURVE",
"61 1808 CURVE",
"49 1801 OFFCURVE",
"40 1789 OFFCURVE",
"40 1774 CURVE SMOOTH",
"40 1373 LINE SMOOTH",
"40 1353 OFFCURVE",
"56 1337 OFFCURVE",
"76 1337 CURVE SMOOTH",
"221 1337 LINE",
"226 1337 LINE SMOOTH",
"254 1337 OFFCURVE",
"276 1315 OFFCURVE",
"276 1286 CURVE SMOOTH",
"276 1264 LINE",
"276 15 LINE SMOOTH",
"276 8 OFFCURVE",
"281 2 OFFCURVE",
"288 1 CURVE",
"386 1 LINE",
"393 1 LINE SMOOTH",
"400 1 OFFCURVE",
"403 2 OFFCURVE",
"404 13 CURVE",
"405 13 OFFCURVE",
"405 13 OFFCURVE",
"405 14 CURVE",
"406 36 OFFCURVE",
"409 61 OFFCURVE",
"414 88 CURVE SMOOTH",
"423 143 OFFCURVE",
"436 200 OFFCURVE",
"449 254 CURVE SMOOTH",
"462 308 OFFCURVE",
"475 350 OFFCURVE",
"484 375 CURVE",
"488 388 OFFCURVE",
"491 394 OFFCURVE",
"492 394 CURVE",
"473 453 OFFCURVE",
"463 551 OFFCURVE",
"456 664 CURVE SMOOTH",
"448 777 OFFCURVE",
"446 906 OFFCURVE",
"446 1029 CURVE",
"445 1172 OFFCURVE",
"448 1325 OFFCURVE",
"454 1488 CURVE"
);
}
);
width = 527;
}
);
note = vav;
unicode = 05D5;
},
{
glyphname = zayin;
lastChange = "2017-07-29 05:17:02 +0000";
layers = (
{
layerId = "4658478A-2F1B-4277-A21C-C0C75B782ED1";
paths = (
{
closed = 1;
nodes = (
"197 1720 LINE SMOOTH",
"184 1720 OFFCURVE",
"173 1723 OFFCURVE",
"163 1730 CURVE",
"142 1743 OFFCURVE",
"124 1763 OFFCURVE",
"108 1782 CURVE SMOOTH",
"100 1791 OFFCURVE",
"92 1799 OFFCURVE",
"85 1805 CURVE",
"83 1806 OFFCURVE",
"81 1808 OFFCURVE",
"78 1809 CURVE",
"73 1812 OFFCURVE",
"67 1813 OFFCURVE",
"62 1813 CURVE SMOOTH",
"56 1813 OFFCURVE",
"49 1811 OFFCURVE",
"41 1808 CURVE",
"29 1801 OFFCURVE",
"20 1789 OFFCURVE",
"20 1774 CURVE SMOOTH",
"20 1373 LINE SMOOTH",
"20 1353 OFFCURVE",
"37 1337 OFFCURVE",
"56 1337 CURVE SMOOTH",
"206 1337 LINE",
"187 1313 OFFCURVE",
"159 1269 OFFCURVE",
"136 1206 CURVE SMOOTH",
"112 1142 OFFCURVE",
"93 1061 OFFCURVE",
"93 964 CURVE SMOOTH",
"93 824 LINE",
"93 811 LINE",
"93 15 LINE SMOOTH",
"93 7 OFFCURVE",
"97 2 OFFCURVE",
"106 1 CURVE",
"203 1 LINE",
"211 1 LINE SMOOTH",
"216 1 OFFCURVE",
"220 2 OFFCURVE",
"221 13 CURVE",
"221 14 LINE",
"223 36 OFFCURVE",
"226 61 OFFCURVE",
"231 88 CURVE SMOOTH",
"240 143 OFFCURVE",
"253 200 OFFCURVE",
"266 254 CURVE SMOOTH",
"279 308 OFFCURVE",
"292 350 OFFCURVE",
"300 375 CURVE SMOOTH",
"304 388 OFFCURVE",
"307 394 OFFCURVE",
"308 394 CURVE",
"296 437 OFFCURVE",
"287 499 OFFCURVE",
"280 574 CURVE SMOOTH",
"272 649 OFFCURVE",
"269 735 OFFCURVE",
"266 824 CURVE",
"266 847 OFFCURVE",
"266 874 OFFCURVE",
"265 905 CURVE SMOOTH",
"264 936 OFFCURVE",
"265 968 OFFCURVE",
"266 1001 CURVE SMOOTH",
"268 1067 OFFCURVE",
"272 1136 OFFCURVE",
"286 1197 CURVE SMOOTH",
"300 1257 OFFCURVE",
"322 1308 OFFCURVE",
"359 1337 CURVE",
"382 1337 LINE SMOOTH",
"401 1337 OFFCURVE",
"418 1353 OFFCURVE",
"418 1373 CURVE SMOOTH",
"418 1488 LINE",
"418 1648 LINE SMOOTH",
"418 1688 OFFCURVE",
"385 1720 OFFCURVE",
"346 1720 CURVE SMOOTH"
);
}
);
width = 463;
}
);
note = zayin;
unicode = 05D6;
},
{
glyphname = het;
lastChange = "2017-07-29 05:17:02 +0000";
layers = (
{
layerId = "4658478A-2F1B-4277-A21C-C0C75B782ED1";
paths = (
{
closed = 1;
nodes = (
"243 1720 LINE SMOOTH",
"230 1720 OFFCURVE",
"219 1723 OFFCURVE",
"209 1730 CURVE",
"188 1743 OFFCURVE",
"170 1763 OFFCURVE",
"154 1782 CURVE SMOOTH",
"146 1791 OFFCURVE",
"138 1799 OFFCURVE",
"131 1805 CURVE",
"129 1806 OFFCURVE",
"127 1808 OFFCURVE",
"124 1809 CURVE",
"119 1812 OFFCURVE",
"113 1813 OFFCURVE",
"108 1813 CURVE SMOOTH",
"100 1813 OFFCURVE",
"94 1811 OFFCURVE",
"87 1808 CURVE",
"75 1801 OFFCURVE",
"66 1789 OFFCURVE",
"66 1774 CURVE SMOOTH",
"66 1373 LINE SMOOTH",
"66 1353 OFFCURVE",
"82 1337 OFFCURVE",
"102 1337 CURVE SMOOTH",
"202 1337 LINE",
"151 1318 OFFCURVE",
"118 1279 OFFCURVE",
"98 1219 CURVE SMOOTH",
"77 1158 OFFCURVE",
"69 1073 OFFCURVE",
"69 964 CURVE SMOOTH",
"69 824 LINE",
"69 811 LINE",
"33 15 LINE",
"33 8 OFFCURVE",
"38 2 OFFCURVE",
"45 1 CURVE",
"143 1 LINE",
"150 1 LINE SMOOTH",
"157 1 OFFCURVE",
"160 2 OFFCURVE",
"161 13 CURVE",
"162 13 OFFCURVE",
"162 13 OFFCURVE",
"162 14 CURVE",
"163 36 OFFCURVE",
"166 61 OFFCURVE",
"171 88 CURVE SMOOTH",
"180 143 OFFCURVE",
"193 200 OFFCURVE",
"206 254 CURVE SMOOTH",
"219 308 OFFCURVE",
"232 350 OFFCURVE",
"241 375 CURVE",
"245 388 OFFCURVE",
"248 394 OFFCURVE",
"249 394 CURVE",
"242 415 OFFCURVE",
"237 441 OFFCURVE",
"232 472 CURVE SMOOTH",
"223 533 OFFCURVE",
"215 609 OFFCURVE",
"211 694 CURVE SMOOTH",
"207 778 OFFCURVE",
"206 844 OFFCURVE",
"206 905 CURVE",
"205 936 OFFCURVE",
"205 968 OFFCURVE",
"206 1001 CURVE SMOOTH",
"207 1067 OFFCURVE",
"213 1136 OFFCURVE",
"227 1197 CURVE SMOOTH",
"241 1257 OFFCURVE",
"263 1308 OFFCURVE",
"300 1337 CURVE",
"675 1337 LINE",
"656 1313 OFFCURVE",
"628 1269 OFFCURVE",
"605 1206 CURVE SMOOTH",
"581 1142 OFFCURVE",
"562 1061 OFFCURVE",
"562 964 CURVE SMOOTH",
"562 824 LINE",
"562 811 LINE",
"562 15 LINE SMOOTH",
"562 7 OFFCURVE",
"566 2 OFFCURVE",
"574 1 CURVE",
"672 1 LINE",
"679 1 LINE SMOOTH",
"686 1 OFFCURVE",
"689 2 OFFCURVE",
"690 13 CURVE",
"690 14 LINE",
"691 36 OFFCURVE",
"694 61 OFFCURVE",
"699 88 CURVE SMOOTH",
"708 143 OFFCURVE",
"722 200 OFFCURVE",
"735 254 CURVE SMOOTH",
"748 308 OFFCURVE",
"760 350 OFFCURVE",
"769 375 CURVE",
"773 388 OFFCURVE",
"776 394 OFFCURVE",
"777 394 CURVE",
"764 437 OFFCURVE",
"755 499 OFFCURVE",
"748 574 CURVE SMOOTH",
"741 649 OFFCURVE",
"736 735 OFFCURVE",
"735 824 CURVE",
"735 848 OFFCURVE",
"735 876 OFFCURVE",
"734 907 CURVE SMOOTH",
"733 938 OFFCURVE",
"733 971 OFFCURVE",
"734 1006 CURVE SMOOTH",
"734 1074 OFFCURVE",
"739 1146 OFFCURVE",
"752 1207 CURVE SMOOTH",
"765 1268 OFFCURVE",
"789 1320 OFFCURVE",
"828 1347 CURVE",
"829 1348 LINE SMOOTH",
"836 1355 OFFCURVE",
"839 1363 OFFCURVE",
"839 1373 CURVE SMOOTH",
"839 1488 LINE",
"839 1648 LINE SMOOTH",
"839 1688 OFFCURVE",
"807 1720 OFFCURVE",
"767 1720 CURVE SMOOTH"
);
}
);
width = 880;
}
);
note = het;
unicode = 05D7;
},
{
glyphname = tet;
lastChange = "2017-07-29 05:17:02 +0000";
layers = (
{
layerId = "4658478A-2F1B-4277-A21C-C0C75B782ED1";
paths = (
{
closed = 1;
nodes = (
"862 394 OFFCURVE",
"862 409 OFFCURVE",
"862 439 CURVE",
"861 469 OFFCURVE",
"861 509 OFFCURVE",
"860 559 CURVE SMOOTH",
"859 608 OFFCURVE",
"858 665 OFFCURVE",
"857 729 CURVE SMOOTH",
"856 793 OFFCURVE",
"856 859 OFFCURVE",
"855 928 CURVE SMOOTH",
"854 997 OFFCURVE",
"853 1065 OFFCURVE",
"852 1133 CURVE SMOOTH",
"851 1268 OFFCURVE",
"849 1384 OFFCURVE",
"848 1465 CURVE SMOOTH",
"847 1506 OFFCURVE",
"847 1533 OFFCURVE",
"847 1548 CURVE",
"846 1605 OFFCURVE",
"838 1649 OFFCURVE",
"815 1678 CURVE",
"791 1706 OFFCURVE",
"752 1720 OFFCURVE",
"688 1720 CURVE SMOOTH",
"491 1720 LINE",
"485 1619 OFFCURVE",
"477 1525 OFFCURVE",
"467 1438 CURVE SMOOTH",
"459 1363 OFFCURVE",
"447 1284 OFFCURVE",
"434 1215 CURVE SMOOTH",
"421 1146 OFFCURVE",
"405 1087 OFFCURVE",
"386 1052 CURVE",
"387 1050 OFFCURVE",
"394 1047 OFFCURVE",
"406 1043 CURVE SMOOTH",
"429 1035 OFFCURVE",
"457 1028 OFFCURVE",
"496 1019 CURVE",
"519 1095 OFFCURVE",
"528 1148 OFFCURVE",
"537 1192 CURVE SMOOTH",
"545 1235 OFFCURVE",
"552 1268 OFFCURVE",
"571 1307 CURVE SMOOTH",
"587 1340 OFFCURVE",
"612 1351 OFFCURVE",
"633 1340 CURVE",
"654 1328 OFFCURVE",
"674 1296 OFFCURVE",
"679 1245 CURVE SMOOTH",
"683 1210 OFFCURVE",
"689 1154 OFFCURVE",
"694 1087 CURVE SMOOTH",
"698 1019 OFFCURVE",
"702 942 OFFCURVE",
"702 869 CURVE SMOOTH",
"702 796 OFFCURVE",
"698 726 OFFCURVE",
"686 673 CURVE SMOOTH",
"667 593 OFFCURVE",
"650 528 OFFCURVE",
"615 484 CURVE SMOOTH",
"579 439 OFFCURVE",
"528 413 OFFCURVE",
"443 416 CURVE SMOOTH",
"358 419 OFFCURVE",
"311 457 OFFCURVE",
"284 518 CURVE SMOOTH",
"256 578 OFFCURVE",
"249 660 OFFCURVE",
"242 748 CURVE SMOOTH",
"237 805 OFFCURVE",
"230 885 OFFCURVE",
"230 967 CURVE",
"229 1049 OFFCURVE",
"233 1132 OFFCURVE",
"253 1201 CURVE SMOOTH",
"272 1269 OFFCURVE",
"305 1320 OFFCURVE",
"361 1339 CURVE",
"362 1340 OFFCURVE",
"362 1340 OFFCURVE",
"363 1340 CURVE SMOOTH",
"364 1340 OFFCURVE",
"364 1340 OFFCURVE",
"365 1341 CURVE",
"366 1341 OFFCURVE",
"366 1341 OFFCURVE",
"366 1342 CURVE",
"366 1342 OFFCURVE",
"366 1342 OFFCURVE",
"367 1342 CURVE",
"366 1342 LINE",
"379 1349 OFFCURVE",
"386 1359 OFFCURVE",
"386 1373 CURVE SMOOTH",
"386 1488 LINE",
"386 1648 LINE SMOOTH",
"386 1688 OFFCURVE",
"353 1720 OFFCURVE",
"313 1720 CURVE SMOOTH",
"236 1720 LINE SMOOTH",
"223 1720 OFFCURVE",
"212 1723 OFFCURVE",
"201 1730 CURVE SMOOTH",
"180 1743 OFFCURVE",
"162 1763 OFFCURVE",
"146 1782 CURVE SMOOTH",
"138 1791 OFFCURVE",
"130 1799 OFFCURVE",
"123 1805 CURVE",
"121 1806 OFFCURVE",
"119 1808 OFFCURVE",
"116 1809 CURVE",
"111 1812 OFFCURVE",
"105 1813 OFFCURVE",
"100 1813 CURVE SMOOTH",
"93 1813 OFFCURVE",
"87 1811 OFFCURVE",
"80 1808 CURVE",
"68 1801 OFFCURVE",
"59 1789 OFFCURVE",
"59 1774 CURVE SMOOTH",
"59 1373 LINE SMOOTH",
"59 1353 OFFCURVE",
"75 1337 OFFCURVE",
"95 1337 CURVE SMOOTH",
"197 1337 LINE",
"170 1320 OFFCURVE",
"143 1293 OFFCURVE",
"122 1244 CURVE SMOOTH",
"101 1195 OFFCURVE",
"84 1125 OFFCURVE",
"83 1022 CURVE SMOOTH",
"82 954 OFFCURVE",
"83 862 OFFCURVE",
"87 761 CURVE SMOOTH",
"90 660 OFFCURVE",
"94 549 OFFCURVE",
"98 445 CURVE SMOOTH",
"102 340 OFFCURVE",
"105 241 OFFCURVE",
"105 162 CURVE SMOOTH",
"104 82 OFFCURVE",
"101 24 OFFCURVE",
"92 1 CURVE",
"91 0 OFFCURVE",
"101 0 OFFCURVE",
"122 0 CURVE SMOOTH",
"142 0 OFFCURVE",
"169 0 OFFCURVE",
"202 0 CURVE SMOOTH",
"235 0 OFFCURVE",
"274 0 OFFCURVE",
"317 0 CURVE SMOOTH",
"360 0 OFFCURVE",
"405 0 OFFCURVE",
"450 0 CURVE SMOOTH",
"556 0 OFFCURVE",
"677 0 OFFCURVE",
"812 1 CURVE",
"811 40 OFFCURVE",
"811 81 OFFCURVE",
"814 124 CURVE SMOOTH",
"819 199 OFFCURVE",
"832 294 OFFCURVE",
"863 394 CURVE"
);
}
);
width = 934;
}
);
note = tet;
unicode = 05D8;
},
{
glyphname = yod;
lastChange = "2017-07-29 05:17:02 +0000";
layers = (
{
layerId = "4658478A-2F1B-4277-A21C-C0C75B782ED1";
paths = (
{
closed = 1;
nodes = (
"424 1643 OFFCURVE",
"400 1675 OFFCURVE",
"373 1695 CURVE",
"345 1714 OFFCURVE",
"314 1720 OFFCURVE",
"289 1720 CURVE SMOOTH",
"211 1720 LINE SMOOTH",
"198 1720 OFFCURVE",
"187 1723 OFFCURVE",
"176 1730 CURVE SMOOTH",
"155 1743 OFFCURVE",
"137 1763 OFFCURVE",
"121 1782 CURVE SMOOTH",
"113 1791 OFFCURVE",
"105 1799 OFFCURVE",
"98 1805 CURVE",
"96 1806 OFFCURVE",
"94 1808 OFFCURVE",
"91 1809 CURVE",
"86 1812 OFFCURVE",
"80 1813 OFFCURVE",
"75 1813 CURVE SMOOTH",
"68 1813 OFFCURVE",
"62 1811 OFFCURVE",
"55 1808 CURVE",
"43 1801 OFFCURVE",
"34 1789 OFFCURVE",
"34 1774 CURVE SMOOTH",
"34 1373 LINE SMOOTH",
"34 1353 OFFCURVE",
"50 1337 OFFCURVE",
"70 1337 CURVE SMOOTH",
"218 1337 LINE",
"217 1334 LINE",
"238 1335 OFFCURVE",
"259 1331 OFFCURVE",
"273 1312 CURVE SMOOTH",
"287 1293 OFFCURVE",
"295 1262 OFFCURVE",
"294 1210 CURVE SMOOTH",
"293 1175 OFFCURVE",
"291 1127 OFFCURVE",
"288 1076 CURVE SMOOTH",
"284 1025 OFFCURVE",
"279 971 OFFCURVE",
"275 927 CURVE SMOOTH",
"270 882 OFFCURVE",
"263 846 OFFCURVE",
"256 830 CURVE",
"256 829 OFFCURVE",
"261 828 OFFCURVE",
"271 828 CURVE",
"290 827 OFFCURVE",
"318 828 OFFCURVE",
"347 829 CURVE",
"361 830 OFFCURVE",
"373 830 OFFCURVE",
"382 830 CURVE SMOOTH",
"392 830 OFFCURVE",
"401 837 OFFCURVE",
"408 851 CURVE SMOOTH",
"415 864 OFFCURVE",
"421 882 OFFCURVE",
"426 905 CURVE SMOOTH",
"436 949 OFFCURVE",
"443 1007 OFFCURVE",
"450 1063 CURVE SMOOTH",
"455 1100 OFFCURVE",
"458 1159 OFFCURVE",
"459 1225 CURVE SMOOTH",
"459 1291 OFFCURVE",
"457 1363 OFFCURVE",
"453 1428 CURVE SMOOTH",
"449 1493 OFFCURVE",
"444 1552 OFFCURVE",
"436 1588 CURVE SMOOTH"
);
}
);
width = 501;
}
);
note = yod;
unicode = 05D9;
},
{
glyphname = kaffinal;
lastChange = "2017-07-29 05:17:02 +0000";
layers = (
{
layerId = "4658478A-2F1B-4277-A21C-C0C75B782ED1";
paths = (
{
closed = 1;
nodes = (
"218 1720 LINE SMOOTH",
"205 1720 OFFCURVE",
"194 1723 OFFCURVE",
"184 1730 CURVE",
"163 1743 OFFCURVE",
"145 1763 OFFCURVE",
"129 1782 CURVE SMOOTH",
"121 1791 OFFCURVE",
"113 1799 OFFCURVE",
"106 1805 CURVE",
"104 1806 OFFCURVE",
"102 1808 OFFCURVE",
"99 1809 CURVE",
"94 1812 OFFCURVE",
"88 1813 OFFCURVE",
"83 1813 CURVE SMOOTH",
"77 1813 OFFCURVE",
"70 1811 OFFCURVE",
"62 1808 CURVE",
"50 1801 OFFCURVE",
"41 1789 OFFCURVE",
"41 1774 CURVE SMOOTH",
"41 1373 LINE SMOOTH",
"41 1353 OFFCURVE",
"58 1337 OFFCURVE",
"77 1337 CURVE SMOOTH",
"661 1337 LINE",
"644 1324 OFFCURVE",
"628 1307 OFFCURVE",
"611 1285 CURVE SMOOTH",
"578 1240 OFFCURVE",
"549 1157 OFFCURVE",
"533 1021 CURVE SMOOTH",
"516 884 OFFCURVE",
"521 672 OFFCURVE",
"525 523 CURVE SMOOTH",
"527 448 OFFCURVE",
"528 378 OFFCURVE",
"527 311 CURVE SMOOTH",
"526 177 OFFCURVE",
"517 56 OFFCURVE",
"489 -51 CURVE SMOOTH",
"461 -159 OFFCURVE",
"412 -255 OFFCURVE",
"332 -340 CURVE",
"333 -340 OFFCURVE",
"338 -344 OFFCURVE",
"349 -353 CURVE SMOOTH",
"360 -362 OFFCURVE",
"371 -372 OFFCURVE",
"384 -383 CURVE SMOOTH",
"399 -395 OFFCURVE",
"415 -409 OFFCURVE",
"433 -425 CURVE",
"472 -371 OFFCURVE",
"511 -319 OFFCURVE",
"550 -270 CURVE SMOOTH",
"583 -229 OFFCURVE",
"621 -182 OFFCURVE",
"658 -140 CURVE SMOOTH",
"695 -98 OFFCURVE",
"733 -61 OFFCURVE",
"766 -33 CURVE",
"767 -32 OFFCURVE",
"765 -20 OFFCURVE",
"761 5 CURVE SMOOTH",
"757 30 OFFCURVE",
"752 62 OFFCURVE",
"746 103 CURVE SMOOTH",
"733 183 OFFCURVE",
"717 293 OFFCURVE",
"706 403 CURVE SMOOTH",
"694 513 OFFCURVE",
"686 626 OFFCURVE",
"689 715 CURVE SMOOTH",
"690 760 OFFCURVE",
"691 801 OFFCURVE",
"691 839 CURVE",
"690 877 OFFCURVE",
"690 913 OFFCURVE",
"690 948 CURVE SMOOTH",
"690 1017 OFFCURVE",
"693 1081 OFFCURVE",
"708 1146 CURVE SMOOTH",
"723 1211 OFFCURVE",
"749 1279 OFFCURVE",
"794 1356 CURVE",
"794 1356 OFFCURVE",
"795 1357 OFFCURVE",
"796 1360 CURVE",
"796 1361 LINE",
"797 1365 OFFCURVE",
"798 1369 OFFCURVE",
"798 1373 CURVE SMOOTH",
"798 1488 LINE",
"798 1648 LINE SMOOTH",
"798 1688 OFFCURVE",
"766 1720 OFFCURVE",
"726 1720 CURVE SMOOTH"
);
}
);
width = 871;
}
);
note = kaffinal;
unicode = 05DA;
},
{
glyphname = kaf;
lastChange = "2017-07-29 05:17:02 +0000";
layers = (
{
layerId = "4658478A-2F1B-4277-A21C-C0C75B782ED1";
paths = (
{
closed = 1;
nodes = (
"801 1444 LINE SMOOTH",
"801 1449 OFFCURVE",
"800 1454 OFFCURVE",
"798 1460 CURVE",
"795 1501 OFFCURVE",
"789 1544 OFFCURVE",
"782 1582 CURVE SMOOTH",
"774 1620 OFFCURVE",
"765 1652 OFFCURVE",
"756 1675 CURVE",
"756 1676 LINE",
"744 1703 OFFCURVE",
"720 1720 OFFCURVE",
"689 1720 CURVE SMOOTH",
"288 1720 LINE SMOOTH",
"275 1720 OFFCURVE",
"264 1723 OFFCURVE",
"254 1730 CURVE",
"233 1743 OFFCURVE",
"215 1763 OFFCURVE",
"199 1782 CURVE SMOOTH",
"191 1791 OFFCURVE",
"183 1799 OFFCURVE",
"176 1805 CURVE",
"174 1806 OFFCURVE",
"172 1808 OFFCURVE",
"169 1809 CURVE",
"164 1812 OFFCURVE",
"158 1813 OFFCURVE",
"153 1813 CURVE SMOOTH",
"147 1813 OFFCURVE",
"140 1811 OFFCURVE",
"132 1808 CURVE",
"120 1801 OFFCURVE",
"111 1789 OFFCURVE",
"111 1774 CURVE SMOOTH",
"111 1373 LINE SMOOTH",
"111 1353 OFFCURVE",
"128 1337 OFFCURVE",
"147 1337 CURVE SMOOTH",
"529 1337 LINE SMOOTH",
"545 1337 OFFCURVE",
"559 1331 OFFCURVE",
"570 1319 CURVE SMOOTH",
"592 1294 OFFCURVE",
"608 1254 OFFCURVE",
"620 1210 CURVE SMOOTH",
"626 1187 OFFCURVE",
"632 1166 OFFCURVE",
"638 1145 CURVE SMOOTH",
"646 1118 OFFCURVE",
"650 1070 OFFCURVE",
"651 1011 CURVE SMOOTH",
"651 952 OFFCURVE",
"648 883 OFFCURVE",
"643 815 CURVE SMOOTH",
"638 747 OFFCURVE",
"629 680 OFFCURVE",
"618 624 CURVE SMOOTH",
"603 549 OFFCURVE",
"576 495 OFFCURVE",
"544 458 CURVE SMOOTH",
"512 421 OFFCURVE",
"474 399 OFFCURVE",
"435 394 CURVE",
"129 394 LINE SMOOTH",
"106 394 OFFCURVE",
"107 382 OFFCURVE",
"107 361 CURVE SMOOTH",
"107 358 LINE SMOOTH",
"107 226 OFFCURVE",
"82 111 OFFCURVE",
"42 28 CURVE",
"41 25 OFFCURVE",
"39 21 OFFCURVE",
"38 18 CURVE",
"36 15 OFFCURVE",
"35 12 OFFCURVE",
"35 9 CURVE SMOOTH",
"35 3 OFFCURVE",
"38 -2 OFFCURVE",
"49 -2 CURVE SMOOTH",
"449 -2 LINE",
"450 -2 LINE",
"717 -2 LINE SMOOTH",
"724 -2 OFFCURVE",
"730 -2 OFFCURVE",
"737 -3 CURVE SMOOTH",
"743 -4 OFFCURVE",
"749 -3 OFFCURVE",
"754 -1 CURVE",
"764 2 OFFCURVE",
"770 12 OFFCURVE",
"770 36 CURVE SMOOTH",
"770 44 OFFCURVE",
"772 59 OFFCURVE",
"775 80 CURVE SMOOTH",
"782 122 OFFCURVE",
"791 176 OFFCURVE",
"803 233 CURVE SMOOTH",
"814 290 OFFCURVE",
"825 339 OFFCURVE",
"833 370 CURVE",
"836 385 OFFCURVE",
"838 393 OFFCURVE",
"839 392 CURVE",
"835 403 OFFCURVE",
"831 424 OFFCURVE",
"828 454 CURVE SMOOTH",
"821 514 OFFCURVE",
"817 599 OFFCURVE",
"813 700 CURVE SMOOTH",
"809 801 OFFCURVE",
"806 911 OFFCURVE",
"805 1020 CURVE SMOOTH",
"804 1074 OFFCURVE",
"804 1125 OFFCURVE",
"803 1173 CURVE SMOOTH",
"802 1269 OFFCURVE",
"801 1351 OFFCURVE",
"801 1400 CURVE SMOOTH"
);
}
);
width = 881;
}
);
note = kaf;
unicode = 05DB;
},
{
glyphname = lamed;
lastChange = "2017-07-29 05:17:02 +0000";
layers = (
{
layerId = "4658478A-2F1B-4277-A21C-C0C75B782ED1";
paths = (
{
closed = 1;
nodes = (
"45 1409 OFFCURVE",
"48 1385 OFFCURVE",
"60 1367 CURVE",
"71 1349 OFFCURVE",
"90 1337 OFFCURVE",
"123 1337 CURVE SMOOTH",
"437 1337 LINE SMOOTH",
"476 1337 OFFCURVE",
"511 1328 OFFCURVE",
"537 1312 CURVE SMOOTH",
"563 1296 OFFCURVE",
"579 1272 OFFCURVE",
"579 1241 CURVE SMOOTH",
"579 1210 OFFCURVE",
"579 1186 OFFCURVE",
"577 1158 CURVE SMOOTH",
"575 1130 OFFCURVE",
"572 1099 OFFCURVE",
"565 1054 CURVE SMOOTH",
"558 1009 OFFCURVE",
"541 962 OFFCURVE",
"503 898 CURVE SMOOTH",
"465 834 OFFCURVE",
"406 753 OFFCURVE",
"321 641 CURVE SMOOTH",
"278 585 OFFCURVE",
"247 517 OFFCURVE",
"224 446 CURVE SMOOTH",
"201 375 OFFCURVE",
"187 303 OFFCURVE",
"178 236 CURVE SMOOTH",
"167 158 OFFCURVE",
"162 79 OFFCURVE",
"163 -2 CURVE",
"187 -3 OFFCURVE",
"209 -3 OFFCURVE",
"228 -3 CURVE SMOOTH",
"245 -3 OFFCURVE",
"260 -3 OFFCURVE",
"274 -3 CURVE SMOOTH",
"287 -3 OFFCURVE",
"295 -3 OFFCURVE",
"296 -2 CURVE",
"296 15 OFFCURVE",
"300 36 OFFCURVE",
"307 62 CURVE SMOOTH",
"322 114 OFFCURVE",
"345 174 OFFCURVE",
"370 232 CURVE SMOOTH",
"395 290 OFFCURVE",
"418 338 OFFCURVE",
"433 369 CURVE SMOOTH",
"440 384 OFFCURVE",
"444 393 OFFCURVE",
"444 394 CURVE",
"441 449 OFFCURVE",
"458 512 OFFCURVE",
"484 576 CURVE SMOOTH",
"510 639 OFFCURVE",
"545 702 OFFCURVE",
"581 759 CURVE SMOOTH",
"617 815 OFFCURVE",
"654 863 OFFCURVE",
"683 898 CURVE SMOOTH",
"698 915 OFFCURVE",
"710 937 OFFCURVE",
"721 963 CURVE SMOOTH",
"742 1014 OFFCURVE",
"759 1073 OFFCURVE",
"769 1133 CURVE SMOOTH",
"779 1192 OFFCURVE",
"785 1242 OFFCURVE",
"788 1277 CURVE SMOOTH",
"789 1294 OFFCURVE",
"790 1305 OFFCURVE",
"791 1310 CURVE SMOOTH",
"792 1315 OFFCURVE",
"792 1324 OFFCURVE",
"793 1337 CURVE SMOOTH",
"794 1350 OFFCURVE",
"794 1366 OFFCURVE",
"795 1384 CURVE SMOOTH",
"796 1420 OFFCURVE",
"798 1462 OFFCURVE",
"799 1501 CURVE SMOOTH",
"799 1520 OFFCURVE",
"799 1538 OFFCURVE",
"800 1554 CURVE",
"800 1570 OFFCURVE",
"800 1583 OFFCURVE",
"800 1592 CURVE SMOOTH",
"800 1619 OFFCURVE",
"793 1651 OFFCURVE",
"778 1676 CURVE SMOOTH",
"762 1701 OFFCURVE",
"738 1720 OFFCURVE",
"702 1720 CURVE SMOOTH",
"296 1720 LINE SMOOTH",
"249 1720 OFFCURVE",
"226 1740 OFFCURVE",
"214 1764 CURVE SMOOTH",
"202 1788 OFFCURVE",
"200 1816 OFFCURVE",
"200 1829 CURVE",
"199 1836 OFFCURVE",
"204 1839 OFFCURVE",
"213 1838 CURVE SMOOTH",
"231 1836 OFFCURVE",
"263 1823 OFFCURVE",
"308 1807 CURVE SMOOTH",
"352 1790 OFFCURVE",
"411 1773 OFFCURVE",
"452 1771 CURVE SMOOTH",
"492 1769 OFFCURVE",
"523 1774 OFFCURVE",
"548 1783 CURVE",
"576 1798 OFFCURVE",
"602 1813 OFFCURVE",
"627 1826 CURVE SMOOTH",
"648 1837 OFFCURVE",
"669 1849 OFFCURVE",
"690 1861 CURVE",
"711 1872 OFFCURVE",
"727 1881 OFFCURVE",
"738 1886 CURVE",
"759 1898 OFFCURVE",
"775 1918 OFFCURVE",
"776 1938 CURVE SMOOTH",
"777 1958 OFFCURVE",
"764 1978 OFFCURVE",
"728 1987 CURVE SMOOTH",
"691 1996 OFFCURVE",
"658 2021 OFFCURVE",
"628 2045 CURVE SMOOTH",
"598 2069 OFFCURVE",
"570 2091 OFFCURVE",
"543 2092 CURVE SMOOTH",
"516 2093 OFFCURVE",
"505 2081 OFFCURVE",
"489 2061 CURVE SMOOTH",
"472 2041 OFFCURVE",
"448 2014 OFFCURVE",
"397 1987 CURVE SMOOTH",
"346 1959 OFFCURVE",
"290 1967 OFFCURVE",
"242 1985 CURVE SMOOTH",
"193 2003 OFFCURVE",
"151 2029 OFFCURVE",
"134 2044 CURVE",
"115 2057 OFFCURVE",
"94 2067 OFFCURVE",
"76 2064 CURVE SMOOTH",
"58 2061 OFFCURVE",
"45 2046 OFFCURVE",
"45 2011 CURVE SMOOTH",
"45 1436 LINE SMOOTH"
);
}
);
width = 821;
}
);
note = lamed;
unicode = 05DC;
},
{
glyphname = memfinal;
lastChange = "2017-07-29 05:17:02 +0000";
layers = (
{
layerId = "4658478A-2F1B-4277-A21C-C0C75B782ED1";
paths = (
{
closed = 1;
nodes = (
"749 1002 OFFCURVE",
"751 1165 OFFCURVE",
"753 1302 CURVE SMOOTH",
"755 1439 OFFCURVE",
"756 1551 OFFCURVE",
"756 1607 CURVE SMOOTH",
"756 1663 OFFCURVE",
"734 1692 OFFCURVE",
"706 1706 CURVE SMOOTH",
"678 1720 OFFCURVE",
"644 1720 OFFCURVE",
"623 1720 CURVE SMOOTH",
"615 1720 OFFCURVE",
"603 1720 OFFCURVE",
"586 1720 CURVE SMOOTH",
"552 1720 OFFCURVE",
"508 1719 OFFCURVE",
"467 1719 CURVE",
"446 1718 OFFCURVE",
"428 1718 OFFCURVE",
"412 1718 CURVE",
"407 1719 OFFCURVE",
"402 1720 OFFCURVE",
"397 1720 CURVE SMOOTH",
"232 1720 LINE SMOOTH",
"219 1720 OFFCURVE",
"208 1723 OFFCURVE",
"197 1730 CURVE SMOOTH",
"176 1743 OFFCURVE",
"158 1763 OFFCURVE",
"142 1782 CURVE SMOOTH",
"134 1791 OFFCURVE",
"127 1799 OFFCURVE",
"120 1805 CURVE",
"112 1809 LINE",
"107 1812 OFFCURVE",
"103 1813 OFFCURVE",
"96 1813 CURVE SMOOTH",
"89 1813 OFFCURVE",
"83 1811 OFFCURVE",
"76 1808 CURVE",
"64 1801 OFFCURVE",
"55 1789 OFFCURVE",
"55 1774 CURVE SMOOTH",
"55 1373 LINE SMOOTH",
"55 1353 OFFCURVE",
"71 1337 OFFCURVE",
"91 1337 CURVE SMOOTH",
"186 1337 LINE",
"181 1332 OFFCURVE",
"170 1322 OFFCURVE",
"155 1305 CURVE SMOOTH",
"139 1288 OFFCURVE",
"123 1264 OFFCURVE",
"106 1235 CURVE SMOOTH",
"73 1176 OFFCURVE",
"42 1093 OFFCURVE",
"42 982 CURVE SMOOTH",
"42 -3 LINE",
"742 -2 LINE",
"743 36 OFFCURVE",
"745 75 OFFCURVE",
"748 115 CURVE SMOOTH",
"753 183 OFFCURVE",
"761 268 OFFCURVE",
"780 343 CURVE",
"781 343 OFFCURVE",
"779 354 OFFCURVE",
"776 377 CURVE SMOOTH",
"773 399 OFFCURVE",
"769 431 OFFCURVE",
"765 474 CURVE SMOOTH",
"757 558 OFFCURVE",
"749 683 OFFCURVE",
"749 843 CURVE SMOOTH"
);
},
{
closed = 1;
nodes = (
"567 565 OFFCURVE",
"541 479 OFFCURVE",
"501 432 CURVE SMOOTH",
"461 385 OFFCURVE",
"405 379 OFFCURVE",
"345 383 CURVE",
"304 384 OFFCURVE",
"277 416 OFFCURVE",
"258 460 CURVE SMOOTH",
"239 504 OFFCURVE",
"229 562 OFFCURVE",
"225 618 CURVE SMOOTH",
"220 674 OFFCURVE",
"219 729 OFFCURVE",
"219 766 CURVE SMOOTH",
"220 809 OFFCURVE",
"221 851 OFFCURVE",
"222 892 CURVE SMOOTH",
"225 964 OFFCURVE",
"227 1051 OFFCURVE",
"234 1119 CURVE SMOOTH",
"247 1255 OFFCURVE",
"307 1337 OFFCURVE",
"411 1337 CURVE SMOOTH",
"515 1337 OFFCURVE",
"568 1261 OFFCURVE",
"568 1084 CURVE SMOOTH",
"568 1055 OFFCURVE",
"568 1033 OFFCURVE",
"568 1018 CURVE SMOOTH",
"568 1003 OFFCURVE",
"568 991 OFFCURVE",
"569 982 CURVE",
"569 973 OFFCURVE",
"569 964 OFFCURVE",
"569 956 CURVE SMOOTH",
"569 947 OFFCURVE",
"569 935 OFFCURVE",
"569 918 CURVE SMOOTH",
"569 901 OFFCURVE",
"569 878 OFFCURVE",
"569 848 CURVE SMOOTH",
"568 818 OFFCURVE",
"568 777 OFFCURVE",
"568 724 CURVE SMOOTH"
);
}
);
width = 816;
}
);
note = memfinal;
unicode = 05DD;
},
{
glyphname = mem;
lastChange = "2017-07-29 05:17:02 +0000";
layers = (
{
layerId = "4658478A-2F1B-4277-A21C-C0C75B782ED1";
paths = (
{
closed = 1;
nodes = (
"857 380 OFFCURVE",
"848 441 OFFCURVE",
"844 515 CURVE SMOOTH",
"839 589 OFFCURVE",
"837 675 OFFCURVE",
"837 760 CURVE SMOOTH",
"837 802 OFFCURVE",
"837 843 OFFCURVE",
"838 883 CURVE SMOOTH",
"839 963 OFFCURVE",
"841 1029 OFFCURVE",
"842 1074 CURVE SMOOTH",
"843 1097 OFFCURVE",
"843 1112 OFFCURVE",
"842 1120 CURVE",
"841 1136 OFFCURVE",
"841 1158 OFFCURVE",
"841 1185 CURVE SMOOTH",
"841 1212 OFFCURVE",
"841 1242 OFFCURVE",
"841 1276 CURVE SMOOTH",
"841 1310 OFFCURVE",
"841 1346 OFFCURVE",
"842 1385 CURVE SMOOTH",
"842 1424 OFFCURVE",
"842 1462 OFFCURVE",
"842 1501 CURVE SMOOTH",
"842 1540 OFFCURVE",
"839 1573 OFFCURVE",
"833 1600 CURVE SMOOTH",
"820 1655 OFFCURVE",
"805 1692 OFFCURVE",
"782 1720 CURVE",
"518 1720 LINE",
"514 1710 OFFCURVE",
"507 1698 OFFCURVE",
"498 1684 CURVE SMOOTH",
"479 1655 OFFCURVE",
"457 1622 OFFCURVE",
"434 1589 CURVE SMOOTH",
"422 1572 OFFCURVE",
"412 1557 OFFCURVE",
"404 1543 CURVE",
"404 1648 LINE SMOOTH",
"404 1688 OFFCURVE",
"372 1720 OFFCURVE",
"332 1720 CURVE SMOOTH",
"221 1720 LINE SMOOTH",
"208 1720 OFFCURVE",
"197 1723 OFFCURVE",
"187 1730 CURVE",
"166 1743 OFFCURVE",
"148 1763 OFFCURVE",
"132 1782 CURVE SMOOTH",
"124 1791 OFFCURVE",
"116 1799 OFFCURVE",
"109 1805 CURVE",
"107 1806 OFFCURVE",
"105 1808 OFFCURVE",
"102 1809 CURVE",
"97 1812 OFFCURVE",
"91 1813 OFFCURVE",
"86 1813 CURVE SMOOTH",
"78 1813 OFFCURVE",
"72 1811 OFFCURVE",
"65 1808 CURVE",
"53 1801 OFFCURVE",
"44 1789 OFFCURVE",
"44 1774 CURVE SMOOTH",
"44 1373 LINE SMOOTH",
"44 1353 OFFCURVE",
"60 1337 OFFCURVE",
"80 1337 CURVE SMOOTH",
"300 1337 LINE",
"299 1336 OFFCURVE",
"299 1336 OFFCURVE",
"299 1335 CURVE SMOOTH",
"299 1334 LINE",
"239 1307 OFFCURVE",
"196 1236 OFFCURVE",
"164 1143 CURVE SMOOTH",
"132 1050 OFFCURVE",
"113 936 OFFCURVE",
"101 825 CURVE SMOOTH",
"87 695 OFFCURVE",
"81 551 OFFCURVE",
"83 394 CURVE SMOOTH",
"83 -2 LINE",
"210 -2 LINE",
"209 7 OFFCURVE",
"210 19 OFFCURVE",
"212 36 CURVE SMOOTH",
"216 68 OFFCURVE",
"223 110 OFFCURVE",
"232 155 CURVE SMOOTH",
"237 178 OFFCURVE",
"241 200 OFFCURVE",
"246 223 CURVE SMOOTH",
"257 276 OFFCURVE",
"270 333 OFFCURVE",
"285 394 CURVE",
"274 513 OFFCURVE",
"268 615 OFFCURVE",
"268 699 CURVE SMOOTH",
"268 867 OFFCURVE",
"284 987 OFFCURVE",
"310 1076 CURVE SMOOTH",
"336 1165 OFFCURVE",
"363 1256 OFFCURVE",
"404 1292 CURVE SMOOTH",
"444 1328 OFFCURVE",
"487 1329 OFFCURVE",
"531 1305 CURVE SMOOTH",
"574 1280 OFFCURVE",
"604 1251 OFFCURVE",
"621 1183 CURVE SMOOTH",
"637 1115 OFFCURVE",
"648 1023 OFFCURVE",
"653 923 CURVE SMOOTH",
"658 823 OFFCURVE",
"661 731 OFFCURVE",
"661 660 CURVE SMOOTH",
"661 624 OFFCURVE",
"661 598 OFFCURVE",
"661 583 CURVE SMOOTH",
"661 535 OFFCURVE",
"651 489 OFFCURVE",
"633 454 CURVE SMOOTH",
"615 419 OFFCURVE",
"589 397 OFFCURVE",
"561 397 CURVE SMOOTH",
"532 397 OFFCURVE",
"502 396 OFFCURVE",
"479 395 CURVE SMOOTH",
"466 394 OFFCURVE",
"453 394 OFFCURVE",
"440 394 CURVE SMOOTH",
"379 394 LINE SMOOTH",
"356 394 OFFCURVE",
"356 382 OFFCURVE",
"356 361 CURVE SMOOTH",
"356 358 LINE SMOOTH",
"356 226 OFFCURVE",
"331 111 OFFCURVE",
"291 28 CURVE",
"288 21 OFFCURVE",
"285 15 OFFCURVE",
"285 9 CURVE SMOOTH",
"285 3 OFFCURVE",
"288 -2 OFFCURVE",
"299 -2 CURVE SMOOTH",
"686 -2 LINE",
"687 -3 LINE",
"749 -3 LINE SMOOTH",
"764 -3 OFFCURVE",
"779 -3 OFFCURVE",
"792 -2 CURVE",
"805 -2 OFFCURVE",
"813 -2 OFFCURVE",
"814 -2 CURVE",
"813 11 OFFCURVE",
"813 29 OFFCURVE",
"815 51 CURVE SMOOTH",
"819 95 OFFCURVE",
"828 148 OFFCURVE",
"838 201 CURVE SMOOTH",
"848 254 OFFCURVE",
"857 298 OFFCURVE",
"864 326 CURVE SMOOTH",
"867 339 OFFCURVE",
"869 346 OFFCURVE",
"870 347 CURVE"
);
}
);
width = 933;
}
);
note = mem;
unicode = 05DE;
},
{
glyphname = nunfinal;
lastChange = "2017-07-29 05:17:02 +0000";
layers = (
{
layerId = "4658478A-2F1B-4277-A21C-C0C75B782ED1";
paths = (
{
closed = 1;
nodes = (
"230 1720 LINE SMOOTH",
"217 1720 OFFCURVE",
"206 1723 OFFCURVE",
"196 1730 CURVE",
"175 1743 OFFCURVE",
"157 1763 OFFCURVE",
"141 1782 CURVE SMOOTH",
"133 1791 OFFCURVE",
"125 1799 OFFCURVE",
"118 1805 CURVE",
"110 1809 LINE",
"105 1812 OFFCURVE",
"101 1813 OFFCURVE",
"94 1813 CURVE SMOOTH",
"89 1813 OFFCURVE",
"82 1811 OFFCURVE",
"74 1808 CURVE",
"62 1801 OFFCURVE",
"53 1789 OFFCURVE",
"53 1774 CURVE SMOOTH",
"53 1373 LINE SMOOTH",
"53 1353 OFFCURVE",
"69 1337 OFFCURVE",
"89 1337 CURVE SMOOTH",
"233 1337 LINE",
"248 1335 OFFCURVE",
"253 1326 OFFCURVE",
"249 1311 CURVE",
"244 1296 OFFCURVE",
"233 1275 OFFCURVE",
"214 1249 CURVE SMOOTH",
"201 1230 OFFCURVE",
"175 1194 OFFCURVE",
"149 1136 CURVE SMOOTH",
"123 1078 OFFCURVE",
"97 999 OFFCURVE",
"82 896 CURVE SMOOTH",
"67 792 OFFCURVE",
"65 664 OFFCURVE",
"86 511 CURVE SMOOTH",
"118 280 OFFCURVE",
"122 103 OFFCURVE",
"102 -33 CURVE SMOOTH",
"81 -169 OFFCURVE",
"37 -265 OFFCURVE",
"-27 -333 CURVE",
"-27 -334 OFFCURVE",
"-22 -339 OFFCURVE",
"-12 -346 CURVE",
"7 -361 OFFCURVE",
"32 -378 OFFCURVE",
"68 -401 CURVE",
"106 -343 OFFCURVE",
"143 -289 OFFCURVE",
"180 -239 CURVE SMOOTH",
"211 -196 OFFCURVE",
"244 -152 OFFCURVE",
"276 -114 CURVE SMOOTH",
"307 -76 OFFCURVE",
"335 -46 OFFCURVE",
"358 -30 CURVE",
"340 32 OFFCURVE",
"324 96 OFFCURVE",
"310 162 CURVE SMOOTH",
"298 218 OFFCURVE",
"285 283 OFFCURVE",
"277 349 CURVE SMOOTH",
"268 415 OFFCURVE",
"261 483 OFFCURVE",
"261 547 CURVE",
"260 611 OFFCURVE",
"259 675 OFFCURVE",
"256 738 CURVE SMOOTH",
"253 801 OFFCURVE",
"253 864 OFFCURVE",
"258 925 CURVE SMOOTH",
"267 1047 OFFCURVE",
"296 1162 OFFCURVE",
"373 1269 CURVE",
"378 1274 OFFCURVE",
"383 1280 OFFCURVE",
"388 1287 CURVE",
"398 1300 OFFCURVE",
"407 1319 OFFCURVE",
"416 1343 CURVE",
"425 1370 OFFCURVE",
"432 1403 OFFCURVE",
"432 1444 CURVE SMOOTH",
"432 1488 LINE",
"432 1648 LINE SMOOTH",
"432 1688 OFFCURVE",
"400 1720 OFFCURVE",
"360 1720 CURVE SMOOTH"
);
}
);
width = 484;
}
);
note = nunfinal;
unicode = 05DF;
},
{
glyphname = nun;
lastChange = "2017-07-29 05:17:02 +0000";
layers = (
{
layerId = "4658478A-2F1B-4277-A21C-C0C75B782ED1";
paths = (
{
closed = 1;
nodes = (
"642 352 OFFCURVE",
"641 365 OFFCURVE",
"638 390 CURVE SMOOTH",
"635 415 OFFCURVE",
"632 450 OFFCURVE",
"628 493 CURVE SMOOTH",
"619 579 OFFCURVE",
"609 695 OFFCURVE",
"601 822 CURVE SMOOTH",
"592 949 OFFCURVE",
"586 1084 OFFCURVE",
"586 1204 CURVE SMOOTH",
"586 1324 OFFCURVE",
"592 1431 OFFCURVE",
"608 1499 CURVE SMOOTH",
"616 1536 OFFCURVE",
"617 1587 OFFCURVE",
"602 1631 CURVE SMOOTH",
"586 1674 OFFCURVE",
"555 1710 OFFCURVE",
"502 1718 CURVE SMOOTH",
"495 1719 OFFCURVE",
"490 1720 OFFCURVE",
"486 1720 CURVE SMOOTH",
"391 1720 LINE SMOOTH",
"378 1720 OFFCURVE",
"367 1723 OFFCURVE",
"357 1730 CURVE",
"336 1743 OFFCURVE",
"318 1763 OFFCURVE",
"302 1782 CURVE SMOOTH",
"294 1791 OFFCURVE",
"286 1799 OFFCURVE",
"279 1805 CURVE",
"271 1809 LINE",
"266 1812 OFFCURVE",
"262 1813 OFFCURVE",
"255 1813 CURVE SMOOTH",
"250 1813 OFFCURVE",
"243 1811 OFFCURVE",
"235 1808 CURVE",
"223 1801 OFFCURVE",
"214 1789 OFFCURVE",
"214 1774 CURVE SMOOTH",
"214 1373 LINE SMOOTH",
"214 1353 OFFCURVE",
"230 1337 OFFCURVE",
"250 1337 CURVE SMOOTH",
"355 1337 LINE SMOOTH",
"370 1337 OFFCURVE",
"384 1336 OFFCURVE",
"396 1334 CURVE SMOOTH",
"420 1330 OFFCURVE",
"436 1308 OFFCURVE",
"442 1259 CURVE SMOOTH",
"445 1234 OFFCURVE",
"445 1199 OFFCURVE",
"443 1154 CURVE SMOOTH",
"442 1124 OFFCURVE",
"440 1089 OFFCURVE",
"439 1049 CURVE SMOOTH",
"435 969 OFFCURVE",
"430 881 OFFCURVE",
"425 794 CURVE SMOOTH",
"420 706 OFFCURVE",
"415 629 OFFCURVE",
"409 572 CURVE SMOOTH",
"403 515 OFFCURVE",
"396 492 OFFCURVE",
"391 467 CURVE SMOOTH",
"388 454 OFFCURVE",
"385 443 OFFCURVE",
"381 434 CURVE",
"373 414 OFFCURVE",
"361 401 OFFCURVE",
"341 394 CURVE",
"96 394 LINE SMOOTH",
"73 394 OFFCURVE",
"74 382 OFFCURVE",
"74 361 CURVE SMOOTH",
"74 358 LINE",
"45 221 OFFCURVE",
"-10 117 OFFCURVE",
"-61 28 CURVE",
"-62 25 OFFCURVE",
"-64 21 OFFCURVE",
"-65 18 CURVE",
"-67 15 OFFCURVE",
"-68 12 OFFCURVE",
"-68 9 CURVE SMOOTH",
"-68 3 OFFCURVE",
"-65 -2 OFFCURVE",
"-54 -2 CURVE SMOOTH",
"355 -2 LINE",
"355 1 LINE",
"552 1 LINE",
"562 57 OFFCURVE",
"572 109 OFFCURVE",
"583 156 CURVE SMOOTH",
"592 196 OFFCURVE",
"603 239 OFFCURVE",
"613 275 CURVE SMOOTH",
"623 310 OFFCURVE",
"633 338 OFFCURVE",
"642 353 CURVE"
);
}
);
width = 657;
}
);
note = nun;
unicode = 05E0;
},
{
glyphname = samekh;
lastChange = "2017-07-29 05:17:02 +0000";
layers = (
{
layerId = "4658478A-2F1B-4277-A21C-C0C75B782ED1";
paths = (
{
closed = 1;
nodes = (
"782 1497 OFFCURVE",
"769 1576 OFFCURVE",
"753 1628 CURVE SMOOTH",
"736 1679 OFFCURVE",
"714 1701 OFFCURVE",
"691 1710 CURVE",
"680 1717 OFFCURVE",
"668 1720 OFFCURVE",
"655 1720 CURVE SMOOTH",
"280 1720 LINE SMOOTH",
"267 1720 OFFCURVE",
"256 1723 OFFCURVE",
"245 1730 CURVE SMOOTH",
"224 1743 OFFCURVE",
"206 1763 OFFCURVE",
"190 1782 CURVE SMOOTH",
"182 1791 OFFCURVE",
"175 1799 OFFCURVE",
"168 1805 CURVE",
"160 1809 LINE",
"155 1812 OFFCURVE",
"151 1813 OFFCURVE",
"144 1813 CURVE SMOOTH",
"137 1813 OFFCURVE",
"131 1811 OFFCURVE",
"124 1808 CURVE",
"112 1801 OFFCURVE",
"103 1789 OFFCURVE",
"103 1774 CURVE SMOOTH",
"103 1373 LINE SMOOTH",
"103 1353 OFFCURVE",
"119 1337 OFFCURVE",
"139 1337 CURVE SMOOTH",
"253 1337 LINE",
"250 1334 LINE",
"182 1278 OFFCURVE",
"135 1181 OFFCURVE",
"107 1070 CURVE SMOOTH",
"78 958 OFFCURVE",
"66 831 OFFCURVE",
"67 716 CURVE SMOOTH",
"67 600 OFFCURVE",
"80 497 OFFCURVE",
"103 430 CURVE SMOOTH",
"119 379 OFFCURVE",
"130 329 OFFCURVE",
"137 278 CURVE SMOOTH",
"150 176 OFFCURVE",
"154 88 OFFCURVE",
"147 -3 CURVE",
"241 -2 OFFCURVE",
"326 -2 OFFCURVE",
"401 -2 CURVE SMOOTH",
"433 -2 OFFCURVE",
"464 -2 OFFCURVE",
"495 -2 CURVE SMOOTH",
"526 -2 OFFCURVE",
"553 -2 OFFCURVE",
"578 -2 CURVE SMOOTH",
"602 -2 OFFCURVE",
"622 -2 OFFCURVE",
"637 -1 CURVE",
"652 -1 OFFCURVE",
"661 -1 OFFCURVE",
"662 -1 CURVE",
"663 11 OFFCURVE",
"673 41 OFFCURVE",
"687 79 CURVE SMOOTH",
"701 117 OFFCURVE",
"718 163 OFFCURVE",
"735 208 CURVE SMOOTH",
"756 261 OFFCURVE",
"779 319 OFFCURVE",
"804 382 CURVE",
"803 498 OFFCURVE",
"801 614 OFFCURVE",
"799 731 CURVE SMOOTH",
"798 781 OFFCURVE",
"798 833 OFFCURVE",
"797 888 CURVE SMOOTH",
"796 943 OFFCURVE",
"795 998 OFFCURVE",
"794 1054 CURVE SMOOTH",
"792 1165 OFFCURVE",
"789 1276 OFFCURVE",
"786 1373 CURVE SMOOTH"
);
},
{
closed = 1;
nodes = (
"608 569 OFFCURVE",
"583 486 OFFCURVE",
"543 442 CURVE SMOOTH",
"502 397 OFFCURVE",
"447 391 OFFCURVE",
"386 394 CURVE SMOOTH",
"346 395 OFFCURVE",
"319 425 OFFCURVE",
"300 468 CURVE SMOOTH",
"281 511 OFFCURVE",
"271 566 OFFCURVE",
"266 619 CURVE SMOOTH",
"261 672 OFFCURVE",
"260 725 OFFCURVE",
"260 761 CURVE SMOOTH",
"261 801 OFFCURVE",
"262 841 OFFCURVE",
"263 882 CURVE SMOOTH",
"266 951 OFFCURVE",
"269 1036 OFFCURVE",
"276 1101 CURVE SMOOTH",
"289 1232 OFFCURVE",
"349 1310 OFFCURVE",
"453 1310 CURVE SMOOTH",
"557 1310 OFFCURVE",
"609 1238 OFFCURVE",
"609 1067 CURVE SMOOTH",
"609 1038 OFFCURVE",
"609 1017 OFFCURVE",
"609 1003 CURVE SMOOTH",
"609 989 OFFCURVE",
"609 978 OFFCURVE",
"610 969 CURVE",
"610 960 OFFCURVE",
"610 952 OFFCURVE",
"610 944 CURVE SMOOTH",
"610 936 OFFCURVE",
"610 924 OFFCURVE",
"610 908 CURVE SMOOTH",
"610 892 OFFCURVE",
"610 870 OFFCURVE",
"610 841 CURVE SMOOTH",
"610 812 OFFCURVE",
"610 772 OFFCURVE",
"609 721 CURVE SMOOTH"
);
}
);
width = 862;
}
);
note = samekh;
unicode = 05E1;
},
{
glyphname = ayin;
lastChange = "2017-07-29 05:17:02 +0000";
layers = (
{
layerId = "4658478A-2F1B-4277-A21C-C0C75B782ED1";
paths = (
{
closed = 1;
nodes = (
"672 1718 LINE SMOOTH",
"659 1718 OFFCURVE",
"648 1721 OFFCURVE",
"637 1728 CURVE SMOOTH",
"616 1741 OFFCURVE",
"598 1761 OFFCURVE",
"582 1780 CURVE SMOOTH",
"574 1789 OFFCURVE",
"566 1797 OFFCURVE",
"559 1803 CURVE",
"557 1804 OFFCURVE",
"555 1806 OFFCURVE",
"552 1807 CURVE",
"547 1810 OFFCURVE",
"541 1811 OFFCURVE",
"536 1811 CURVE SMOOTH",
"529 1811 OFFCURVE",
"523 1809 OFFCURVE",
"516 1806 CURVE",
"504 1799 OFFCURVE",
"495 1786 OFFCURVE",
"495 1771 CURVE SMOOTH",
"495 1371 LINE SMOOTH",
"495 1351 OFFCURVE",
"511 1335 OFFCURVE",
"531 1335 CURVE SMOOTH",
"718 1335 LINE",
"683 1283 OFFCURVE",
"632 1190 OFFCURVE",
"587 1079 CURVE SMOOTH",
"542 968 OFFCURVE",
"504 838 OFFCURVE",
"495 714 CURVE SMOOTH",
"488 621 OFFCURVE",
"478 546 OFFCURVE",
"466 490 CURVE SMOOTH",
"454 434 OFFCURVE",
"441 401 OFFCURVE",
"427 392 CURVE",
"412 392 LINE",
"405 397 OFFCURVE",
"397 409 OFFCURVE",
"390 430 CURVE",
"386 466 OFFCURVE",
"389 519 OFFCURVE",
"395 571 CURVE SMOOTH",
"401 623 OFFCURVE",
"411 672 OFFCURVE",
"423 699 CURVE",
"424 700 OFFCURVE",
"422 708 OFFCURVE",
"415 722 CURVE SMOOTH",
"408 735 OFFCURVE",
"399 752 OFFCURVE",
"390 772 CURVE SMOOTH",
"371 811 OFFCURVE",
"350 857 OFFCURVE",
"346 893 CURVE SMOOTH",
"345 905 OFFCURVE",
"342 922 OFFCURVE",
"338 945 CURVE",
"333 968 OFFCURVE",
"329 993 OFFCURVE",
"326 1022 CURVE SMOOTH",
"319 1078 OFFCURVE",
"318 1143 OFFCURVE",
"334 1201 CURVE SMOOTH",
"349 1259 OFFCURVE",
"382 1308 OFFCURVE",
"443 1335 CURVE",
"407 1335 LINE",
"427 1335 OFFCURVE",
"443 1351 OFFCURVE",
"443 1371 CURVE SMOOTH",
"443 1486 LINE",
"443 1646 LINE SMOOTH",
"443 1686 OFFCURVE",
"411 1718 OFFCURVE",
"371 1718 CURVE SMOOTH",
"256 1718 LINE SMOOTH",
"243 1718 OFFCURVE",
"232 1721 OFFCURVE",
"221 1728 CURVE SMOOTH",
"200 1741 OFFCURVE",
"182 1761 OFFCURVE",
"167 1780 CURVE",
"159 1789 OFFCURVE",
"151 1797 OFFCURVE",
"144 1803 CURVE",
"142 1804 OFFCURVE",
"140 1806 OFFCURVE",
"137 1807 CURVE",
"132 1810 OFFCURVE",
"126 1811 OFFCURVE",
"121 1811 CURVE SMOOTH",
"115 1811 OFFCURVE",
"108 1809 OFFCURVE",
"100 1806 CURVE",
"88 1799 OFFCURVE",
"79 1786 OFFCURVE",
"79 1771 CURVE SMOOTH",
"79 1371 LINE SMOOTH",
"79 1351 OFFCURVE",
"96 1335 OFFCURVE",
"115 1335 CURVE SMOOTH",
"261 1335 LINE",
"222 1271 OFFCURVE",
"193 1204 OFFCURVE",
"172 1133 CURVE SMOOTH",
"155 1073 OFFCURVE",
"142 1002 OFFCURVE",
"144 926 CURVE SMOOTH",
"146 850 OFFCURVE",
"160 770 OFFCURVE",
"199 690 CURVE SMOOTH",
"228 627 OFFCURVE",
"244 571 OFFCURVE",
"250 522 CURVE SMOOTH",
"256 473 OFFCURVE",
"252 429 OFFCURVE",
"243 392 CURVE",
"114 392 LINE SMOOTH",
"91 392 OFFCURVE",
"91 379 OFFCURVE",
"91 360 CURVE SMOOTH",
"91 356 LINE SMOOTH",
"91 224 OFFCURVE",
"66 109 OFFCURVE",
"27 25 CURVE",
"26 22 OFFCURVE",
"24 19 OFFCURVE",
"23 16 CURVE",
"21 13 OFFCURVE",
"20 10 OFFCURVE",
"20 7 CURVE SMOOTH",
"20 1 OFFCURVE",
"23 -3 OFFCURVE",
"34 -3 CURVE SMOOTH",
"443 -3 LINE",
"602 -3 LINE",
"607 41 OFFCURVE",
"614 84 OFFCURVE",
"623 127 CURVE SMOOTH",
"638 200 OFFCURVE",
"662 287 OFFCURVE",
"699 348 CURVE",
"700 349 OFFCURVE",
"698 358 OFFCURVE",
"694 376 CURVE",
"689 394 OFFCURVE",
"684 418 OFFCURVE",
"677 447 CURVE SMOOTH",
"664 505 OFFCURVE",
"650 582 OFFCURVE",
"644 661 CURVE SMOOTH",
"638 740 OFFCURVE",
"640 822 OFFCURVE",
"664 887 CURVE SMOOTH",
"700 986 OFFCURVE",
"748 1088 OFFCURVE",
"788 1176 CURVE SMOOTH",
"828 1263 OFFCURVE",
"859 1335 OFFCURVE",
"859 1371 CURVE SMOOTH",
"859 1486 LINE",
"859 1646 LINE SMOOTH",
"859 1686 OFFCURVE",
"826 1718 OFFCURVE",
"787 1718 CURVE SMOOTH"
);
}
);
width = 911;
}
);
note = ayin;
unicode = 05E2;
},
{
glyphname = pefinal;
lastChange = "2017-07-29 05:17:02 +0000";
layers = (
{
layerId = "4658478A-2F1B-4277-A21C-C0C75B782ED1";
paths = (
{
closed = 1;
nodes = (
"825 910 LINE",
"823 953 OFFCURVE",
"821 999 OFFCURVE",
"820 1046 CURVE SMOOTH",
"817 1141 OFFCURVE",
"815 1235 OFFCURVE",
"812 1322 CURVE SMOOTH",
"811 1365 OFFCURVE",
"810 1404 OFFCURVE",
"809 1439 CURVE SMOOTH",
"808 1474 OFFCURVE",
"806 1503 OFFCURVE",
"805 1527 CURVE SMOOTH",
"804 1550 OFFCURVE",
"803 1566 OFFCURVE",
"802 1574 CURVE SMOOTH",
"798 1606 OFFCURVE",
"792 1639 OFFCURVE",
"780 1666 CURVE SMOOTH",
"768 1693 OFFCURVE",
"748 1712 OFFCURVE",
"713 1715 CURVE",
"705 1718 OFFCURVE",
"697 1719 OFFCURVE",
"689 1719 CURVE SMOOTH",
"276 1719 LINE SMOOTH",
"263 1719 OFFCURVE",
"252 1722 OFFCURVE",
"241 1729 CURVE SMOOTH",
"220 1742 OFFCURVE",
"202 1762 OFFCURVE",
"187 1781 CURVE",
"179 1790 OFFCURVE",
"171 1798 OFFCURVE",
"164 1804 CURVE",
"156 1808 LINE",
"151 1811 OFFCURVE",
"147 1812 OFFCURVE",
"140 1812 CURVE SMOOTH",
"135 1812 OFFCURVE",
"128 1810 OFFCURVE",
"120 1807 CURVE",
"106 1800 OFFCURVE",
"99 1788 OFFCURVE",
"99 1772 CURVE SMOOTH",
"99 1372 LINE SMOOTH",
"99 1352 OFFCURVE",
"115 1336 OFFCURVE",
"135 1336 CURVE SMOOTH",
"226 1336 LINE",
"197 1316 OFFCURVE",
"170 1293 OFFCURVE",
"149 1250 CURVE SMOOTH",
"128 1207 OFFCURVE",
"110 1145 OFFCURVE",
"99 1048 CURVE SMOOTH",
"88 948 OFFCURVE",
"77 846 OFFCURVE",
"74 766 CURVE",
"74 754 OFFCURVE",
"71 733 OFFCURVE",
"62 721 CURVE",
"51 711 OFFCURVE",
"45 698 OFFCURVE",
"45 683 CURVE SMOOTH",
"45 654 OFFCURVE",
"67 631 OFFCURVE",
"98 631 CURVE SMOOTH",
"108 631 OFFCURVE",
"117 633 OFFCURVE",
"124 638 CURVE",
"136 644 OFFCURVE",
"150 653 OFFCURVE",
"167 664 CURVE SMOOTH",
"184 675 OFFCURVE",
"203 685 OFFCURVE",
"225 695 CURVE SMOOTH",
"268 715 OFFCURVE",
"321 731 OFFCURVE",
"386 723 CURVE",
"385 724 OFFCURVE",
"385 730 OFFCURVE",
"385 743 CURVE SMOOTH",
"385 755 OFFCURVE",
"385 771 OFFCURVE",
"386 791 CURVE",
"386 830 OFFCURVE",
"389 883 OFFCURVE",
"397 936 CURVE SMOOTH",
"404 988 OFFCURVE",
"414 1040 OFFCURVE",
"430 1080 CURVE",
"431 1079 OFFCURVE",
"423 1080 OFFCURVE",
"408 1082 CURVE SMOOTH",
"392 1084 OFFCURVE",
"375 1089 OFFCURVE",
"356 1097 CURVE SMOOTH",
"318 1113 OFFCURVE",
"280 1143 OFFCURVE",
"283 1195 CURVE SMOOTH",
"287 1263 OFFCURVE",
"319 1297 OFFCURVE",
"363 1316 CURVE SMOOTH",
"406 1335 OFFCURVE",
"460 1336 OFFCURVE",
"507 1336 CURVE SMOOTH",
"554 1336 OFFCURVE",
"595 1312 OFFCURVE",
"624 1258 CURVE SMOOTH",
"652 1204 OFFCURVE",
"667 1118 OFFCURVE",
"663 997 CURVE SMOOTH",
"663 974 OFFCURVE",
"664 934 OFFCURVE",
"665 877 CURVE SMOOTH",
"666 819 OFFCURVE",
"666 750 OFFCURVE",
"663 671 CURVE SMOOTH",
"658 512 OFFCURVE",
"642 320 OFFCURVE",
"598 133 CURVE SMOOTH",
"553 -54 OFFCURVE",
"479 -233 OFFCURVE",
"362 -362 CURVE",
"363 -365 OFFCURVE",
"370 -369 OFFCURVE",
"381 -376 CURVE SMOOTH",
"403 -390 OFFCURVE",
"431 -408 OFFCURVE",
"468 -429 CURVE",
"509 -374 OFFCURVE",
"551 -323 OFFCURVE",
"594 -276 CURVE SMOOTH",
"630 -236 OFFCURVE",
"672 -192 OFFCURVE",
"714 -155 CURVE SMOOTH",
"756 -118 OFFCURVE",
"797 -86 OFFCURVE",
"837 -67 CURVE",
"837 -66 OFFCURVE",
"837 -55 OFFCURVE",
"837 -34 CURVE",
"836 7 OFFCURVE",
"835 78 OFFCURVE",
"835 171 CURVE",
"834 217 OFFCURVE",
"834 266 OFFCURVE",
"833 318 CURVE SMOOTH",
"832 369 OFFCURVE",
"832 423 OFFCURVE",
"832 478 CURVE",
"831 533 OFFCURVE",
"831 586 OFFCURVE",
"830 638 CURVE SMOOTH",
"829 690 OFFCURVE",
"828 739 OFFCURVE",
"827 786 CURVE SMOOTH",
"826 833 OFFCURVE",
"825 874 OFFCURVE",
"824 910 CURVE"
);
}
);
width = 866;
}
);
note = pefinal;
unicode = 05E3;
},
{
glyphname = pe;
lastChange = "2017-07-29 05:17:02 +0000";
layers = (
{
layerId = "4658478A-2F1B-4277-A21C-C0C75B782ED1";
paths = (
{
closed = 1;
nodes = (
"877 671 OFFCURVE",
"877 693 OFFCURVE",
"876 724 CURVE SMOOTH",
"874 787 OFFCURVE",
"870 875 OFFCURVE",
"866 977 CURVE SMOOTH",
"862 1079 OFFCURVE",
"857 1184 OFFCURVE",
"853 1284 CURVE SMOOTH",
"848 1383 OFFCURVE",
"843 1465 OFFCURVE",
"840 1521 CURVE SMOOTH",
"838 1548 OFFCURVE",
"836 1566 OFFCURVE",
"835 1574 CURVE SMOOTH",
"831 1606 OFFCURVE",
"825 1639 OFFCURVE",
"813 1666 CURVE SMOOTH",
"801 1693 OFFCURVE",
"781 1712 OFFCURVE",
"746 1715 CURVE",
"739 1718 OFFCURVE",
"731 1719 OFFCURVE",
"722 1719 CURVE SMOOTH",
"309 1719 LINE SMOOTH",
"296 1719 OFFCURVE",
"285 1722 OFFCURVE",
"275 1729 CURVE",
"254 1742 OFFCURVE",
"236 1762 OFFCURVE",
"220 1781 CURVE SMOOTH",
"212 1790 OFFCURVE",
"204 1798 OFFCURVE",
"197 1804 CURVE",
"189 1808 LINE",
"184 1811 OFFCURVE",
"180 1812 OFFCURVE",
"173 1812 CURVE SMOOTH",
"167 1812 OFFCURVE",
"161 1810 OFFCURVE",
"154 1807 CURVE",
"140 1800 OFFCURVE",
"133 1788 OFFCURVE",
"133 1772 CURVE SMOOTH",
"133 1372 LINE SMOOTH",
"133 1352 OFFCURVE",
"149 1336 OFFCURVE",
"169 1336 CURVE SMOOTH",
"259 1336 LINE",
"231 1316 OFFCURVE",
"204 1293 OFFCURVE",
"183 1250 CURVE SMOOTH",
"162 1207 OFFCURVE",
"144 1145 OFFCURVE",
"133 1048 CURVE SMOOTH",
"121 948 OFFCURVE",
"111 846 OFFCURVE",
"108 766 CURVE",
"108 754 OFFCURVE",
"104 733 OFFCURVE",
"95 721 CURVE",
"84 712 OFFCURVE",
"79 699 OFFCURVE",
"79 683 CURVE SMOOTH",
"79 654 OFFCURVE",
"102 631 OFFCURVE",
"131 631 CURVE SMOOTH",
"142 631 OFFCURVE",
"151 633 OFFCURVE",
"158 638 CURVE",
"170 644 OFFCURVE",
"184 653 OFFCURVE",
"201 664 CURVE SMOOTH",
"217 675 OFFCURVE",
"236 685 OFFCURVE",
"258 695 CURVE SMOOTH",
"301 715 OFFCURVE",
"354 731 OFFCURVE",
"419 723 CURVE",
"418 724 OFFCURVE",
"418 730 OFFCURVE",
"418 743 CURVE SMOOTH",
"418 755 OFFCURVE",
"418 771 OFFCURVE",
"419 791 CURVE SMOOTH",
"420 830 OFFCURVE",
"423 883 OFFCURVE",
"430 936 CURVE SMOOTH",
"437 988 OFFCURVE",
"447 1040 OFFCURVE",
"463 1080 CURVE",
"464 1079 OFFCURVE",
"456 1080 OFFCURVE",
"441 1082 CURVE SMOOTH",
"426 1084 OFFCURVE",
"409 1089 OFFCURVE",
"390 1097 CURVE SMOOTH",
"352 1113 OFFCURVE",
"314 1143 OFFCURVE",
"317 1195 CURVE SMOOTH",
"321 1263 OFFCURVE",
"353 1297 OFFCURVE",
"397 1316 CURVE SMOOTH",
"440 1335 OFFCURVE",
"494 1336 OFFCURVE",
"541 1336 CURVE SMOOTH",
"590 1336 OFFCURVE",
"634 1309 OFFCURVE",
"663 1247 CURVE SMOOTH",
"691 1185 OFFCURVE",
"705 1089 OFFCURVE",
"694 950 CURVE SMOOTH",
"691 904 OFFCURVE",
"688 858 OFFCURVE",
"685 813 CURVE SMOOTH",
"682 767 OFFCURVE",
"679 724 OFFCURVE",
"674 683 CURVE SMOOTH",
"665 601 OFFCURVE",
"648 528 OFFCURVE",
"617 476 CURVE SMOOTH",
"585 424 OFFCURVE",
"536 393 OFFCURVE",
"463 393 CURVE SMOOTH",
"134 393 LINE SMOOTH",
"111 393 OFFCURVE",
"111 380 OFFCURVE",
"112 361 CURVE",
"112 357 LINE SMOOTH",
"112 225 OFFCURVE",
"86 110 OFFCURVE",
"47 26 CURVE",
"46 23 OFFCURVE",
"44 20 OFFCURVE",
"43 17 CURVE",
"41 14 OFFCURVE",
"40 11 OFFCURVE",
"40 8 CURVE SMOOTH",
"40 2 OFFCURVE",
"43 -2 OFFCURVE",
"54 -2 CURVE SMOOTH",
"360 -2 LINE",
"361 -5 LINE",
"815 -2 LINE",
"823 53 OFFCURVE",
"832 104 OFFCURVE",
"842 152 CURVE SMOOTH",
"850 192 OFFCURVE",
"861 236 OFFCURVE",
"873 273 CURVE SMOOTH",
"885 310 OFFCURVE",
"899 342 OFFCURVE",
"915 361 CURVE",
"915 363 OFFCURVE",
"914 369 OFFCURVE",
"913 380 CURVE",
"909 401 OFFCURVE",
"904 435 OFFCURVE",
"897 476 CURVE SMOOTH",
"894 496 OFFCURVE",
"891 517 OFFCURVE",
"888 538 CURVE SMOOTH",
"882 581 OFFCURVE",
"877 623 OFFCURVE",
"877 658 CURVE SMOOTH"
);
}
);
width = 891;
}
);
note = pe;
unicode = 05E4;
},
{
glyphname = tsadifinal;
lastChange = "2017-07-29 05:17:02 +0000";
layers = (
{
layerId = "4658478A-2F1B-4277-A21C-C0C75B782ED1";
paths = (
{
closed = 1;
nodes = (
"617 1718 LINE SMOOTH",
"604 1718 OFFCURVE",
"593 1721 OFFCURVE",
"583 1728 CURVE",
"562 1741 OFFCURVE",
"544 1761 OFFCURVE",
"528 1780 CURVE SMOOTH",
"520 1789 OFFCURVE",
"512 1797 OFFCURVE",
"505 1803 CURVE",
"497 1807 LINE",
"492 1810 OFFCURVE",
"488 1811 OFFCURVE",
"481 1811 CURVE SMOOTH",
"476 1811 OFFCURVE",
"469 1809 OFFCURVE",
"461 1806 CURVE",
"449 1799 OFFCURVE",
"440 1787 OFFCURVE",
"440 1772 CURVE SMOOTH",
"440 1371 LINE SMOOTH",
"440 1351 OFFCURVE",
"456 1335 OFFCURVE",
"476 1335 CURVE SMOOTH",
"521 1335 LINE SMOOTH",
"530 1335 OFFCURVE",
"534 1329 OFFCURVE",
"533 1316 CURVE SMOOTH",
"532 1303 OFFCURVE",
"520 1286 OFFCURVE",
"498 1267 CURVE SMOOTH",
"483 1254 OFFCURVE",
"457 1228 OFFCURVE",
"429 1197 CURVE SMOOTH",
"401 1165 OFFCURVE",
"370 1129 OFFCURVE",
"346 1097 CURVE SMOOTH",
"321 1065 OFFCURVE",
"302 1038 OFFCURVE",
"297 1023 CURVE",
"296 1022 OFFCURVE",
"293 1032 OFFCURVE",
"287 1051 CURVE SMOOTH",
"281 1070 OFFCURVE",
"278 1094 OFFCURVE",
"277 1125 CURVE SMOOTH",
"276 1186 OFFCURVE",
"289 1265 OFFCURVE",
"352 1340 CURVE",
"351 1340 LINE",
"363 1347 OFFCURVE",
"369 1357 OFFCURVE",
"369 1371 CURVE SMOOTH",
"369 1486 LINE",
"369 1646 LINE SMOOTH",
"369 1686 OFFCURVE",
"337 1718 OFFCURVE",
"297 1718 CURVE SMOOTH",
"202 1718 LINE SMOOTH",
"189 1718 OFFCURVE",
"178 1721 OFFCURVE",
"168 1728 CURVE",
"147 1741 OFFCURVE",
"129 1761 OFFCURVE",
"113 1780 CURVE SMOOTH",
"105 1789 OFFCURVE",
"97 1797 OFFCURVE",
"90 1803 CURVE",
"88 1804 OFFCURVE",
"86 1806 OFFCURVE",
"83 1807 CURVE",
"78 1810 OFFCURVE",
"72 1811 OFFCURVE",
"67 1811 CURVE SMOOTH",
"60 1811 OFFCURVE",
"54 1809 OFFCURVE",
"47 1806 CURVE",
"33 1799 OFFCURVE",
"26 1787 OFFCURVE",
"26 1772 CURVE SMOOTH",
"26 1371 LINE SMOOTH",
"26 1351 OFFCURVE",
"42 1335 OFFCURVE",
"62 1335 CURVE SMOOTH",
"198 1335 LINE SMOOTH",
"206 1335 OFFCURVE",
"210 1331 OFFCURVE",
"210 1322 CURVE",
"209 1313 OFFCURVE",
"207 1302 OFFCURVE",
"202 1289 CURVE SMOOTH",
"193 1264 OFFCURVE",
"177 1234 OFFCURVE",
"165 1214 CURVE",
"159 1205 OFFCURVE",
"152 1179 OFFCURVE",
"145 1138 CURVE SMOOTH",
"138 1097 OFFCURVE",
"133 1044 OFFCURVE",
"132 980 CURVE SMOOTH",
"129 852 OFFCURVE",
"140 684 OFFCURVE",
"187 501 CURVE SMOOTH",
"234 318 OFFCURVE",
"249 144 OFFCURVE",
"241 -3 CURVE SMOOTH",
"233 -150 OFFCURVE",
"201 -268 OFFCURVE",
"153 -339 CURVE",
"152 -338 OFFCURVE",
"156 -341 OFFCURVE",
"165 -347 CURVE",
"173 -353 OFFCURVE",
"183 -360 OFFCURVE",
"195 -369 CURVE",
"206 -378 OFFCURVE",
"218 -387 OFFCURVE",
"230 -396 CURVE",
"241 -405 OFFCURVE",
"250 -413 OFFCURVE",
"256 -418 CURVE",
"257 -419 OFFCURVE",
"261 -414 OFFCURVE",
"268 -401 CURVE SMOOTH",
"275 -388 OFFCURVE",
"284 -371 OFFCURVE",
"296 -350 CURVE SMOOTH",
"320 -308 OFFCURVE",
"355 -252 OFFCURVE",
"396 -193 CURVE SMOOTH",
"437 -134 OFFCURVE",
"485 -74 OFFCURVE",
"536 -27 CURVE",
"537 -26 OFFCURVE",
"534 -18 OFFCURVE",
"527 -2 CURVE SMOOTH",
"520 14 OFFCURVE",
"512 36 OFFCURVE",
"502 64 CURVE SMOOTH",
"482 120 OFFCURVE",
"456 197 OFFCURVE",
"433 286 CURVE SMOOTH",
"410 375 OFFCURVE",
"391 476 OFFCURVE",
"384 577 CURVE SMOOTH",
"376 678 OFFCURVE",
"382 782 OFFCURVE",
"409 875 CURVE SMOOTH",
"436 968 OFFCURVE",
"473 1044 OFFCURVE",
"514 1105 CURVE SMOOTH",
"554 1166 OFFCURVE",
"598 1211 OFFCURVE",
"638 1246 CURVE SMOOTH",
"685 1286 OFFCURVE",
"735 1316 OFFCURVE",
"786 1335 CURVE",
"784 1339 LINE",
"797 1346 OFFCURVE",
"804 1356 OFFCURVE",
"804 1371 CURVE SMOOTH",
"804 1486 LINE",
"804 1646 LINE SMOOTH",
"804 1686 OFFCURVE",
"772 1718 OFFCURVE",
"732 1718 CURVE SMOOTH"
);
}
);
width = 844;
}
);
note = tsadifinal;
unicode = 05E5;
},
{
glyphname = tsadi;
lastChange = "2017-07-29 05:17:02 +0000";
layers = (
{
layerId = "4658478A-2F1B-4277-A21C-C0C75B782ED1";
paths = (
{
closed = 1;
nodes = (
"838 389 LINE",
"583 845 LINE SMOOTH",
"572 866 OFFCURVE",
"568 891 OFFCURVE",
"571 920 CURVE SMOOTH",
"576 976 OFFCURVE",
"599 1038 OFFCURVE",
"631 1099 CURVE SMOOTH",
"663 1160 OFFCURVE",
"696 1213 OFFCURVE",
"724 1253 CURVE SMOOTH",
"751 1292 OFFCURVE",
"759 1301 OFFCURVE",
"775 1318 CURVE",
"782 1327 OFFCURVE",
"789 1337 OFFCURVE",
"794 1348 CURVE",
"801 1361 OFFCURVE",
"804 1377 OFFCURVE",
"804 1397 CURVE SMOOTH",
"804 1488 LINE",
"804 1648 LINE SMOOTH",
"804 1688 OFFCURVE",
"772 1720 OFFCURVE",
"732 1720 CURVE SMOOTH",
"632 1720 LINE SMOOTH",
"619 1720 OFFCURVE",
"608 1723 OFFCURVE",
"598 1730 CURVE",
"577 1743 OFFCURVE",
"559 1763 OFFCURVE",
"543 1782 CURVE SMOOTH",
"535 1791 OFFCURVE",
"527 1799 OFFCURVE",
"520 1805 CURVE",
"512 1809 LINE",
"507 1812 OFFCURVE",
"503 1813 OFFCURVE",
"496 1813 CURVE SMOOTH",
"491 1813 OFFCURVE",
"484 1811 OFFCURVE",
"476 1808 CURVE",
"464 1801 OFFCURVE",
"455 1789 OFFCURVE",
"455 1774 CURVE SMOOTH",
"455 1373 LINE SMOOTH",
"455 1353 OFFCURVE",
"471 1337 OFFCURVE",
"491 1337 CURVE SMOOTH",
"544 1337 LINE SMOOTH",
"560 1337 OFFCURVE",
"590 1335 OFFCURVE",
"611 1331 CURVE",
"631 1326 OFFCURVE",
"643 1317 OFFCURVE",
"627 1301 CURVE",
"610 1288 OFFCURVE",
"595 1272 OFFCURVE",
"580 1254 CURVE SMOOTH",
"550 1218 OFFCURVE",
"524 1180 OFFCURVE",
"504 1144 CURVE SMOOTH",
"483 1107 OFFCURVE",
"468 1078 OFFCURVE",
"461 1062 CURVE SMOOTH",
"457 1053 OFFCURVE",
"455 1050 OFFCURVE",
"455 1051 CURVE",
"419 1078 OFFCURVE",
"401 1122 OFFCURVE",
"393 1167 CURVE SMOOTH",
"384 1212 OFFCURVE",
"385 1257 OFFCURVE",
"385 1285 CURVE SMOOTH",
"385 1373 LINE",
"385 1376 LINE",
"385 1488 LINE",
"385 1648 LINE SMOOTH",
"385 1688 OFFCURVE",
"352 1720 OFFCURVE",
"312 1720 CURVE SMOOTH",
"217 1720 LINE SMOOTH",
"204 1720 OFFCURVE",
"193 1723 OFFCURVE",
"183 1730 CURVE",
"162 1743 OFFCURVE",
"144 1763 OFFCURVE",
"128 1782 CURVE SMOOTH",
"120 1791 OFFCURVE",
"112 1799 OFFCURVE",
"105 1805 CURVE",
"103 1806 OFFCURVE",
"101 1808 OFFCURVE",
"98 1809 CURVE",
"93 1812 OFFCURVE",
"87 1813 OFFCURVE",
"82 1813 CURVE SMOOTH",
"75 1813 OFFCURVE",
"69 1811 OFFCURVE",
"62 1808 CURVE",
"48 1801 OFFCURVE",
"41 1789 OFFCURVE",
"41 1774 CURVE SMOOTH",
"41 1373 LINE SMOOTH",
"41 1353 OFFCURVE",
"57 1337 OFFCURVE",
"77 1337 CURVE SMOOTH",
"191 1337 LINE SMOOTH",
"218 1337 OFFCURVE",
"248 1322 OFFCURVE",
"248 1283 CURVE SMOOTH",
"248 1131 LINE SMOOTH",
"248 1119 OFFCURVE",
"248 1107 OFFCURVE",
"247 1095 CURVE SMOOTH",
"246 1083 OFFCURVE",
"245 1071 OFFCURVE",
"244 1059 CURVE",
"243 1035 OFFCURVE",
"244 1010 OFFCURVE",
"251 983 CURVE",
"248 985 LINE",
"525 388 LINE",
"441 388 LINE",
"112 388 LINE SMOOTH",
"89 388 OFFCURVE",
"88 374 OFFCURVE",
"89 355 CURVE",
"89 351 LINE SMOOTH",
"89 219 OFFCURVE",
"64 104 OFFCURVE",
"24 21 CURVE",
"23 18 OFFCURVE",
"21 14 OFFCURVE",
"20 11 CURVE",
"18 8 OFFCURVE",
"17 5 OFFCURVE",
"17 2 CURVE SMOOTH",
"17 -3 OFFCURVE",
"20 -8 OFFCURVE",
"31 -8 CURVE SMOOTH",
"441 -8 LINE",
"735 -8 LINE",
"742 -1 OFFCURVE",
"747 3 OFFCURVE",
"750 6 CURVE",
"753 8 OFFCURVE",
"756 10 OFFCURVE",
"757 11 CURVE SMOOTH",
"758 12 OFFCURVE",
"758 13 OFFCURVE",
"758 15 CURVE",
"757 16 OFFCURVE",
"757 20 OFFCURVE",
"757 25 CURVE SMOOTH",
"757 28 LINE SMOOTH",
"757 135 OFFCURVE",
"797 230 OFFCURVE",
"833 307 CURVE",
"833 308 LINE",
"850 344 OFFCURVE",
"845 371 OFFCURVE",
"838 388 CURVE"
);
}
);
width = 869;
}
);
note = tsadi;
unicode = 05E6;
},
{
glyphname = qof;
lastChange = "2017-07-29 05:17:02 +0000";
layers = (
{
layerId = "4658478A-2F1B-4277-A21C-C0C75B782ED1";
paths = (
{
closed = 1;
nodes = (
"210 1720 OFFCURVE",
"199 1723 OFFCURVE",
"189 1730 CURVE",
"168 1743 OFFCURVE",
"150 1763 OFFCURVE",
"134 1782 CURVE SMOOTH",
"126 1791 OFFCURVE",
"118 1799 OFFCURVE",
"111 1805 CURVE",
"103 1809 LINE",
"98 1812 OFFCURVE",
"94 1813 OFFCURVE",
"87 1813 CURVE SMOOTH",
"82 1813 OFFCURVE",
"75 1811 OFFCURVE",
"67 1808 CURVE",
"55 1801 OFFCURVE",
"46 1789 OFFCURVE",
"46 1774 CURVE SMOOTH",
"46 1373 LINE SMOOTH",
"46 1353 OFFCURVE",
"62 1337 OFFCURVE",
"82 1337 CURVE SMOOTH",
"446 1337 LINE SMOOTH",
"478 1337 OFFCURVE",
"503 1330 OFFCURVE",
"520 1316 CURVE SMOOTH",
"554 1287 OFFCURVE",
"569 1236 OFFCURVE",
"576 1172 CURVE SMOOTH",
"579 1139 OFFCURVE",
"583 1105 OFFCURVE",
"588 1069 CURVE SMOOTH",
"597 997 OFFCURVE",
"582 916 OFFCURVE",
"557 843 CURVE SMOOTH",
"532 770 OFFCURVE",
"496 705 OFFCURVE",
"464 665 CURVE SMOOTH",
"432 625 OFFCURVE",
"387 551 OFFCURVE",
"351 470 CURVE SMOOTH",
"315 389 OFFCURVE",
"287 300 OFFCURVE",
"287 232 CURVE SMOOTH",
"287 -2 LINE",
"399 -2 LINE",
"396 23 OFFCURVE",
"397 49 OFFCURVE",
"403 76 CURVE SMOOTH",
"415 131 OFFCURVE",
"437 185 OFFCURVE",
"464 233 CURVE SMOOTH",
"491 281 OFFCURVE",
"514 320 OFFCURVE",
"530 342 CURVE",
"537 353 OFFCURVE",
"541 358 OFFCURVE",
"541 359 CURVE",
"536 368 OFFCURVE",
"534 385 OFFCURVE",
"534 412 CURVE",
"533 438 OFFCURVE",
"537 469 OFFCURVE",
"544 505 CURVE SMOOTH",
"559 576 OFFCURVE",
"590 663 OFFCURVE",
"647 739 CURVE SMOOTH",
"679 782 OFFCURVE",
"703 844 OFFCURVE",
"722 916 CURVE SMOOTH",
"741 988 OFFCURVE",
"754 1068 OFFCURVE",
"762 1147 CURVE SMOOTH",
"770 1226 OFFCURVE",
"774 1302 OFFCURVE",
"777 1363 CURVE",
"779 1366 OFFCURVE",
"780 1369 OFFCURVE",
"780 1373 CURVE SMOOTH",
"780 1488 LINE",
"780 1648 LINE SMOOTH",
"780 1688 OFFCURVE",
"747 1720 OFFCURVE",
"707 1720 CURVE SMOOTH",
"223 1720 LINE SMOOTH"
);
},
{
closed = 1;
nodes = (
"215 1006 OFFCURVE",
"214 1026 OFFCURVE",
"209 1037 CURVE SMOOTH",
"199 1059 OFFCURVE",
"178 1057 OFFCURVE",
"149 1039 CURVE SMOOTH",
"120 1021 OFFCURVE",
"84 1003 OFFCURVE",
"70 972 CURVE SMOOTH",
"56 940 OFFCURVE",
"48 899 OFFCURVE",
"47 853 CURVE SMOOTH",
"46 807 OFFCURVE",
"48 761 OFFCURVE",
"50 721 CURVE SMOOTH",
"51 701 OFFCURVE",
"51 684 OFFCURVE",
"51 670 CURVE SMOOTH",
"51 -103 LINE SMOOTH",
"51 -111 OFFCURVE",
"57 -118 OFFCURVE",
"66 -118 CURVE SMOOTH",
"200 -118 LINE SMOOTH",
"208 -118 OFFCURVE",
"215 -111 OFFCURVE",
"215 -103 CURVE SMOOTH",
"215 695 LINE SMOOTH",
"215 696 OFFCURVE",
"214 697 OFFCURVE",
"213 700 CURVE",
"213 723 OFFCURVE",
"213 746 OFFCURVE",
"213 771 CURVE",
"212 796 OFFCURVE",
"212 820 OFFCURVE",
"212 845 CURVE SMOOTH",
"212 894 OFFCURVE",
"213 942 OFFCURVE",
"214 979 CURVE SMOOTH"
);
}
);
width = 787;
}
);
note = qof;
unicode = 05E7;
},
{
glyphname = resh;
lastChange = "2017-07-29 05:17:02 +0000";
layers = (
{
layerId = "4658478A-2F1B-4277-A21C-C0C75B782ED1";
paths = (
{
closed = 1;
nodes = (
"710 1373 LINE",
"710 1405 LINE",
"710 1488 LINE",
"710 1648 LINE SMOOTH",
"710 1688 OFFCURVE",
"679 1720 OFFCURVE",
"638 1720 CURVE SMOOTH",
"226 1720 LINE SMOOTH",
"213 1720 OFFCURVE",
"202 1723 OFFCURVE",
"191 1730 CURVE SMOOTH",
"170 1743 OFFCURVE",
"152 1763 OFFCURVE",
"136 1782 CURVE SMOOTH",
"128 1791 OFFCURVE",
"120 1799 OFFCURVE",
"113 1805 CURVE",
"111 1806 OFFCURVE",
"109 1808 OFFCURVE",
"106 1809 CURVE",
"101 1812 OFFCURVE",
"95 1813 OFFCURVE",
"90 1813 CURVE SMOOTH",
"83 1813 OFFCURVE",
"77 1811 OFFCURVE",
"70 1808 CURVE",
"58 1801 OFFCURVE",
"49 1789 OFFCURVE",
"49 1774 CURVE SMOOTH",
"49 1373 LINE SMOOTH",
"49 1353 OFFCURVE",
"65 1337 OFFCURVE",
"85 1337 CURVE SMOOTH",
"315 1337 LINE",
"449 1337 LINE SMOOTH",
"473 1337 OFFCURVE",
"494 1327 OFFCURVE",
"510 1312 CURVE",
"525 1296 OFFCURVE",
"535 1275 OFFCURVE",
"535 1251 CURVE SMOOTH",
"535 1180 LINE",
"534 1175 OFFCURVE",
"534 1170 OFFCURVE",
"534 1164 CURVE SMOOTH",
"534 1120 LINE SMOOTH",
"533 1091 OFFCURVE",
"533 1054 OFFCURVE",
"533 1009 CURVE SMOOTH",
"532 919 OFFCURVE",
"531 808 OFFCURVE",
"529 688 CURVE SMOOTH",
"528 628 OFFCURVE",
"527 569 OFFCURVE",
"526 510 CURVE SMOOTH",
"525 451 OFFCURVE",
"525 395 OFFCURVE",
"524 341 CURVE SMOOTH",
"523 287 OFFCURVE",
"523 239 OFFCURVE",
"523 197 CURVE SMOOTH",
"522 154 OFFCURVE",
"522 119 OFFCURVE",
"522 92 CURVE",
"521 65 OFFCURVE",
"521 48 OFFCURVE",
"521 43 CURVE SMOOTH",
"521 30 OFFCURVE",
"523 21 OFFCURVE",
"526 15 CURVE SMOOTH",
"532 2 OFFCURVE",
"540 -2 OFFCURVE",
"551 -1 CURVE",
"556 -1 OFFCURVE",
"561 -1 OFFCURVE",
"565 -1 CURVE SMOOTH",
"570 -1 OFFCURVE",
"576 -1 OFFCURVE",
"584 -1 CURVE",
"591 -2 OFFCURVE",
"599 -2 OFFCURVE",
"606 -2 CURVE SMOOTH",
"634 -2 LINE",
"641 42 OFFCURVE",
"649 85 OFFCURVE",
"659 127 CURVE SMOOTH",
"667 163 OFFCURVE",
"677 203 OFFCURVE",
"690 242 CURVE SMOOTH",
"702 281 OFFCURVE",
"717 318 OFFCURVE",
"733 350 CURVE",
"734 351 OFFCURVE",
"734 357 OFFCURVE",
"733 369 CURVE SMOOTH",
"731 393 OFFCURVE",
"727 434 OFFCURVE",
"723 486 CURVE",
"720 512 OFFCURVE",
"718 539 OFFCURVE",
"717 568 CURVE",
"713 624 OFFCURVE",
"710 682 OFFCURVE",
"710 733 CURVE SMOOTH"
);
}
);
width = 785;
}
);
note = resh;
unicode = 05E8;
},
{
glyphname = shin;
lastChange = "2017-07-29 05:17:02 +0000";
layers = (
{
layerId = "4658478A-2F1B-4277-A21C-C0C75B782ED1";
paths = (
{
closed = 1;
nodes = (
"1188 1488 LINE",
"1188 1648 LINE SMOOTH",
"1188 1688 OFFCURVE",
"1155 1720 OFFCURVE",
"1115 1720 CURVE SMOOTH",
"1020 1720 LINE SMOOTH",
"1007 1720 OFFCURVE",
"996 1723 OFFCURVE",
"986 1730 CURVE",
"965 1743 OFFCURVE",
"947 1763 OFFCURVE",
"931 1782 CURVE SMOOTH",
"923 1791 OFFCURVE",
"915 1799 OFFCURVE",
"908 1805 CURVE",
"906 1806 OFFCURVE",
"904 1808 OFFCURVE",
"901 1809 CURVE",
"896 1812 OFFCURVE",
"890 1813 OFFCURVE",
"885 1813 CURVE SMOOTH",
"878 1813 OFFCURVE",
"872 1811 OFFCURVE",
"865 1808 CURVE",
"851 1801 OFFCURVE",
"844 1789 OFFCURVE",
"844 1774 CURVE SMOOTH",
"844 1373 LINE SMOOTH",
"844 1353 OFFCURVE",
"860 1337 OFFCURVE",
"880 1337 CURVE SMOOTH",
"999 1337 LINE",
"967 1292 OFFCURVE",
"917 1217 OFFCURVE",
"867 1106 CURVE SMOOTH",
"817 995 OFFCURVE",
"767 847 OFFCURVE",
"738 658 CURVE SMOOTH",
"717 521 OFFCURVE",
"695 446 OFFCURVE",
"674 394 CURVE",
"555 394 LINE SMOOTH",
"527 394 OFFCURVE",
"515 417 OFFCURVE",
"515 454 CURVE SMOOTH",
"515 460 OFFCURVE",
"516 476 OFFCURVE",
"518 502 CURVE SMOOTH",
"520 528 OFFCURVE",
"523 560 OFFCURVE",
"527 599 CURVE SMOOTH",
"535 676 OFFCURVE",
"548 777 OFFCURVE",
"568 878 CURVE SMOOTH",
"587 979 OFFCURVE",
"612 1083 OFFCURVE",
"644 1167 CURVE SMOOTH",
"676 1251 OFFCURVE",
"717 1317 OFFCURVE",
"765 1342 CURVE",
"765 1343 LINE",
"776 1350 OFFCURVE",
"782 1360 OFFCURVE",
"782 1373 CURVE SMOOTH",
"782 1488 LINE",
"782 1648 LINE SMOOTH",
"782 1688 OFFCURVE",
"750 1720 OFFCURVE",
"710 1720 CURVE SMOOTH",
"615 1720 LINE SMOOTH",
"602 1720 OFFCURVE",
"591 1723 OFFCURVE",
"581 1730 CURVE",
"560 1743 OFFCURVE",
"542 1763 OFFCURVE",
"526 1782 CURVE SMOOTH",
"518 1791 OFFCURVE",
"510 1799 OFFCURVE",
"503 1805 CURVE",
"501 1806 OFFCURVE",
"499 1808 OFFCURVE",
"496 1809 CURVE",
"491 1812 OFFCURVE",
"485 1813 OFFCURVE",
"480 1813 CURVE SMOOTH",
"474 1813 OFFCURVE",
"467 1811 OFFCURVE",
"459 1808 CURVE",
"447 1801 OFFCURVE",
"438 1789 OFFCURVE",
"438 1774 CURVE SMOOTH",
"438 1373 LINE SMOOTH",
"438 1353 OFFCURVE",
"455 1337 OFFCURVE",
"474 1337 CURVE SMOOTH",
"605 1337 LINE",
"569 1274 OFFCURVE",
"523 1186 OFFCURVE",
"484 1075 CURVE SMOOTH",
"445 963 OFFCURVE",
"411 831 OFFCURVE",
"402 683 CURVE",
"402 679 OFFCURVE",
"402 670 OFFCURVE",
"401 656 CURVE SMOOTH",
"400 641 OFFCURVE",
"400 624 OFFCURVE",
"399 605 CURVE SMOOTH",
"398 585 OFFCURVE",
"397 564 OFFCURVE",
"396 543 CURVE SMOOTH",
"394 499 OFFCURVE",
"392 460 OFFCURVE",
"390 433 CURVE SMOOTH",
"389 420 OFFCURVE",
"388 412 OFFCURVE",
"388 409 CURVE SMOOTH",
"388 401 OFFCURVE",
"381 396 OFFCURVE",
"374 395 CURVE SMOOTH",
"367 394 OFFCURVE",
"361 396 OFFCURVE",
"360 404 CURVE",
"357 421 OFFCURVE",
"354 443 OFFCURVE",
"350 470 CURVE SMOOTH",
"346 497 OFFCURVE",
"342 526 OFFCURVE",
"337 558 CURVE SMOOTH",
"332 590 OFFCURVE",
"326 624 OFFCURVE",
"321 659 CURVE SMOOTH",
"316 694 OFFCURVE",
"310 729 OFFCURVE",
"305 763 CURVE SMOOTH",
"293 843 OFFCURVE",
"280 928 OFFCURVE",
"265 1018 CURVE",
"261 1059 OFFCURVE",
"260 1098 OFFCURVE",
"262 1135 CURVE SMOOTH",
"263 1166 OFFCURVE",
"268 1199 OFFCURVE",
"276 1228 CURVE SMOOTH",
"284 1257 OFFCURVE",
"297 1282 OFFCURVE",
"317 1298 CURVE SMOOTH",
"341 1317 OFFCURVE",
"357 1334 OFFCURVE",
"366 1347 CURVE",
"373 1354 OFFCURVE",
"377 1363 OFFCURVE",
"377 1373 CURVE",
"379 1382 OFFCURVE",
"380 1390 OFFCURVE",
"379 1399 CURVE SMOOTH",
"378 1407 OFFCURVE",
"377 1416 OFFCURVE",
"377 1427 CURVE SMOOTH",
"377 1488 LINE",
"377 1648 LINE SMOOTH",
"377 1688 OFFCURVE",
"345 1720 OFFCURVE",
"305 1720 CURVE SMOOTH",
"210 1720 LINE SMOOTH",
"197 1720 OFFCURVE",
"186 1723 OFFCURVE",
"176 1730 CURVE",
"155 1743 OFFCURVE",
"137 1763 OFFCURVE",
"121 1782 CURVE SMOOTH",
"113 1791 OFFCURVE",
"105 1799 OFFCURVE",
"98 1805 CURVE",
"96 1806 OFFCURVE",
"94 1808 OFFCURVE",
"91 1809 CURVE",
"86 1812 OFFCURVE",
"80 1813 OFFCURVE",
"75 1813 CURVE SMOOTH",
"69 1813 OFFCURVE",
"62 1811 OFFCURVE",
"54 1808 CURVE",
"42 1801 OFFCURVE",
"33 1789 OFFCURVE",
"33 1774 CURVE SMOOTH",
"33 1373 LINE SMOOTH",
"33 1353 OFFCURVE",
"50 1337 OFFCURVE",
"69 1337 CURVE SMOOTH",
"197 1337 LINE",
"188 1320 OFFCURVE",
"179 1302 OFFCURVE",
"170 1285 CURVE SMOOTH",
"160 1267 OFFCURVE",
"151 1247 OFFCURVE",
"143 1225 CURVE SMOOTH",
"127 1181 OFFCURVE",
"115 1127 OFFCURVE",
"115 1051 CURVE SMOOTH",
"115 1018 OFFCURVE",
"125 934 OFFCURVE",
"138 820 CURVE SMOOTH",
"150 706 OFFCURVE",
"166 564 OFFCURVE",
"176 419 CURVE SMOOTH",
"186 274 OFFCURVE",
"192 125 OFFCURVE",
"185 -2 CURVE",
"540 -2 LINE",
"701 -2 LINE",
"822 -2 LINE",
"829 42 OFFCURVE",
"837 85 OFFCURVE",
"846 126 CURVE SMOOTH",
"854 161 OFFCURVE",
"863 199 OFFCURVE",
"872 235 CURVE SMOOTH",
"881 271 OFFCURVE",
"892 304 OFFCURVE",
"903 328 CURVE",
"904 328 OFFCURVE",
"904 338 OFFCURVE",
"905 358 CURVE SMOOTH",
"906 377 OFFCURVE",
"907 403 OFFCURVE",
"908 434 CURVE SMOOTH",
"911 496 OFFCURVE",
"915 576 OFFCURVE",
"920 650 CURVE SMOOTH",
"924 724 OFFCURVE",
"929 791 OFFCURVE",
"937 830 CURVE SMOOTH",
"948 888 OFFCURVE",
"963 947 OFFCURVE",
"981 1007 CURVE SMOOTH",
"1016 1127 OFFCURVE",
"1064 1223 OFFCURVE",
"1106 1273 CURVE SMOOTH",
"1127 1298 OFFCURVE",
"1145 1313 OFFCURVE",
"1160 1319 CURVE SMOOTH",
"1167 1322 OFFCURVE",
"1173 1327 OFFCURVE",
"1177 1335 CURVE SMOOTH",
"1184 1350 OFFCURVE",
"1188 1362 OFFCURVE",
"1188 1373 CURVE SMOOTH",
"1188 1386 LINE",
"1188 1398 LINE"
);
}
);
width = 1237;
}
);
note = shin;
unicode = 05E9;
},
{
glyphname = tav;
lastChange = "2017-07-29 05:17:02 +0000";
layers = (
{
layerId = "4658478A-2F1B-4277-A21C-C0C75B782ED1";
paths = (
{
closed = 1;
nodes = (
"920 1379 LINE",
"920 1411 LINE",
"920 1494 LINE",
"920 1654 LINE SMOOTH",
"920 1694 OFFCURVE",
"888 1726 OFFCURVE",
"848 1726 CURVE SMOOTH",
"364 1726 LINE SMOOTH",
"351 1726 OFFCURVE",
"340 1729 OFFCURVE",
"330 1736 CURVE",
"309 1749 OFFCURVE",
"291 1769 OFFCURVE",
"275 1788 CURVE SMOOTH",
"267 1797 OFFCURVE",
"259 1805 OFFCURVE",
"252 1811 CURVE",
"250 1812 OFFCURVE",
"248 1814 OFFCURVE",
"245 1815 CURVE",
"240 1818 OFFCURVE",
"234 1819 OFFCURVE",
"229 1819 CURVE SMOOTH",
"221 1819 OFFCURVE",
"215 1817 OFFCURVE",
"208 1814 CURVE",
"196 1807 OFFCURVE",
"187 1795 OFFCURVE",
"187 1780 CURVE SMOOTH",
"187 1379 LINE SMOOTH",
"187 1359 OFFCURVE",
"203 1343 OFFCURVE",
"223 1343 CURVE SMOOTH",
"338 1343 LINE",
"303 1306 OFFCURVE",
"271 1246 OFFCURVE",
"231 1170 CURVE SMOOTH",
"206 1121 OFFCURVE",
"190 1046 OFFCURVE",
"182 962 CURVE SMOOTH",
"174 878 OFFCURVE",
"174 786 OFFCURVE",
"179 703 CURVE SMOOTH",
"183 620 OFFCURVE",
"193 547 OFFCURVE",
"208 503 CURVE",
"220 463 OFFCURVE",
"224 437 OFFCURVE",
"222 421 CURVE SMOOTH",
"220 404 OFFCURVE",
"211 396 OFFCURVE",
"200 392 CURVE",
"146 392 LINE",
"142 393 OFFCURVE",
"139 393 OFFCURVE",
"137 392 CURVE",
"129 392 LINE",
"106 392 LINE SMOOTH",
"83 392 OFFCURVE",
"82 380 OFFCURVE",
"83 360 CURVE",
"83 356 LINE SMOOTH",
"83 225 OFFCURVE",
"58 110 OFFCURVE",
"18 26 CURVE",
"17 23 OFFCURVE",
"15 19 OFFCURVE",
"14 16 CURVE",
"12 13 OFFCURVE",
"11 10 OFFCURVE",
"11 7 CURVE SMOOTH",
"11 2 OFFCURVE",
"14 -3 OFFCURVE",
"25 -3 CURVE SMOOTH",
"129 -3 LINE",
"367 -3 LINE",
"391 -3 LINE SMOOTH",
"414 -3 OFFCURVE",
"414 10 OFFCURVE",
"413 29 CURVE",
"413 33 LINE SMOOTH",
"413 165 OFFCURVE",
"439 280 OFFCURVE",
"478 364 CURVE",
"483 373 OFFCURVE",
"490 387 OFFCURVE",
"479 391 CURVE",
"416 488 OFFCURVE",
"384 606 OFFCURVE",
"368 720 CURVE SMOOTH",
"351 834 OFFCURVE",
"350 943 OFFCURVE",
"350 1026 CURVE SMOOTH",
"350 1109 OFFCURVE",
"384 1188 OFFCURVE",
"426 1247 CURVE SMOOTH",
"468 1306 OFFCURVE",
"518 1343 OFFCURVE",
"554 1343 CURVE SMOOTH",
"658 1343 LINE SMOOTH",
"682 1343 OFFCURVE",
"703 1333 OFFCURVE",
"719 1318 CURVE SMOOTH",
"735 1302 OFFCURVE",
"744 1281 OFFCURVE",
"744 1257 CURVE SMOOTH",
"744 1186 LINE",
"743 1181 OFFCURVE",
"743 1176 OFFCURVE",
"743 1170 CURVE SMOOTH",
"743 1126 LINE SMOOTH",
"742 1097 OFFCURVE",
"742 1059 OFFCURVE",
"741 1014 CURVE SMOOTH",
"740 923 OFFCURVE",
"738 812 OFFCURVE",
"735 692 CURVE SMOOTH",
"732 571 OFFCURVE",
"730 451 OFFCURVE",
"727 343 CURVE SMOOTH",
"726 288 OFFCURVE",
"725 240 OFFCURVE",
"724 197 CURVE SMOOTH",
"723 154 OFFCURVE",
"723 118 OFFCURVE",
"722 91 CURVE SMOOTH",
"721 63 OFFCURVE",
"721 46 OFFCURVE",
"721 41 CURVE SMOOTH",
"721 28 OFFCURVE",
"723 19 OFFCURVE",
"726 13 CURVE SMOOTH",
"732 0 OFFCURVE",
"741 -4 OFFCURVE",
"751 -3 CURVE",
"756 -3 OFFCURVE",
"760 -3 OFFCURVE",
"764 -3 CURVE SMOOTH",
"833 -3 LINE",
"840 46 OFFCURVE",
"848 95 OFFCURVE",
"858 142 CURVE SMOOTH",
"866 182 OFFCURVE",
"876 227 OFFCURVE",
"889 269 CURVE SMOOTH",
"901 311 OFFCURVE",
"916 350 OFFCURVE",
"932 382 CURVE",
"933 383 OFFCURVE",
"933 395 OFFCURVE",
"932 418 CURVE SMOOTH",
"931 441 OFFCURVE",
"929 470 OFFCURVE",
"928 505 CURVE SMOOTH",
"924 576 OFFCURVE",
"920 664 OFFCURVE",
"920 739 CURVE SMOOTH"
);
}
);
width = 977;
}
);
note = tav;
unicode = 05EA;
},
